<?xml version="1.0" encoding="UTF-8"?>
<svg version="1.1" xmlns="http://www.w3.org/2000/svg" width="1024" height="1024">
<path d="M0 0 C1.29166194 -0.00320648 2.58332387 -0.00641296 3.91412708 -0.0097166 C7.48554784 -0.018296 11.05686282 -0.01452715 14.62828508 -0.00866088 C18.51906525 -0.00447719 22.40982659 -0.01190009 26.30060214 -0.01781338 C33.1152555 -0.02656608 39.92987881 -0.0278908 46.7445364 -0.02431011 C56.87837875 -0.01899946 67.01219205 -0.02510207 77.14603124 -0.03339304 C96.29857289 -0.04863194 115.45110131 -0.05033823 134.60364775 -0.04787002 C149.39350484 -0.04603723 164.1833576 -0.04779667 178.97321415 -0.05209446 C181.0982061 -0.05269686 183.22319805 -0.05329806 185.34819001 -0.05389806 C188.55036636 -0.05480532 191.75254271 -0.05571398 194.95471906 -0.05663041 C224.72632587 -0.06505981 254.49793105 -0.06939572 284.26953888 -0.06522369 C285.39183344 -0.06506732 286.51412801 -0.06491094 287.6704315 -0.06474983 C293.35863838 -0.06394405 299.04684527 -0.06309828 304.73505215 -0.06223653 C306.42958961 -0.06197989 306.42958961 -0.06197989 308.15836016 -0.06171808 C310.44287077 -0.06137142 312.72738138 -0.06102289 315.01189198 -0.06067249 C350.56041881 -0.05531506 386.10892084 -0.0632464 421.65744305 -0.08170605 C461.59878774 -0.10242252 501.54011706 -0.11314945 541.48146743 -0.10913056 C545.74034353 -0.10873522 549.99921963 -0.10837367 554.25809574 -0.10803318 C555.83105415 -0.10789708 555.83105415 -0.10789708 557.4357895 -0.10775824 C573.26502423 -0.10659233 589.09424345 -0.11324001 604.92347431 -0.1238451 C622.92600937 -0.13589395 640.92851025 -0.13745966 658.93104581 -0.12505493 C669.00398261 -0.11842473 679.07683768 -0.12006114 689.14976795 -0.13364345 C695.88158648 -0.14188813 702.61334379 -0.13919013 709.34515735 -0.12766818 C713.17843235 -0.121412 717.01154789 -0.11981028 720.84481368 -0.13153151 C724.98174725 -0.14406456 729.11830157 -0.13321644 733.25523376 -0.12025452 C734.43461379 -0.12756386 735.61399381 -0.13487321 736.82911262 -0.14240405 C745.13582113 -0.08850654 752.76373677 1.26496256 760.81637859 3.25447559 C761.57072864 3.43171196 762.32507868 3.60894834 763.10228782 3.79155551 C775.68978598 6.79794484 787.16834987 11.24463898 798.62887859 17.19197559 C799.41746258 17.59883595 800.20604656 18.0056963 801.01852703 18.42488575 C806.35076261 21.25953184 811.06886832 24.53566373 815.81637859 28.25447559 C817.0227341 29.15816355 818.230999 30.05930956 819.44137859 30.95760059 C820.56670675 31.80612389 821.69171132 32.65507653 822.81637859 33.50447559 C823.40032391 33.93760059 823.98426922 34.37072559 824.58590984 34.81697559 C826.03338217 35.91529183 827.43027095 37.07966485 828.81637859 38.25447559 C828.81637859 38.91447559 828.81637859 39.57447559 828.81637859 40.25447559 C829.77544109 40.65666309 829.77544109 40.65666309 830.75387859 41.06697559 C832.81637859 42.25447559 832.81637859 42.25447559 833.81637859 45.25447559 C834.47637859 45.58447559 835.13637859 45.91447559 835.81637859 46.25447559 C836.47637859 46.58447559 837.13637859 46.91447559 837.81637859 47.25447559 C838.14637859 48.24447559 838.47637859 49.23447559 838.81637859 50.25447559 C839.40676922 50.53162403 839.99715984 50.80877247 840.60544109 51.09431934 C845.54193581 53.68467081 848.62143797 59.76246769 851.81637859 64.25447559 C852.33329266 64.95572559 852.85020672 65.65697559 853.38278484 66.37947559 C873.64186135 95.00768626 879.62648976 127.10683466 879.44631364 161.5335764 C879.43161733 165.42668659 879.4464192 169.31971549 879.45719862 173.21282333 C879.47207477 180.01298613 879.46866631 186.81294136 879.45278072 193.6130991 C879.42922399 203.72514538 879.43460225 213.83703728 879.44548962 223.94909781 C879.4640191 242.01313394 879.4544125 260.07707103 879.43301199 278.14109904 C879.41442324 293.94401947 879.40603588 309.7469067 879.40758038 325.54983807 C879.40767205 326.59984886 879.40776373 327.64985966 879.40785818 328.73168896 C879.40825136 332.9943913 879.408701 337.25709362 879.40922957 341.51979594 C879.4140948 381.46154823 879.39147539 421.40324165 879.35527334 461.34497565 C879.32326172 496.81490252 879.31123371 532.28477914 879.31735516 567.75471973 C879.317742 570.03366757 879.31812846 572.3126154 879.31851453 574.59156323 C879.31870587 575.71824582 879.31889722 576.84492842 879.31909436 578.0057529 C879.32004873 583.67757883 879.3209631 589.34940476 879.32183361 595.0212307 C879.3220943 596.69976191 879.3220943 596.69976191 879.32236026 598.41220285 C879.32671611 628.07734113 879.31670015 657.742474 879.30199575 687.40760845 C879.30147561 688.46293086 879.30095547 689.51825327 879.30041957 690.60555514 C879.29964055 692.18560999 879.29964055 692.18560999 879.2988458 693.79758514 C879.29832806 694.84899887 879.29781032 695.9004126 879.29727689 696.98368735 C879.29622881 699.1010654 879.2951686 701.21844344 879.29409617 703.33582148 C879.28672012 718.08721308 879.2846265 732.83859702 879.28609017 747.58999024 C879.2879365 766.59444814 879.2798571 785.59885873 879.25444871 804.60330117 C879.24129597 814.64963151 879.2362658 824.69588634 879.24308725 834.74222342 C879.24680385 841.45589279 879.23957104 848.16949336 879.22349487 854.88314434 C879.21463703 858.70583222 879.21040031 862.52836498 879.21942204 866.35105605 C879.22903338 870.47645892 879.21531925 874.60146687 879.19948864 878.72685051 C879.20916635 880.49077529 879.20916635 880.49077529 879.21903956 882.29033491 C879.15933667 890.58731144 877.80208452 898.21087846 875.81637859 906.25447559 C875.55054024 907.38606547 875.55054024 907.38606547 875.27933142 908.54051575 C872.27253923 921.1279302 867.82623805 932.60640285 861.87887859 944.06697559 C861.47201824 944.85555958 861.06515789 945.64414356 860.64596844 946.45662403 C857.81132234 951.78885961 854.53519046 956.50696532 850.81637859 961.25447559 C849.91269064 962.4608311 849.01154463 963.669096 848.11325359 964.87947559 C847.26473029 966.00480375 846.41577766 967.12980832 845.56637859 968.25447559 C845.13325359 968.83842091 844.70012859 969.42236622 844.25387859 970.02400684 C843.15556236 971.47147917 841.99118934 972.86836795 840.81637859 974.25447559 C840.15637859 974.25447559 839.49637859 974.25447559 838.81637859 974.25447559 C838.54825359 974.89385059 838.28012859 975.53322559 838.00387859 976.19197559 C836.81637859 978.25447559 836.81637859 978.25447559 833.81637859 979.25447559 C833.48637859 979.91447559 833.15637859 980.57447559 832.81637859 981.25447559 C832.48637859 981.91447559 832.15637859 982.57447559 831.81637859 983.25447559 C830.82637859 983.58447559 829.83637859 983.91447559 828.81637859 984.25447559 C828.53923016 984.84486622 828.26208172 985.43525684 827.97653484 986.04353809 C825.38618338 990.98003281 819.3083865 994.05953497 814.81637859 997.25447559 C814.11512859 997.77138966 813.41387859 998.28830372 812.69137859 998.82088184 C801.71416781 1006.58902899 788.72304914 1013.45637414 775.81637859 1017.25447559 C775.14751629 1017.45379688 774.47865398 1017.65311817 773.78952312 1017.8584795 C771.46860917 1018.54483353 769.14387984 1019.21581251 766.81637859 1019.87947559 C766.09248943 1020.08612843 765.36860027 1020.29278126 764.62277508 1020.5056963 C754.24645592 1023.36136153 744.39603079 1024.54883692 733.63275719 1024.50895119 C732.34109525 1024.51215767 731.04943331 1024.51536414 729.71863011 1024.51866779 C726.14720935 1024.52724719 722.57589436 1024.52347833 719.00447211 1024.51761206 C715.11369193 1024.51342837 711.22293059 1024.52085128 707.33215505 1024.52676457 C700.51750168 1024.53551727 693.70287837 1024.53684199 686.88822079 1024.5332613 C676.75437843 1024.52795065 666.62056514 1024.53405325 656.48672594 1024.54234423 C637.3341843 1024.55758313 618.18165588 1024.55928942 599.02910944 1024.5568212 C584.23925235 1024.55498841 569.44939959 1024.55674786 554.65954304 1024.56104565 C552.53455109 1024.56164805 550.40955913 1024.56224925 548.28456718 1024.56284925 C545.08239083 1024.5637565 541.88021448 1024.56466517 538.67803813 1024.5655816 C508.90643132 1024.574011 479.13482614 1024.57834691 449.36321831 1024.57417488 C447.67977646 1024.57394032 447.67977646 1024.57394032 445.96232569 1024.57370101 C440.2741188 1024.57289523 434.58591192 1024.57204946 428.89770504 1024.57118771 C427.7680134 1024.57101662 426.63832175 1024.57084554 425.47439703 1024.57066926 C423.18988642 1024.57032261 420.90537581 1024.56997408 418.6208652 1024.56962368 C383.07233837 1024.56426624 347.52383635 1024.57219759 311.97531414 1024.59065723 C272.03396945 1024.61137371 232.09264013 1024.62210064 192.15128976 1024.61808175 C187.89241366 1024.6176864 183.63353755 1024.61732486 179.37466145 1024.61698437 C177.80170304 1024.61684827 177.80170304 1024.61684827 176.19696769 1024.61670942 C160.36773295 1024.61554352 144.53851373 1024.6221912 128.70928288 1024.63279629 C110.70674782 1024.64484514 92.70424694 1024.64641085 74.70171138 1024.63400612 C64.62877458 1024.62737592 54.5559195 1024.62901233 44.48298924 1024.64259463 C37.75117071 1024.65083932 31.01941339 1024.64814131 24.28759984 1024.63661937 C20.45432483 1024.63036319 16.62120929 1024.62876147 12.7879435 1024.6404827 C8.65100993 1024.65301575 4.51445562 1024.64216763 0.37752342 1024.6292057 C-0.8018566 1024.63651505 -1.98123662 1024.6438244 -3.19635543 1024.65135524 C-11.50306394 1024.59745773 -19.13097958 1023.24398863 -27.18362141 1021.25447559 C-27.93797145 1021.07723922 -28.69232149 1020.90000285 -29.46953063 1020.71739568 C-42.05702879 1017.71100635 -53.53559268 1013.2643122 -64.99612141 1007.31697559 C-65.78470539 1006.91011524 -66.57328938 1006.50325489 -67.38576984 1006.08406544 C-72.71800542 1003.24941934 -77.43611113 999.97328746 -82.18362141 996.25447559 C-83.38997691 995.35078764 -84.59824182 994.44964163 -85.80862141 993.55135059 C-86.93394956 992.70282729 -88.05895413 991.85387466 -89.18362141 991.00447559 C-90.05953938 990.35478809 -90.05953938 990.35478809 -90.95315266 989.69197559 C-92.40062498 988.59365936 -93.79751377 987.42928634 -95.18362141 986.25447559 C-95.18362141 985.59447559 -95.18362141 984.93447559 -95.18362141 984.25447559 C-95.82299641 983.98635059 -96.46237141 983.71822559 -97.12112141 983.44197559 C-99.18362141 982.25447559 -99.18362141 982.25447559 -100.18362141 979.25447559 C-100.84362141 978.92447559 -101.50362141 978.59447559 -102.18362141 978.25447559 C-104.18362141 977.25447559 -104.18362141 977.25447559 -105.18362141 974.25447559 C-105.77401203 973.97732716 -106.36440266 973.70017872 -106.97268391 973.41463184 C-111.90917862 970.82428038 -114.98868078 964.7464835 -118.18362141 960.25447559 C-118.70053547 959.55322559 -119.21744953 958.85197559 -119.75002766 958.12947559 C-127.5181748 947.15226481 -134.38551995 934.16114614 -138.18362141 921.25447559 C-138.3829427 920.58561329 -138.58226398 919.91675098 -138.78762531 919.22762012 C-139.47397934 916.90670617 -140.14495832 914.58197684 -140.80862141 912.25447559 C-141.01527424 911.53058643 -141.22192707 910.80669727 -141.43484211 910.06087208 C-144.29050734 899.68455292 -145.47798273 889.83412779 -145.438097 879.07085419 C-145.44130348 877.77919225 -145.44450996 876.48753031 -145.4478136 875.15672711 C-145.456393 871.58530635 -145.45262415 868.01399136 -145.44675788 864.44256911 C-145.44257419 860.55178893 -145.44999709 856.66102759 -145.45591038 852.77025205 C-145.46466308 845.95559868 -145.4659878 839.14097537 -145.46240711 832.32631779 C-145.45709646 822.19247543 -145.46319907 812.05866214 -145.47149005 801.92482294 C-145.48672894 782.7722813 -145.48843523 763.61975288 -145.48596702 744.46720644 C-145.48413423 729.67734935 -145.48589367 714.88749659 -145.49019146 700.09764004 C-145.49079386 697.97264809 -145.49139506 695.84765613 -145.49199506 693.72266418 C-145.49290232 690.52048783 -145.49381098 687.31831148 -145.49472741 684.11613513 C-145.50315681 654.34452832 -145.50749272 624.57292314 -145.50332069 594.80131531 C-145.50316432 593.67902074 -145.50300794 592.55672618 -145.50284683 591.40042269 C-145.50204105 585.7122158 -145.50119528 580.02400892 -145.50033353 574.33580204 C-145.50016244 573.2061104 -145.49999135 572.07641875 -145.49981508 570.91249403 C-145.49946842 568.62798342 -145.49911989 566.34347281 -145.49876949 564.0589622 C-145.49341206 528.51043537 -145.5013434 492.96193335 -145.51980305 457.41341114 C-145.54051952 417.47206645 -145.55124645 377.53073713 -145.54722756 337.58938676 C-145.54683222 333.33051066 -145.54647067 329.07163455 -145.54613018 324.81275845 C-145.54603945 323.76411951 -145.54594872 322.71548057 -145.54585524 321.63506469 C-145.54468933 305.80582995 -145.55133701 289.97661073 -145.5619421 274.14737988 C-145.57399095 256.14484482 -145.57555666 238.14234394 -145.56315193 220.13980838 C-145.55652173 210.06687158 -145.55815814 199.9940165 -145.57174045 189.92108624 C-145.57998513 183.18926771 -145.57728713 176.45751039 -145.56576518 169.72569684 C-145.559509 165.89242184 -145.55790728 162.05930629 -145.56962851 158.2260405 C-145.58216156 154.08910693 -145.57131345 149.95255262 -145.55835152 145.81562042 C-145.56931554 144.04655039 -145.56931554 144.04655039 -145.58050105 142.24174157 C-145.52660354 133.93503306 -144.17313444 126.30711742 -142.18362141 118.25447559 C-141.91776685 117.12295053 -141.91776685 117.12295053 -141.64654149 115.96856637 C-138.64015216 103.38106821 -134.19345802 91.90250432 -128.24612141 80.44197559 C-127.83926105 79.65339161 -127.4324007 78.86480762 -127.01321125 78.05232716 C-124.17856516 72.72009158 -120.90243327 68.00198587 -117.18362141 63.25447559 C-116.27993345 62.04812009 -115.37878744 60.83985518 -114.48049641 59.62947559 C-113.63197311 58.50414744 -112.78302047 57.37914287 -111.93362141 56.25447559 C-111.50049641 55.67053028 -111.06737141 55.08658497 -110.62112141 54.48494434 C-109.52280517 53.03747202 -108.35843215 51.64058323 -107.18362141 50.25447559 C-106.52362141 50.25447559 -105.86362141 50.25447559 -105.18362141 50.25447559 C-104.91549641 49.61510059 -104.64737141 48.97572559 -104.37112141 48.31697559 C-103.18362141 46.25447559 -103.18362141 46.25447559 -100.18362141 45.25447559 C-99.68862141 44.26447559 -99.68862141 44.26447559 -99.18362141 43.25447559 C-98.18362141 41.25447559 -98.18362141 41.25447559 -95.18362141 40.25447559 C-94.90647297 39.66408497 -94.62932453 39.07369434 -94.34377766 38.46541309 C-91.75342619 33.52891838 -85.67562931 30.44941622 -81.18362141 27.25447559 C-80.13174641 26.4791045 -80.13174641 26.4791045 -79.05862141 25.68806934 C-68.08141063 17.9199222 -55.09029195 11.05257705 -42.18362141 7.25447559 C-41.5147591 7.0551543 -40.8458968 6.85583302 -40.15676594 6.65047169 C-37.83585198 5.96411766 -35.51112266 5.29313868 -33.18362141 4.62947559 C-32.45973225 4.42282276 -31.73584309 4.21616993 -30.99001789 4.00325489 C-20.61369873 1.14758966 -10.7632736 -0.03988573 0 0 Z " fill="#1877F2" transform="translate(145.18362140655518,-0.25447559356689453)"/>
<path d="M0 0 C4.10935538 0.42838224 8.22306073 0.7911378 12.33935547 1.14550781 C13.70031715 1.26573754 15.061239 1.38641912 16.42211914 1.50756836 C18.89191688 1.72731439 21.36209082 1.94290999 23.83276367 2.15258789 C35.4551471 3.24297996 46.46029961 5.39582147 58.09326172 7.41894531 C58.09326172 48.99894531 58.09326172 90.57894531 58.09326172 133.41894531 C19.09326172 133.79394531 19.09326172 133.79394531 6.81591797 133.89697266 C3.15831066 133.93691809 3.15831066 133.93691809 -0.49926758 133.97940063 C-2.11804833 133.9969915 -3.73687259 134.01083761 -5.35571289 134.02163696 C-7.81952105 134.03882094 -10.28292608 134.06819298 -12.74658203 134.10009766 C-13.81355568 134.10335588 -13.81355568 134.10335588 -14.90208435 134.10667992 C-19.89129493 134.1891855 -24.12260352 135.14659477 -28.90673828 136.41894531 C-30.25900751 136.5288532 -31.61358992 136.61482195 -32.96923828 136.66894531 C-47.03101333 138.12110797 -61.82127235 147.18304147 -71.29345703 157.36035156 C-85.03238251 174.89161967 -88.97996397 193.49754852 -89.11206055 215.19287109 C-89.12209327 216.23485594 -89.13212599 217.27684078 -89.14246273 218.35040092 C-89.17358288 221.6883314 -89.19850845 225.02627387 -89.22314453 228.36425781 C-89.24157246 230.43904992 -89.26041041 232.51383843 -89.27966309 234.58862305 C-89.3478133 242.24035458 -89.40805598 249.89215489 -89.46923828 257.54394531 C-89.61361328 274.66269531 -89.75798828 291.78144531 -89.90673828 309.41894531 C-43.04673828 309.41894531 3.81326172 309.41894531 52.09326172 309.41894531 C46.22277979 350.51231881 46.22277979 350.51231881 44.53076172 361.98144531 C44.42998322 362.66544403 44.32920471 363.34944275 44.22537231 364.0541687 C41.31988885 383.76350467 38.27435764 403.44956626 35.10498047 423.11816406 C34.39005674 427.55685309 33.68590512 431.99711274 32.98779297 436.43847656 C32.80667969 437.58566162 32.62556641 438.73284668 32.43896484 439.91479492 C32.09063349 442.1223289 31.74419631 444.33016282 31.39990234 446.53833008 C31.1649707 448.02224243 31.1649707 448.02224243 30.92529297 449.53613281 C30.78841064 450.40866699 30.65152832 451.28120117 30.51049805 452.18017578 C30.09326172 454.41894531 30.09326172 454.41894531 29.09326172 457.41894531 C-10.17673828 457.41894531 -49.44673828 457.41894531 -89.90673828 457.41894531 C-89.90673828 577.53894531 -89.90673828 697.65894531 -89.90673828 821.41894531 C-142.70673828 821.41894531 -195.50673828 821.41894531 -249.90673828 821.41894531 C-249.90673828 701.29894531 -249.90673828 581.17894531 -249.90673828 457.41894531 C-292.80673828 457.41894531 -335.70673828 457.41894531 -379.90673828 457.41894531 C-379.90673828 408.57894531 -379.90673828 359.73894531 -379.90673828 309.41894531 C-337.00673828 309.41894531 -294.10673828 309.41894531 -249.90673828 309.41894531 C-249.98559722 269.4974087 -249.98559722 269.4974087 -250.08691406 229.57592773 C-250.09594727 221.76330566 -250.09594727 221.76330566 -250.09762573 218.07807922 C-250.10064859 215.56509182 -250.10757875 213.05210686 -250.1178894 210.53913879 C-250.20573874 187.95098904 -249.91630243 165.11560204 -245.65673828 142.85644531 C-245.43985352 141.6942749 -245.22296875 140.53210449 -244.99951172 139.3347168 C-243.1154262 129.68179359 -240.55713115 120.54492748 -236.90673828 111.41894531 C-236.57125977 110.57251465 -236.23578125 109.72608398 -235.89013672 108.85400391 C-229.77561863 93.61173763 -222.56522102 79.92507475 -213.03173828 66.54394531 C-212.4597168 65.73932861 -211.88769531 64.93471191 -211.29833984 64.10571289 C-210.48961426 62.99619263 -210.48961426 62.99619263 -209.66455078 61.86425781 C-209.18131348 61.1992627 -208.69807617 60.53426758 -208.20019531 59.84912109 C-207.77335449 59.37716309 -207.34651367 58.90520508 -206.90673828 58.41894531 C-206.24673828 58.41894531 -205.58673828 58.41894531 -204.90673828 58.41894531 C-204.63756592 57.82670166 -204.36839355 57.23445801 -204.09106445 56.62426758 C-191.06161651 32.36225907 -154.09122509 15.25511312 -129.11669922 7.49633789 C-126.72015193 6.77785537 -124.31560943 6.09501226 -121.90673828 5.41894531 C-120.7761499 5.09506836 -119.64556152 4.77119141 -118.48071289 4.4375 C-80.23232164 -6.2042394 -39.09948625 -4.10968208 0 0 Z " fill="#FEFEFE" transform="translate(681.90673828125,202.5810546875)"/>
</svg>
