<?xml version="1.0" encoding="UTF-8"?>
<svg version="1.1" xmlns="http://www.w3.org/2000/svg" width="600" height="600">
<path d="M0 0 C4.12887549 0.01131429 8.25770027 -0.00089874 12.38657248 -0.00984204 C20.43419502 -0.02363911 28.48165864 -0.01632036 36.52927335 -0.00116646 C45.93459635 0.01585729 55.33988155 0.01246308 64.74521521 0.00873946 C81.54384616 0.00288592 98.34240171 0.01693464 115.14101279 0.04168689 C131.38029932 0.06561172 147.61948523 0.0726834 163.85878623 0.06219471 C181.61755555 0.05074488 199.37627857 0.04890452 217.13504738 0.0632928 C219.03415918 0.06481837 220.93327099 0.06633873 222.8323828 0.06785381 C223.76636675 0.06861162 224.7003507 0.06936944 225.6626372 0.07015022 C232.19345788 0.07486084 238.72425763 0.07306479 245.25507796 0.06878841 C253.22916884 0.06382456 261.20316528 0.07001003 269.17723473 0.08968271 C273.23299944 0.09944746 277.28862141 0.1047794 281.34439337 0.09679019 C328.33167514 0.01428003 369.15939481 6.86530232 403.86684287 40.69573963 C414.12161735 51.00174278 421.41006302 62.51937122 427.46547568 75.68743885 C428.2012243 77.28441592 428.96537988 78.868242 429.73403037 80.44964588 C432.60452123 86.71658711 434.36813869 93.14471394 435.99184287 99.82073963 C436.19446738 100.64984851 436.39709189 101.4789574 436.60585654 102.3331908 C439.52586284 114.99873337 440.60275414 127.44785464 440.56503928 140.42013538 C440.56806897 141.85767199 440.57196251 143.29520699 440.57663184 144.73273921 C440.58681564 148.63748377 440.58475489 152.54213554 440.58045125 156.44688737 C440.57796627 160.67611358 440.5870201 164.90531844 440.59448874 169.13453662 C440.60718981 177.40333166 440.60903511 185.67209415 440.60668848 193.9408973 C440.60489966 200.66900509 440.60666699 207.39710307 440.61091292 214.12520969 C440.61150811 215.08571523 440.6121033 216.04622078 440.61271652 217.03583255 C440.61392838 218.98764218 440.61514252 220.93945181 440.6163589 222.89126144 C440.62721717 241.16603287 440.62508032 259.44078582 440.61897405 277.71555828 C440.61380888 294.39377918 440.62505286 311.0719416 440.64407227 327.75015093 C440.66349697 344.91675111 440.67169842 362.08332369 440.66794902 379.24993491 C440.66604367 388.87097962 440.66845896 398.49197461 440.68266356 408.11301029 C440.6946377 416.30558849 440.69591533 424.49808637 440.68387339 432.6906658 C440.67802615 436.86142262 440.67676835 441.03203299 440.68887579 445.20277965 C440.81026547 490.11949789 432.8830905 530.50577996 400.30434287 563.50823963 C373.00331193 590.85388009 334.83891801 600.52737934 297.16093445 600.65130723 C295.91793788 600.65044074 294.6749413 600.64957426 293.39427817 600.64868152 C292.02889215 600.651272 290.66350689 600.65428703 289.29812264 600.65768492 C285.57870285 600.66567859 281.85930242 600.66754019 278.13987505 600.66828239 C274.11500602 600.67014647 270.09014673 600.67770063 266.06528342 600.68441761 C257.27733983 600.69794868 248.48940083 600.70401793 239.70144856 600.70842826 C234.20150116 600.71120047 228.70155548 600.71543965 223.20160925 600.71993244 C207.93855967 600.73212001 192.67551145 600.7424192 177.41245711 600.74580753 C176.43720463 600.74602709 175.46195215 600.74624666 174.45714656 600.74647288 C172.99098876 600.7468003 172.99098876 600.7468003 171.4952116 600.74713433 C169.51492202 600.74757778 167.53463244 600.74802434 165.55434287 600.748474 C164.08093992 600.74880615 164.08093992 600.74880615 162.57777126 600.749145 C146.69165576 600.7530859 130.80558633 600.77052054 114.91948859 600.79383352 C98.56318184 600.81764031 82.20689811 600.83001366 65.85057378 600.83117545 C56.68595146 600.83208717 47.52138914 600.83771121 38.35678351 600.85599506 C30.54672695 600.8715228 22.73674892 600.87644297 14.92667983 600.86825696 C10.95379346 600.86439423 6.98106457 600.86506048 3.00819838 600.8793143 C-45.08356325 601.04174695 -87.7201257 594.86037255 -123.2772001 559.94525135 C-149.70926975 533.16742657 -159.86073016 495.30590445 -159.83609903 458.55911243 C-159.83868684 457.15292952 -159.84170115 455.74674734 -159.84510243 454.34056616 C-159.85312754 450.49456088 -159.85495949 446.6485743 -159.8556999 442.80256164 C-159.85755843 438.64681683 -159.86510997 434.49108154 -159.87183511 430.33534229 C-159.88538924 421.25404336 -159.89143922 412.17274887 -159.89584577 403.09144151 C-159.89861438 397.41146077 -159.90285297 391.73148171 -159.90734994 386.05150211 C-159.91954115 370.29960157 -159.92983923 354.54770238 -159.93322504 338.79579723 C-159.9334446 337.78850859 -159.93366417 336.78121995 -159.93389039 335.74340741 C-159.93410867 334.73380871 -159.93432694 333.72421002 -159.93455184 332.68401742 C-159.93499529 330.63844565 -159.93544185 328.59287389 -159.93589151 326.54730213 C-159.93611294 325.53264391 -159.93633437 324.5179857 -159.93656251 323.47258027 C-159.94050387 307.06045939 -159.9579383 290.6483831 -159.98125103 274.23627941 C-160.00503852 257.35236639 -160.01743032 240.46847565 -160.01859295 223.58454561 C-160.01950582 214.11872074 -160.02515911 204.65295389 -160.04341257 195.18714511 C-160.05891406 187.12038017 -160.06387557 179.05369117 -160.05567446 170.98691414 C-160.05180253 166.88075469 -160.0525251 162.77474768 -160.06673181 158.66860759 C-160.22409355 110.32419529 -152.02573261 70.37552179 -117.10971963 34.87933338 C-85.287487 4.34719126 -42.01785869 -0.16099264 0 0 Z " fill="#FD2669" transform="translate(159.6956571340561,-0.5082396268844604)"/>
<path d="M0 0 C4.12887549 0.01131429 8.25770027 -0.00089874 12.38657248 -0.00984204 C20.43419502 -0.02363911 28.48165864 -0.01632036 36.52927335 -0.00116646 C45.93459635 0.01585729 55.33988155 0.01246308 64.74521521 0.00873946 C81.54384616 0.00288592 98.34240171 0.01693464 115.14101279 0.04168689 C131.38029932 0.06561172 147.61948523 0.0726834 163.85878623 0.06219471 C181.61755555 0.05074488 199.37627857 0.04890452 217.13504738 0.0632928 C219.03415918 0.06481837 220.93327099 0.06633873 222.8323828 0.06785381 C223.76636675 0.06861162 224.7003507 0.06936944 225.6626372 0.07015022 C232.19345788 0.07486084 238.72425763 0.07306479 245.25507796 0.06878841 C253.22916884 0.06382456 261.20316528 0.07001003 269.17723473 0.08968271 C273.23299944 0.09944746 277.28862141 0.1047794 281.34439337 0.09679019 C328.33167514 0.01428003 369.15939481 6.86530232 403.86684287 40.69573963 C414.12161735 51.00174278 421.41006302 62.51937122 427.46547568 75.68743885 C428.2012243 77.28441592 428.96537988 78.868242 429.73403037 80.44964588 C432.60452123 86.71658711 434.36813869 93.14471394 435.99184287 99.82073963 C436.19446738 100.64984851 436.39709189 101.4789574 436.60585654 102.3331908 C439.52586284 114.99873337 440.60275414 127.44785464 440.56503928 140.42013538 C440.56806897 141.85767199 440.57196251 143.29520699 440.57663184 144.73273921 C440.58681564 148.63748377 440.58475489 152.54213554 440.58045125 156.44688737 C440.57796627 160.67611358 440.5870201 164.90531844 440.59448874 169.13453662 C440.60718981 177.40333166 440.60903511 185.67209415 440.60668848 193.9408973 C440.60489966 200.66900509 440.60666699 207.39710307 440.61091292 214.12520969 C440.61150811 215.08571523 440.6121033 216.04622078 440.61271652 217.03583255 C440.61392838 218.98764218 440.61514252 220.93945181 440.6163589 222.89126144 C440.62721717 241.16603287 440.62508032 259.44078582 440.61897405 277.71555828 C440.61380888 294.39377918 440.62505286 311.0719416 440.64407227 327.75015093 C440.66349697 344.91675111 440.67169842 362.08332369 440.66794902 379.24993491 C440.66604367 388.87097962 440.66845896 398.49197461 440.68266356 408.11301029 C440.6946377 416.30558849 440.69591533 424.49808637 440.68387339 432.6906658 C440.67802615 436.86142262 440.67676835 441.03203299 440.68887579 445.20277965 C440.81026547 490.11949789 432.8830905 530.50577996 400.30434287 563.50823963 C373.00331193 590.85388009 334.83891801 600.52737934 297.16093445 600.65130723 C295.91793788 600.65044074 294.6749413 600.64957426 293.39427817 600.64868152 C292.02889215 600.651272 290.66350689 600.65428703 289.29812264 600.65768492 C285.57870285 600.66567859 281.85930242 600.66754019 278.13987505 600.66828239 C274.11500602 600.67014647 270.09014673 600.67770063 266.06528342 600.68441761 C257.27733983 600.69794868 248.48940083 600.70401793 239.70144856 600.70842826 C234.20150116 600.71120047 228.70155548 600.71543965 223.20160925 600.71993244 C207.93855967 600.73212001 192.67551145 600.7424192 177.41245711 600.74580753 C176.43720463 600.74602709 175.46195215 600.74624666 174.45714656 600.74647288 C172.99098876 600.7468003 172.99098876 600.7468003 171.4952116 600.74713433 C169.51492202 600.74757778 167.53463244 600.74802434 165.55434287 600.748474 C164.08093992 600.74880615 164.08093992 600.74880615 162.57777126 600.749145 C146.69165576 600.7530859 130.80558633 600.77052054 114.91948859 600.79383352 C98.56318184 600.81764031 82.20689811 600.83001366 65.85057378 600.83117545 C56.68595146 600.83208717 47.52138914 600.83771121 38.35678351 600.85599506 C30.54672695 600.8715228 22.73674892 600.87644297 14.92667983 600.86825696 C10.95379346 600.86439423 6.98106457 600.86506048 3.00819838 600.8793143 C-45.08356325 601.04174695 -87.7201257 594.86037255 -123.2772001 559.94525135 C-149.70926975 533.16742657 -159.86073016 495.30590445 -159.83609903 458.55911243 C-159.83868684 457.15292952 -159.84170115 455.74674734 -159.84510243 454.34056616 C-159.85312754 450.49456088 -159.85495949 446.6485743 -159.8556999 442.80256164 C-159.85755843 438.64681683 -159.86510997 434.49108154 -159.87183511 430.33534229 C-159.88538924 421.25404336 -159.89143922 412.17274887 -159.89584577 403.09144151 C-159.89861438 397.41146077 -159.90285297 391.73148171 -159.90734994 386.05150211 C-159.91954115 370.29960157 -159.92983923 354.54770238 -159.93322504 338.79579723 C-159.9334446 337.78850859 -159.93366417 336.78121995 -159.93389039 335.74340741 C-159.93410867 334.73380871 -159.93432694 333.72421002 -159.93455184 332.68401742 C-159.93499529 330.63844565 -159.93544185 328.59287389 -159.93589151 326.54730213 C-159.93611294 325.53264391 -159.93633437 324.5179857 -159.93656251 323.47258027 C-159.94050387 307.06045939 -159.9579383 290.6483831 -159.98125103 274.23627941 C-160.00503852 257.35236639 -160.01743032 240.46847565 -160.01859295 223.58454561 C-160.01950582 214.11872074 -160.02515911 204.65295389 -160.04341257 195.18714511 C-160.05891406 187.12038017 -160.06387557 179.05369117 -160.05567446 170.98691414 C-160.05180253 166.88075469 -160.0525251 162.77474768 -160.06673181 158.66860759 C-160.22409355 110.32419529 -152.02573261 70.37552179 -117.10971963 34.87933338 C-85.287487 4.34719126 -42.01785869 -0.16099264 0 0 Z M41.94008505 78.39984119 C40.76899821 78.47728439 39.59791136 78.55472759 38.39133704 78.63451755 C32.46749526 79.08484537 27.01913251 79.88902359 21.30434287 81.50823963 C19.35013914 81.84560216 17.39180877 82.16033946 15.42934287 82.44573963 C6.02835908 83.98707739 -2.00600304 86.93330568 -10.59800088 91.04339588 C-13.14976908 92.25009585 -15.70433002 93.33015626 -18.32065713 94.38323963 C-24.02088196 96.91089406 -28.79690787 100.70035984 -33.69565713 104.50823963 C-34.61733682 105.21206775 -35.53901651 105.91589588 -36.48862588 106.64105213 C-54.71014847 120.98182731 -67.62741645 140.47543917 -74.69565713 162.50823963 C-75.03468057 163.49952869 -75.37370401 164.49081775 -75.72300088 165.51214588 C-78.32687243 173.99192376 -79.44476042 182.45805959 -80.38315713 191.25823963 C-80.50247598 192.35571521 -80.62179483 193.4531908 -80.7447294 194.58392322 C-82.92741273 217.02310733 -82.85170637 239.65856323 -82.82998264 262.18036139 C-82.82738004 265.7479118 -82.82981786 269.31546018 -82.8313688 272.88301075 C-82.83316841 278.8655951 -82.83084346 284.84816695 -82.82602823 290.83074939 C-82.82059247 297.66141357 -82.82235237 304.49204784 -82.82785463 311.32271129 C-82.8324528 317.27863598 -82.83300409 323.23455189 -82.83041596 329.19047779 C-82.82888907 332.7076576 -82.82855663 336.22482356 -82.83195245 339.74200237 C-83.32902449 419.76332366 -83.32902449 419.76332366 -44.44565713 487.13323963 C-38.39274785 493.17201485 -31.97028459 497.98199563 -24.69565713 502.50823963 C-24.1376542 502.86257068 -23.57965127 503.21690174 -23.00473917 503.5819701 C-15.29205634 508.44283069 -7.69316863 511.83877507 1.02699912 514.50042713 C4.30434287 515.50823963 4.30434287 515.50823963 6.70668662 516.54730213 C10.33380191 517.88906207 13.99205322 518.41920602 17.80434287 519.00823963 C19.01018027 519.19942371 19.01018027 519.19942371 20.24037802 519.3944701 C21.856754 519.65026458 23.47344992 519.90404641 25.09047568 520.15570056 C26.9543323 520.45250349 28.81360716 520.77787617 30.67153037 521.10980213 C51.58949523 524.75007134 73.31603436 523.65872861 94.47621858 523.64256513 C98.89138516 523.64000123 103.30654984 523.64238951 107.72171652 523.6439513 C115.11376446 523.64575851 122.50580232 523.643402 129.89784873 523.63861072 C138.43577427 523.63314056 146.97367603 523.63495641 155.51160103 523.64043713 C162.87508085 523.64497369 170.23855351 523.64561704 177.60203427 523.64299846 C181.98657688 523.64144256 186.37110828 523.6412237 190.75565016 523.64453495 C194.86392521 523.64742258 198.9721694 523.64542156 203.08044112 523.63964069 C204.58609843 523.63831919 206.09175834 523.63869686 207.59741461 523.64090335 C209.65278945 523.64363805 211.7080655 523.64020573 213.76343405 523.63522327 C214.91274374 523.63484624 216.06205342 523.63446922 217.24619067 523.63408077 C220.05817951 523.5183691 222.56545526 523.12024192 225.30434287 522.50823963 C227.27204017 522.34524419 229.24273407 522.21638662 231.21449912 522.11370838 C262.98309773 520.28060368 293.21833317 514.37149734 318.30434287 493.50823963 C319.61338583 492.42736072 319.61338583 492.42736072 320.94887412 491.32464588 C348.57306604 467.51946666 359.23422818 433.61532006 362.09383833 398.38150394 C363.47476435 379.53266768 363.46800344 360.61327789 363.47159994 341.72516286 C363.47232478 339.5706828 363.47448523 337.41620863 363.47709715 335.26173007 C363.48628166 327.6583491 363.49044161 320.05498534 363.4896456 312.451599 C363.48911518 306.27155939 363.4961328 300.09158339 363.51015341 293.91155994 C363.65920544 251.30459476 363.65920544 251.30459476 362.48012412 208.71917713 C362.42810874 207.4612932 362.42810874 207.4612932 362.37504256 206.17799747 C360.73393507 168.19406415 348.31231598 135.22328351 320.43324912 108.78558338 C305.49558238 95.67205505 285.82956595 86.20602011 266.30434287 82.50823963 C265.65900595 82.38497303 265.01366904 82.26170642 264.34877646 82.13470447 C238.94434707 77.40382221 213.3500134 77.20008532 187.60813868 77.23958862 C183.16952989 77.24475316 178.73092817 77.23992852 174.29231894 77.23681629 C166.84253551 77.23320488 159.39279206 77.237899 151.94301474 77.24749744 C143.41509443 77.25836036 134.88726997 77.25486055 126.35935199 77.24384463 C118.95207834 77.23467083 111.54483299 77.23353546 104.13755548 77.23872197 C99.75119255 77.2417891 95.36487412 77.24240099 90.97851431 77.23564899 C74.60564572 77.21397616 58.28193371 77.3081502 41.94008505 78.39984119 Z " fill="#F13278" transform="translate(159.6956571340561,-0.5082396268844604)"/>
<path d="M0 0 C3.51002614 0.00109247 7.02003514 -0.00387015 10.53005749 -0.00860542 C18.83715406 -0.01958849 27.14420537 -0.02020231 35.45130563 -0.01409125 C43.90994172 -0.00806268 52.36841099 -0.02036039 60.82701868 -0.04166132 C68.19199094 -0.05949929 75.55691119 -0.06524439 82.92190415 -0.06202358 C87.2754216 -0.06024527 91.62882013 -0.06248743 95.98231721 -0.07673812 C113.25437811 -0.12834069 130.39892798 0.14318183 147.61292672 1.66022515 C148.30536772 1.7201223 148.99780872 1.78001945 149.71123278 1.84173167 C185.10916422 4.98609629 216.92529661 17.98821355 240.50428414 45.15314507 C260.82752026 69.58386248 267.7629379 100.2138596 269.17615914 131.26252007 C269.21815249 132.15834172 269.26014585 133.05416337 269.30341172 133.97713113 C270.58525177 162.29585786 270.32778313 190.66187569 270.26347482 219.0025444 C270.25009023 225.19155115 270.24777606 231.38052253 270.24842399 237.56954181 C270.24910727 245.12800576 270.2421407 252.68644945 270.23297739 260.24490714 C270.23088575 262.36353759 270.23014188 264.48216461 270.22973847 266.60079598 C270.21320768 311.41364575 270.21320768 311.41364575 267.75037789 332.42658257 C267.61994088 333.55491509 267.48950387 334.68324761 267.35511422 335.84577203 C266.31574781 344.28902768 264.79906283 352.22332228 262.06287789 360.30158257 C261.85823922 360.93000054 261.65360055 361.55841851 261.44276071 362.20587945 C256.55696698 377.06044513 249.40456358 390.51206089 239.06287789 402.30158257 C238.43897164 403.0569732 237.81506539 403.81236382 237.17225289 404.59064507 C221.06497396 423.64437747 198.8998945 434.45167254 175.06287789 440.30158257 C174.00069039 440.57744195 172.93850289 440.85330132 171.84412789 441.13752007 C159.73524531 443.94255939 147.33655141 444.35231276 134.96278024 445.05207086 C132.14905777 445.22941301 132.14905777 445.22941301 129.78623509 445.80882001 C126.67031718 446.37261227 123.75647699 446.43062434 120.58926034 446.43529534 C119.27947717 446.43956033 117.96969399 446.44382531 116.62022042 446.44821954 C115.1747553 446.44787001 113.72929021 446.44740847 112.28382516 446.44684625 C110.75542772 446.44984016 109.22703104 446.45324323 107.69863534 446.45702386 C103.54415299 446.46586119 99.38969125 446.46820234 95.23520041 446.46883965 C92.62597354 446.46955223 90.01675184 446.47169087 87.40752625 446.47433686 C78.26309911 446.48360121 69.11868653 446.48767186 59.97425485 446.48688531 C51.52516654 446.48628963 43.07614315 446.49673719 34.6270712 446.51262897 C27.3271958 446.52585659 20.02734113 446.53106268 12.72745389 446.5304299 C8.38937976 446.53017859 4.05136287 446.53281848 -0.28669906 446.54360795 C-16.70820058 446.58139596 -33.08954265 446.49264311 -49.48424125 445.47467828 C-50.66128592 445.40548023 -51.83833058 445.33628219 -53.05104327 445.26498723 C-59.88871685 444.77756372 -66.32893194 443.68951579 -72.97428393 442.00204015 C-75.97572975 441.29245517 -78.94327869 440.82925887 -81.99962211 440.42658257 C-88.45354216 439.41068775 -94.02557738 436.99737496 -99.93712211 434.30158257 C-101.60581351 433.60742242 -101.60581351 433.60742242 -103.30821586 432.89923882 C-114.55781379 427.94650949 -124.88064637 421.64135879 -133.93712211 413.30158257 C-134.45903129 412.82205132 -134.98094047 412.34252007 -135.51866508 411.84845757 C-165.20511908 384.26069392 -173.84720316 347.02782046 -175.37398314 307.77582479 C-175.41270474 306.6680773 -175.45142634 305.56032981 -175.49132133 304.41901422 C-175.53343175 303.21623613 -175.57554217 302.01345805 -175.61892867 300.77423215 C-176.05120355 287.34887983 -176.08441524 273.92619041 -176.07144761 260.49513531 C-176.06884277 256.92712284 -176.07128331 253.3591124 -176.07283378 249.79109979 C-176.07463231 243.81029562 -176.07231088 237.82950396 -176.0674932 231.84870172 C-176.06205262 225.01742875 -176.06382129 218.18618566 -176.06931961 211.35491341 C-176.07391489 205.39813494 -176.07447056 199.44136526 -176.07188094 193.48458558 C-176.07035315 189.96689361 -176.07002439 186.44921549 -176.07341743 182.93152452 C-176.0924744 160.0465375 -176.11096005 137.02214511 -173.68712211 114.23908257 C-173.49642142 112.43516046 -173.49642142 112.43516046 -173.3018682 110.59479547 C-169.51525737 77.76060369 -153.63208171 48.36781731 -127.83946586 27.55158257 C-119.99726962 21.4720334 -112.01871031 17.30248251 -102.93712211 13.30158257 C-102.16497367 12.93033257 -101.39282523 12.55908257 -100.59727836 12.17658257 C-90.48884967 7.35766685 -79.77007712 5.02369713 -68.70274711 3.69611382 C-65.98462822 3.45717536 -65.98462822 3.45717536 -63.93712211 2.30158257 C-42.81268276 -0.39064263 -21.25065511 -0.01317323 0 0 Z M-35.71739554 40.74005914 C-36.68544749 40.77694219 -37.65349944 40.81382524 -38.6508863 40.85182595 C-67.49162288 42.11413309 -93.52992425 47.84856022 -114.12462211 69.48908257 C-131.65426374 90.28088656 -134.80090273 116.58651021 -135.50352836 142.80548882 C-135.523996 143.53980063 -135.54446364 144.27411244 -135.56555152 145.03067613 C-136.28350815 171.84318925 -136.08691356 198.68140438 -136.06569165 225.50146174 C-136.06134808 231.63320596 -136.06445442 237.76492962 -136.06931961 243.89667255 C-136.0738916 249.90698996 -136.07448273 255.91729866 -136.07188094 261.92761725 C-136.07034582 265.47735216 -136.0700471 269.02707331 -136.07341743 272.57680726 C-136.25462142 300.39320556 -136.25462142 300.39320556 -133.62462211 328.05158257 C-133.4927349 328.92516412 -133.36084769 329.79874566 -133.2249639 330.69879937 C-129.62127941 353.49843062 -121.37637915 372.82139591 -102.73790336 387.30939507 C-95.88145288 392.18636822 -88.63848555 395.56111002 -80.81212211 398.55158257 C-79.84496268 398.92126153 -79.84496268 398.92126153 -78.85826468 399.29840875 C-71.11363152 402.13415406 -63.199949 403.57654528 -55.01359916 404.41040826 C-54.19281607 404.49466302 -53.37203298 404.57891778 -52.52637768 404.66572571 C-43.91758339 405.48816463 -35.35458538 405.58373691 -26.71348929 405.56037164 C-24.98447882 405.56309211 -23.2554695 405.56665888 -21.52646232 405.57099175 C-16.89186372 405.57999543 -12.25735564 405.57662123 -7.62275577 405.57023358 C-2.72886481 405.56510718 2.16501929 405.56988352 7.05891061 405.57300591 C15.27590447 405.57662784 23.4928622 405.57189478 31.70985055 405.56232476 C41.14775753 405.55145822 50.58557794 405.55495993 60.0234828 405.56597757 C68.18722259 405.5751188 76.35093665 405.57630222 84.51467991 405.57110023 C89.36371977 405.56801589 94.21271927 405.56747155 99.06175637 405.57417321 C156.65515328 406.6423328 156.65515328 406.6423328 205.66444039 379.78595757 C232.32521005 351.4310253 230.57769195 307.78959399 230.39999127 271.30338883 C230.38449749 267.4756888 230.38611877 263.64798546 230.38532662 259.82025933 C230.38167786 253.40333905 230.36694186 246.98652852 230.34412789 240.56964898 C230.31527004 232.43846279 230.30489334 224.30736434 230.3004458 216.17613244 C230.29640592 209.04792738 230.28392089 201.91973989 230.27009892 194.79154801 C230.26608514 192.56593516 230.2631178 190.34032284 230.26030374 188.11470819 C230.23769101 172.84884689 230.08749281 157.59741513 229.59705758 142.33869195 C229.55650876 141.07023179 229.51595994 139.80177163 229.47418237 138.49487329 C228.53174995 111.50353382 224.32601058 84.94930677 204.21522164 65.16877007 C187.23681877 49.36147263 165.94909284 43.50375431 143.26600289 41.62970757 C142.14002065 41.53513143 142.14002065 41.53513143 140.99129128 41.43864465 C112.81140761 39.18392854 84.37039986 39.92856039 56.12178302 40.02895808 C48.79244181 40.0541029 41.46314454 40.06002296 34.13376641 40.06401467 C27.00749244 40.06803743 19.88123628 40.08051313 12.75497556 40.09436154 C10.52272799 40.09838906 8.29048098 40.10134947 6.05823159 40.10415673 C-7.87244401 40.12473788 -21.79524891 40.20228152 -35.71739554 40.74005914 Z " fill="#FEFDFD" transform="translate(252.93712210655212,76.69841742515564)"/>
<path d="M0 0 C1.22734863 0.00491455 2.45469727 0.0098291 3.71923828 0.01489258 C30.16512795 0.35456775 53.93612392 9.45031052 74.3125 26.3125 C75.58480469 27.33923828 75.58480469 27.33923828 76.8828125 28.38671875 C92.47777566 41.61066087 103.85532258 60.03556017 110.3125 79.3125 C110.72628906 80.488125 111.14007813 81.66375 111.56640625 82.875 C114.48395534 92.79670004 114.70671052 102.66871976 114.75 112.9375 C114.75939606 113.98221466 114.75939606 113.98221466 114.76898193 115.04803467 C114.94804715 146.5829974 102.37909363 174.20393027 80.5 196.5625 C66.08442208 210.82233906 48.61547106 219.64599537 29.3125 225.3125 C28.52101563 225.54710937 27.72953125 225.78171875 26.9140625 226.0234375 C9.78181993 230.69586729 -11.70288777 230.21038818 -28.6875 225.3125 C-29.89921875 224.9721875 -31.1109375 224.631875 -32.359375 224.28125 C-51.1786276 218.5027243 -66.3791741 208.78206197 -80.6875 195.3125 C-81.29078125 194.77367187 -81.8940625 194.23484375 -82.515625 193.6796875 C-100.87313574 176.60891817 -112.55399107 148.83274192 -113.85595703 124.11425781 C-114.30379786 110.63406154 -114.51538063 97.34589115 -110.6875 84.3125 C-110.35878906 83.11496094 -110.03007812 81.91742188 -109.69140625 80.68359375 C-101.40377268 53.18241524 -81.74651682 27.98013596 -56.44677734 14.08154297 C-38.42987211 4.65223858 -20.41311399 -0.09715167 0 0 Z " fill="#FEFDFE" transform="translate(299.6875,185.6875)"/>
<path d="M0 0 C0.73347656 0.59039062 1.46695313 1.18078125 2.22265625 1.7890625 C2.96644531 2.35882813 3.71023438 2.92859375 4.4765625 3.515625 C14.73200507 11.89833458 22.06054903 23.2858217 26.22265625 35.7890625 C26.69832031 37.07876953 26.69832031 37.07876953 27.18359375 38.39453125 C33.20706557 57.54254028 29.43548679 78.61909571 20.49145508 96.07617188 C10.56957802 114.39903785 -6.10363611 126.06447507 -25.6875 132.31640625 C-46.5114779 137.02612835 -66.57694711 133.48498187 -84.77734375 122.7890625 C-88.03065916 120.68060882 -90.91430388 118.3986883 -93.77734375 115.7890625 C-94.59589844 115.06203125 -95.41445312 114.335 -96.2578125 113.5859375 C-107.9762095 102.59440023 -117.8662632 85.77000773 -118.93847656 69.31640625 C-119.32989933 45.17563457 -115.1653681 26.31298351 -98.40234375 8.2265625 C-97.53609375 7.4221875 -96.66984375 6.6178125 -95.77734375 5.7890625 C-95.18953125 5.19609375 -94.60171875 4.603125 -93.99609375 3.9921875 C-69.06485175 -20.00878428 -27.12867587 -20.56163413 0 0 Z " fill="#FE0C64" transform="translate(344.77734375,240.2109375)"/>
<path d="M0 0 C6.01890866 3.55662785 9.82470993 10.4741298 12 17 C13.02419416 26.61279372 11.27417436 33.34810954 5.4609375 41.03515625 C0.66750771 46.38516911 -5.22724401 49.2941134 -12.32421875 50.34375 C-20.30449296 50.67800232 -26.69813181 48.40613897 -32.8125 43.3125 C-39.35221851 36.96714375 -41.3572637 32.185501 -41.5 23 C-41.38021299 15.29135359 -40.27768329 10.47383808 -34.9765625 4.85546875 C-24.27959415 -5.27561902 -13.05526024 -6.78873533 0 0 Z " fill="#FEFBFD" transform="translate(434,158)"/>
</svg>
