<?xml version="1.0" encoding="UTF-8"?>
<svg version="1.1" xmlns="http://www.w3.org/2000/svg" width="300" height="300">
<path d="M0 0 C99 0 198 0 300 0 C300 99 300 198 300 300 C201 300 102 300 0 300 C0 201 0 102 0 0 Z " fill="#FDFDFD" transform="translate(0,0)"/>
<path d="M0 0 C7.85735746 -0.41994643 15.71202445 -0.73823754 23.57783031 -0.93261909 C27.23263322 -1.02601429 30.87969039 -1.15215573 34.5300293 -1.35791016 C57.9738846 -2.64459996 57.9738846 -2.64459996 64.52206421 1.65664673 C68.68911529 5.77436629 71.36953467 10.56023143 73.89620972 15.80358887 C75.35980064 18.7159604 77.23198878 21.15479124 79.27734375 23.68359375 C79.88578125 24.47588379 80.49421875 25.26817383 81.12109375 26.08447266 C81.72050781 26.86097168 82.31992188 27.6374707 82.9375 28.4375 C93.17940295 41.79531263 103.13281538 55.36367343 113 69 C115.97636205 67.66420352 118.03951858 66.20765397 120.3125 63.875 C121.11107422 63.06675781 121.11107422 63.06675781 121.92578125 62.2421875 C123.75016561 60.2700658 125.51895001 58.26562958 127.28125 56.23828125 C130.82396504 52.17230123 134.48369072 48.23150485 138.1875 44.3125 C139.51080806 42.9066183 140.83371972 41.50036339 142.15625 40.09375 C142.8059375 39.4028125 143.455625 38.711875 144.125 38 C148.29060995 33.55668272 152.41102943 29.07161843 156.53515625 24.58984375 C158.05237245 22.94315843 159.5726475 21.29934569 161.09375 19.65625 C161.60542725 19.10179199 162.11710449 18.54733398 162.64428711 17.97607422 C163.66506668 16.87567998 164.69185822 15.78082939 165.72485352 14.69189453 C168.07833006 12.19302799 170.14854989 9.78716056 172.12109375 6.9609375 C176.8480108 0.41881058 176.8480108 0.41881058 181.14013672 -0.41650391 C186.46539313 -0.84979249 191.69199979 -0.51533983 197 0 C195.45872649 3.71268094 193.19156766 5.98115698 190.3125 8.75 C186.61784923 12.31249374 183.20949765 16.01368597 179.85424805 19.88964844 C176.74433902 23.42908933 173.49316208 26.83304772 170.25 30.25 C163.76744892 37.10882723 157.35556432 44.02343398 151 51 C149.25112613 52.91769427 147.50109718 54.83433568 145.75 56.75 C145.09511597 57.47002197 145.09511597 57.47002197 144.42700195 58.20458984 C141.66587803 61.22753178 138.85565797 64.19520302 136.0078125 67.13671875 C135.32364258 67.84924805 134.63947266 68.56177734 133.93457031 69.29589844 C132.58527186 70.69893851 131.22809251 72.09445166 129.86230469 73.48144531 C129.24516602 74.1256543 128.62802734 74.76986328 127.9921875 75.43359375 C127.43901855 76.00134521 126.88584961 76.56909668 126.31591797 77.15405273 C124.65398077 79.48538987 124.18267355 81.14607275 124 84 C124.88194886 85.98356231 124.88194886 85.98356231 126.4375 87.72265625 C127.2737793 88.76184204 127.2737793 88.76184204 128.12695312 89.82202148 C128.74505859 90.56137939 129.36316406 91.3007373 130 92.0625 C131.30387148 93.67824613 132.60589189 95.29548745 133.90625 96.9140625 C134.58429688 97.75098633 135.26234375 98.58791016 135.9609375 99.45019531 C139.23391452 103.54298411 142.3681985 107.73627279 145.5 111.9375 C146.12463135 112.7723291 146.7492627 113.6071582 147.39282227 114.46728516 C152.18436059 120.88031812 156.92392914 127.33099719 161.66015625 133.78491211 C166.70082438 140.63459805 171.85642493 147.39330961 177.02563477 154.14624023 C182.13065851 160.82727835 187.13808951 167.57475808 192.10205078 174.36108398 C196.38859369 180.21005246 200.80137545 185.9454658 205.3046875 191.62890625 C207 194 207 194 207 196 C199.17765052 196.46730327 191.35866245 196.82057615 183.52579403 197.03624344 C179.88574118 197.13989137 176.2553384 197.27973115 172.62084961 197.50878906 C149.30351907 198.93972409 149.30351907 198.93972409 142.26913452 194.134552 C137.59155282 189.50624579 134.34243247 184.1653339 131.28305054 178.37567139 C129.70821475 175.45973612 127.81602445 172.92255216 125.74609375 170.33984375 C119.14663645 161.56095079 112.58481001 152.75640481 106.08911133 143.90039062 C103.23960619 140.01986564 100.37073121 136.15684866 97.45703125 132.32421875 C96.61531372 131.21481934 96.61531372 131.21481934 95.7565918 130.08300781 C94.6931934 128.68466199 93.62583191 127.28931841 92.55395508 125.89746094 C89 121.22072225 89 121.22072225 89 119 C88.28585938 119.71542969 87.57171875 120.43085938 86.8359375 121.16796875 C85.01445661 122.99009056 83.18555004 124.80363867 81.3515625 126.61328125 C80.00191406 127.94939453 80.00191406 127.94939453 78.625 129.3125 C77.73039062 130.19550781 76.83578125 131.07851562 75.9140625 131.98828125 C73.08946931 134.84696436 70.47419671 137.86886571 67.84326172 140.9050293 C64.73514506 144.43757884 61.48879912 147.83764448 58.25 151.25 C51.7674084 158.10887009 45.35746025 165.02512328 39 172 C38.09021814 172.99383244 37.18005543 173.98731636 36.26953125 174.98046875 C35.81352539 175.47925537 35.35751953 175.97804199 34.88769531 176.49194336 C33.96746506 177.4919895 33.04106251 178.48639323 32.10839844 179.47485352 C29.72053922 182.02215577 27.53429149 184.58458833 25.49609375 187.421875 C19.49025341 195.42657924 19.49025341 195.42657924 14.76074219 196.515625 C9.45257411 197.02216987 4.28156126 196.62751223 -1 196 C-1 195.34 -1 194.68 -1 194 C-0.34 194 0.32 194 1 194 C1.24363281 193.42765625 1.48726562 192.8553125 1.73828125 192.265625 C3.22517298 189.59566462 4.98083908 187.86170993 7.1875 185.75 C10.724765 182.35521678 13.95660536 178.7933476 17.16381836 175.09228516 C20.09128859 171.7565027 23.1393744 168.5377252 26.1875 165.3125 C27.51080806 163.9066183 28.83371972 162.50036339 30.15625 161.09375 C30.8059375 160.4028125 31.455625 159.711875 32.125 159 C34.82719241 156.11766143 37.51026048 153.21800706 40.1875 150.3125 C40.6719458 149.7868042 41.1563916 149.2611084 41.65551758 148.71948242 C43.10408905 147.14669916 44.55206724 145.57337127 46 144 C47.95752573 141.87425454 49.91594047 139.74933198 51.875 137.625 C52.36073486 137.09801514 52.84646973 136.57103027 53.34692383 136.02807617 C56.10538328 133.03925769 58.87510107 130.06147496 61.65625 127.09375 C62.27516113 126.43294434 62.89407227 125.77213867 63.53173828 125.09130859 C64.72147866 123.82214714 65.91246976 122.55415645 67.10498047 121.28759766 C68.20281706 120.1165077 69.29527579 118.94034901 70.38183594 117.75878906 C71.5026122 116.54061281 72.63710444 115.3349677 73.78222656 114.13964844 C74.34135742 113.53411133 74.90048828 112.92857422 75.4765625 112.3046875 C75.98525879 111.76569824 76.49395508 111.22670898 77.01806641 110.67138672 C78.1889769 109.04318738 78.1889769 109.04318738 77.84912109 107.06494141 C76.83873619 104.60782941 75.5516255 102.76858508 73.9375 100.65625 C73.31045166 99.82875244 72.68340332 99.00125488 72.03735352 98.14868164 C71.36502686 97.2746167 70.6927002 96.40055176 70 95.5 C69.31156006 94.59435303 68.62312012 93.68870605 67.91381836 92.75561523 C66.54891539 90.96011309 65.18170636 89.16636123 63.81201172 87.37451172 C61.70873643 84.61831994 59.6330107 81.84336135 57.5625 79.0625 C54.84788798 75.43790504 52.10965323 71.83291502 49.35546875 68.23828125 C42.42435799 59.18716468 35.57521874 50.09988587 28.94555664 40.82543945 C24.63492656 34.82008858 20.1803784 28.93241241 15.6875 23.0625 C6.62113012 11.20903701 6.62113012 11.20903701 3 6.3125 C2.401875 5.50425781 1.80375 4.69601563 1.1875 3.86328125 C0 2 0 2 0 0 Z " fill="#070707" transform="translate(47,52)"/>
<path d="M0 0 C23.21492666 -2.82402414 23.21492666 -2.82402414 30.47460938 1.46044922 C34.74382951 5.45273015 37.60812663 10.36731895 40.47558594 15.41699219 C42.98520643 19.66936003 46.01430687 23.51266249 49 27.4375 C50.1689932 29.02467758 51.33435444 30.6145365 52.49609375 32.20703125 C53.36210205 33.39159912 53.36210205 33.39159912 54.24560547 34.60009766 C54.82455566 35.39206543 55.40350586 36.1840332 56 37 C63.27816622 46.9383088 70.59976622 56.83255507 78.11230469 66.59521484 C82.08059507 71.76452975 85.9610064 76.99323171 89.8125 82.25 C94.8012112 89.05786092 99.87007288 95.7979388 105 102.5 C110.6701066 109.90989111 116.25735432 117.37322105 121.7746582 124.89746094 C126.04027993 130.71107588 130.35357159 136.48715926 134.6875 142.25 C139.29280913 148.37967719 143.88841174 154.51593613 148.4375 160.6875 C149.13782349 161.63254395 149.13782349 161.63254395 149.85229492 162.59667969 C153 166.88245247 153 166.88245247 153 168 C128.41767304 170.18157963 128.41767304 170.18157963 121.90283203 166.96435547 C118.68737215 164.07075713 117.00781756 160.13678467 115.21044922 156.28515625 C112.80225139 151.7388207 109.42925421 147.83713925 106.25 143.8125 C104.85576161 141.99886584 103.46513888 140.18244645 102.078125 138.36328125 C101.39298828 137.46561035 100.70785156 136.56793945 100.00195312 135.64306641 C96.37973285 130.86085218 92.84249851 126.01677681 89.29882812 121.17626953 C84.85572391 115.1231074 80.31663072 109.14785658 75.75 103.1875 C70.95225289 96.92525504 66.25134389 90.62209653 61.71899414 84.16577148 C58.35425166 79.41098592 54.78538732 74.82992881 51.1875 70.25 C46.5306768 64.32027828 42.00694581 58.32317466 37.625 52.1875 C32.88658442 45.55386359 28.02069658 39.03350761 23.0625 32.5625 C17.68263024 25.53409699 12.33451348 18.48480005 7.0625 11.375 C6.4651001 10.57521729 5.8677002 9.77543457 5.25219727 8.95141602 C4.43319946 7.84237915 4.43319946 7.84237915 3.59765625 6.7109375 C3.11820557 6.06431152 2.63875488 5.41768555 2.14477539 4.75146484 C1 3 1 3 0 0 Z " fill="#FBFBFB" transform="translate(74,66)"/>
<path d="M0 0 C0.33 0 0.66 0 1 0 C1 9.9 1 19.8 1 30 C-8.57 30 -18.14 30 -28 30 C-25.83690668 28.91845334 -23.6700544 27.84373695 -21.484375 26.80859375 C-10.21381576 21.15721333 -4.94153224 14.38472909 -0.8125 2.52734375 C-0.544375 1.69332031 -0.27625 0.85929687 0 0 Z " fill="#0A0A0A" transform="translate(299,270)"/>
<path d="M0 0 C2.49064001 2.49064001 2.89669929 4.66989088 4 8 C9.54273759 18.93193675 16.52537617 24.24466856 28 28 C28 28.33 28 28.66 28 29 C18.76 29 9.52 29 0 29 C0 19.43 0 9.86 0 0 Z " fill="#070707" transform="translate(0,271)"/>
<path d="M0 0 C9.57 0 19.14 0 29 0 C29 9.24 29 18.48 29 28 C26.76605859 25.76605859 26.28085209 24.26489655 25.25 21.3125 C21.62317723 12.11307727 15.79725266 7.33628359 7 3 C4.6515586 2.12819849 2.45433874 1.5335519 0 1 C0 0.67 0 0.34 0 0 Z " fill="#060606" transform="translate(271,0)"/>
<path d="M0 0 C9.24 0 18.48 0 28 0 C26.02 0.99 26.02 0.99 24 2 C13.91986493 7.22334272 5.93216786 12.79098866 2.1875 23.9375 C1.77941175 25.28802411 1.37903115 26.64103467 1 28 C0.67 28 0.34 28 0 28 C0 18.76 0 9.52 0 0 Z " fill="#030303" transform="translate(0,0)"/>
<path d="M0 0 C0.66 0.33 1.32 0.66 2 1 C-1.96 4.96 -5.92 8.92 -10 13 C-10 8.41771462 -7.08388033 6.1816619 -4 3 C-1.625 1.0625 -1.625 1.0625 0 0 Z " fill="#CDCDCD" transform="translate(16,5)"/>
</svg>
