<?xml version="1.0" encoding="UTF-8"?>
<svg version="1.1" xmlns="http://www.w3.org/2000/svg" width="2048" height="2048">
<path d="M0 0 C2.57094948 -0.00479014 5.14189618 -0.01132719 7.71283734 -0.0194332 C13.28018252 -0.03419159 18.84737426 -0.03439335 24.41472831 -0.02465422 C32.74940379 -0.01014666 41.08394885 -0.01895716 49.41862101 -0.03201692 C63.62972744 -0.05360777 77.84078074 -0.05635197 92.05189896 -0.04862022 C106.44241829 -0.04085355 120.83289807 -0.04180007 135.22341537 -0.05323982 C136.13424986 -0.05395747 137.04508434 -0.05467513 137.98351987 -0.05541452 C141.6935757 -0.05836454 145.40363147 -0.06137335 149.11368719 -0.06445746 C186.7294823 -0.09568955 224.34525024 -0.10108941 261.96105601 -0.09614533 C267.15473096 -0.0954684 272.34840592 -0.09482421 277.54208088 -0.09421396 C278.57375557 -0.09409188 279.60543025 -0.09396979 280.66836781 -0.093844 C303.55559177 -0.09129767 326.44281202 -0.09650766 349.33003488 -0.1032661 C354.55976053 -0.1048076 359.7894862 -0.10629707 365.01921187 -0.10779613 C367.11821067 -0.10839951 369.21720946 -0.10900328 371.31620825 -0.10960741 C372.87689395 -0.11005645 372.87689395 -0.11005645 374.46910864 -0.11051456 C376.57371728 -0.11112163 378.67832593 -0.11173099 380.78293457 -0.11234265 C440.48638341 -0.12968444 500.18982897 -0.13897975 559.89328003 -0.13044739 C561.55089099 -0.13021322 561.55089099 -0.13021322 563.24198904 -0.12997432 C575.56403104 -0.1282288 587.88607303 -0.12637027 600.20811501 -0.12447305 C601.32055934 -0.12430203 602.43300367 -0.12413101 603.57915844 -0.12395481 C612.82116807 -0.12253344 612.82116807 -0.12253344 617.07555203 -0.12187036 C688.21080284 -0.110802 759.34600171 -0.1258757 830.48124313 -0.16341209 C848.4025242 -0.17285706 866.3238053 -0.18221832 884.24508667 -0.19108582 C885.3486746 -0.19163246 886.45226254 -0.1921791 887.58929253 -0.19274231 C921.6220971 -0.20949429 955.65489734 -0.21884512 989.68770599 -0.22050095 C990.75675713 -0.22055368 991.82580827 -0.22060641 992.92725489 -0.22066074 C1016.39955782 -0.22174249 1039.8718604 -0.22099698 1063.34416322 -0.21858131 C1071.74373458 -0.21773012 1080.14330595 -0.21699985 1088.54287732 -0.21632243 C1090.63235348 -0.21615183 1092.72182964 -0.21597396 1094.8113058 -0.21578879 C1128.05392812 -0.21289571 1161.29651506 -0.22711496 1194.53912889 -0.24979671 C1228.96992256 -0.27313699 1263.40065328 -0.27418033 1297.83144727 -0.25010987 C1301.53611855 -0.24760641 1305.24078988 -0.24519941 1308.94546127 -0.24286842 C1309.85460194 -0.24228784 1310.7637426 -0.24170725 1311.70043298 -0.24110907 C1326.04125013 -0.23249001 1340.38197716 -0.24386427 1354.72278014 -0.26374881 C1368.85652647 -0.28291892 1382.99013505 -0.28034578 1397.12387356 -0.25533636 C1404.67076033 -0.24255715 1412.21735045 -0.23888778 1419.76421753 -0.26306303 C1485.74780182 -0.46342662 1485.74780182 -0.46342662 1514.74923237 8.8837715 C1516.94733284 9.53088008 1519.11330192 9.94919888 1521.3728447 10.32145119 C1537.85283465 13.45187314 1554.48794939 20.58015533 1569.3103447 28.20816994 C1571.2953091 29.21578144 1573.32676827 30.13206129 1575.3728447 31.00895119 C1580.65603829 33.27317701 1585.74549238 35.91487571 1590.8728447 38.50895119 C1592.87238109 39.50987786 1594.87225052 40.51014042 1596.8728447 41.50895119 C1596.8728447 42.16895119 1596.8728447 42.82895119 1596.8728447 43.50895119 C1597.7597197 43.75645119 1598.6465947 44.00395119 1599.5603447 44.25895119 C1603.04214955 45.57283981 1605.02709652 47.14906246 1607.8728447 49.50895119 C1609.58569925 50.49225658 1611.29905592 51.47492688 1613.02518845 52.43473244 C1616.15861898 54.25649437 1619.00695191 56.28642209 1621.8728447 58.50895119 C1621.8728447 59.16895119 1621.8728447 59.82895119 1621.8728447 60.50895119 C1622.7700322 60.66363869 1622.7700322 60.66363869 1623.6853447 60.82145119 C1626.18822193 61.60806975 1627.08599224 62.6444095 1628.8728447 64.50895119 C1629.8628447 64.83895119 1630.8528447 65.16895119 1631.8728447 65.50895119 C1632.99399969 66.63010618 1634.11051438 67.75635252 1635.2009697 68.90738869 C1638.2000085 71.78029969 1641.56332445 74.22153646 1644.86112595 76.73941994 C1645.85692673 77.61533791 1645.85692673 77.61533791 1646.8728447 78.50895119 C1646.8728447 79.16895119 1646.8728447 79.82895119 1646.8728447 80.50895119 C1647.8319072 80.91113869 1647.8319072 80.91113869 1648.8103447 81.32145119 C1650.8728447 82.50895119 1650.8728447 82.50895119 1651.8728447 85.50895119 C1652.5328447 85.83895119 1653.1928447 86.16895119 1653.8728447 86.50895119 C1654.5328447 86.83895119 1655.1928447 87.16895119 1655.8728447 87.50895119 C1656.2028447 88.49895119 1656.5328447 89.48895119 1656.8728447 90.50895119 C1657.5328447 90.83895119 1658.1928447 91.16895119 1658.8728447 91.50895119 C1659.5328447 91.83895119 1660.1928447 92.16895119 1660.8728447 92.50895119 C1661.2028447 93.49895119 1661.5328447 94.48895119 1661.8728447 95.50895119 C1662.5328447 95.83895119 1663.1928447 96.16895119 1663.8728447 96.50895119 C1664.5328447 96.83895119 1665.1928447 97.16895119 1665.8728447 97.50895119 C1666.2028447 98.49895119 1666.5328447 99.48895119 1666.8728447 100.50895119 C1667.5328447 100.50895119 1668.1928447 100.50895119 1668.8728447 100.50895119 C1670.39025446 102.20798142 1671.8379727 103.96967842 1673.2478447 105.75895119 C1675.98060241 109.21374188 1678.75428763 112.40383618 1681.8728447 115.50895119 C1682.89589418 117.16156958 1683.89900523 118.82686484 1684.8728447 120.50895119 C1685.5328447 121.16895119 1686.1928447 121.82895119 1686.8728447 122.50895119 C1686.8728447 123.49895119 1686.8728447 124.48895119 1686.8728447 125.50895119 C1687.8628447 125.83895119 1688.8528447 126.16895119 1689.8728447 126.50895119 C1694.17495276 131.71939298 1697.62786512 137.59845267 1700.8728447 143.50895119 C1701.4503447 144.43707619 1702.0278447 145.36520119 1702.6228447 146.32145119 C1703.8728447 148.50895119 1703.8728447 148.50895119 1703.8728447 150.50895119 C1704.5328447 150.50895119 1705.1928447 150.50895119 1705.8728447 150.50895119 C1707.06737649 152.89801477 1708.26168118 155.28718812 1709.45487595 157.67691994 C1710.32302386 159.41082418 1711.1945978 161.14302489 1712.07206345 162.87223244 C1715.84815246 170.33659444 1719.37257781 177.91244872 1722.8728447 185.50895119 C1723.25569626 186.33524025 1723.63854782 187.16152931 1724.03300095 188.01285744 C1733.04469088 207.82398147 1738.69484959 228.69129307 1742.43491101 250.07674993 C1742.89140453 252.61202902 1743.38318819 255.13899871 1743.87643626 257.66736691 C1746.72673055 272.78776516 1747.44208127 287.36766415 1747.38179588 302.72512627 C1747.38658684 305.29352777 1747.39312441 307.86192649 1747.40122908 310.43031967 C1747.41597853 315.98897125 1747.41619444 321.54746912 1747.40645011 327.10612956 C1747.39193483 335.42778953 1747.4007574 343.749319 1747.41381281 352.07097567 C1747.43539739 366.26033153 1747.43814971 380.44963418 1747.43041611 394.63900185 C1747.42264811 409.0065262 1747.42359803 423.37401095 1747.43503571 437.74153328 C1747.43575336 438.65107609 1747.43647101 439.56061891 1747.43721041 440.49772362 C1747.44016044 444.20254763 1747.44316925 447.90737158 1747.44625334 451.61219548 C1747.47748148 489.17042589 1747.48288573 526.72862907 1747.47794121 564.28687014 C1747.47726428 569.47217727 1747.47662009 574.65748441 1747.47600985 579.84279156 C1747.47582672 581.38782062 1747.47582672 581.38782062 1747.47563989 582.96406239 C1747.47309331 605.81678724 1747.47830397 628.66950836 1747.48506198 651.52223211 C1747.48660348 656.74441713 1747.48809296 661.96660217 1747.48959201 667.18878721 C1747.4901954 669.28476701 1747.49079916 671.38074682 1747.49140329 673.47672662 C1747.49170265 674.51568891 1747.49200201 675.55465121 1747.49231044 676.62509721 C1747.49291751 678.72668661 1747.49352688 680.82827602 1747.49413853 682.92986543 C1747.51147973 742.5457116 1747.52077607 802.16155449 1747.51224327 861.77740288 C1747.51208716 862.88079933 1747.51193104 863.98419578 1747.5117702 865.12102849 C1747.51002469 877.42430221 1747.50816616 889.72757591 1747.50626893 902.03084961 C1747.50609791 903.14159475 1747.5059269 904.25233989 1747.5057507 905.39674397 C1747.50432934 914.62451704 1747.50432934 914.62451704 1747.50366624 918.87251816 C1747.49259793 989.89881057 1747.5076717 1060.92505098 1747.54520798 1131.951334 C1747.55465298 1149.84528149 1747.56401426 1167.73922901 1747.5728817 1185.6331768 C1747.57342834 1186.73508883 1747.57397499 1187.83700085 1747.5745382 1188.97230415 C1747.59129075 1222.9546165 1747.60064106 1256.93692451 1747.60229683 1290.91924095 C1747.60234956 1291.98673957 1747.6024023 1293.05423818 1747.60245663 1294.15408524 C1747.60353839 1317.59253876 1747.60279284 1341.03099193 1747.6003772 1364.46944534 C1747.59952601 1372.8569411 1747.59879574 1381.24443687 1747.59811832 1389.63193265 C1747.59794771 1391.71839562 1747.59776984 1393.80485858 1747.59758468 1395.89132155 C1747.59469187 1429.08271291 1747.60890898 1462.27406883 1747.6315926 1495.46545168 C1747.65493539 1529.84406403 1747.65597347 1564.22261333 1747.63190575 1598.601226 C1747.6294023 1602.3006694 1747.62699531 1606.00011284 1747.62466431 1609.69955635 C1747.62408372 1610.60741108 1747.62350313 1611.51526581 1747.62290495 1612.45063128 C1747.61428762 1626.76820294 1747.62565711 1641.08568432 1747.64554469 1655.40324179 C1747.66472001 1669.51582088 1747.66213481 1683.62826203 1747.63713224 1697.74083331 C1747.62435762 1705.27567089 1747.62067144 1712.81021144 1747.64485891 1720.34502926 C1747.84939485 1787.56293907 1747.84939485 1787.56293907 1738.49802438 1816.40283437 C1737.84734796 1818.59484507 1737.43147773 1820.75414762 1737.0603447 1823.00895119 C1733.92992274 1839.48894114 1726.80164055 1856.12405588 1719.17362595 1870.94645119 C1718.16601444 1872.9314156 1717.24973459 1874.96287476 1716.3728447 1877.00895119 C1714.10861887 1882.29214478 1711.46692018 1887.38159887 1708.8728447 1892.50895119 C1707.87191802 1894.50848758 1706.87165546 1896.50835701 1705.8728447 1898.50895119 C1705.2128447 1898.50895119 1704.5528447 1898.50895119 1703.8728447 1898.50895119 C1703.5015947 1899.83926369 1703.5015947 1899.83926369 1703.1228447 1901.19645119 C1701.81554786 1904.66078781 1700.24751231 1906.70252582 1697.8728447 1909.50895119 C1696.85932806 1911.16743296 1695.86163674 1912.8356108 1694.8728447 1914.50895119 C1693.86435375 1916.12090572 1692.84247206 1917.72452774 1691.8103447 1919.32145119 C1691.30374313 1920.1116465 1690.79714157 1920.90184181 1690.27518845 1921.71598244 C1689.81241501 1922.30766212 1689.34964157 1922.89934181 1688.8728447 1923.50895119 C1688.2128447 1923.50895119 1687.5528447 1923.50895119 1686.8728447 1923.50895119 C1686.7697197 1924.10707619 1686.6665947 1924.70520119 1686.5603447 1925.32145119 C1685.77372614 1927.82432842 1684.73738638 1928.72209874 1682.8728447 1930.50895119 C1682.5428447 1931.49895119 1682.2128447 1932.48895119 1681.8728447 1933.50895119 C1680.7516897 1934.63010618 1679.62544336 1935.74662087 1678.4744072 1936.83707619 C1675.60149619 1939.83611499 1673.16025943 1943.19943094 1670.64237595 1946.49723244 C1670.05843063 1947.16109962 1669.47448532 1947.82496681 1668.8728447 1948.50895119 C1668.2128447 1948.50895119 1667.5528447 1948.50895119 1666.8728447 1948.50895119 C1666.4706572 1949.46801369 1666.4706572 1949.46801369 1666.0603447 1950.44645119 C1664.8728447 1952.50895119 1664.8728447 1952.50895119 1661.8728447 1953.50895119 C1661.5428447 1954.16895119 1661.2128447 1954.82895119 1660.8728447 1955.50895119 C1660.5428447 1956.16895119 1660.2128447 1956.82895119 1659.8728447 1957.50895119 C1658.8828447 1957.83895119 1657.8928447 1958.16895119 1656.8728447 1958.50895119 C1656.5428447 1959.16895119 1656.2128447 1959.82895119 1655.8728447 1960.50895119 C1655.5428447 1961.16895119 1655.2128447 1961.82895119 1654.8728447 1962.50895119 C1653.8828447 1962.83895119 1652.8928447 1963.16895119 1651.8728447 1963.50895119 C1651.5428447 1964.16895119 1651.2128447 1964.82895119 1650.8728447 1965.50895119 C1650.5428447 1966.16895119 1650.2128447 1966.82895119 1649.8728447 1967.50895119 C1648.8828447 1967.83895119 1647.8928447 1968.16895119 1646.8728447 1968.50895119 C1646.8728447 1969.16895119 1646.8728447 1969.82895119 1646.8728447 1970.50895119 C1645.17381446 1972.02636095 1643.41211747 1973.47407919 1641.6228447 1974.88395119 C1638.16805401 1977.6167089 1634.97795971 1980.39039412 1631.8728447 1983.50895119 C1630.22022631 1984.53200067 1628.55493104 1985.53511172 1626.8728447 1986.50895119 C1626.2128447 1987.16895119 1625.5528447 1987.82895119 1624.8728447 1988.50895119 C1623.8828447 1988.50895119 1622.8928447 1988.50895119 1621.8728447 1988.50895119 C1621.5428447 1989.49895119 1621.2128447 1990.48895119 1620.8728447 1991.50895119 C1619.2634697 1992.83316994 1619.2634697 1992.83316994 1617.1228447 1994.19645119 C1616.32233688 1994.708209 1615.52182907 1995.21996681 1614.69706345 1995.74723244 C1613.76507126 1996.32859962 1612.83307907 1996.90996681 1611.8728447 1997.50895119 C1610.7334389 1998.23147676 1609.59412009 1998.95413952 1608.45487595 1999.67691994 C1599.17191583 2005.50895119 1599.17191583 2005.50895119 1596.8728447 2005.50895119 C1596.8728447 2006.16895119 1596.8728447 2006.82895119 1596.8728447 2007.50895119 C1594.48378112 2008.70348298 1592.09460776 2009.89778767 1589.70487595 2011.09098244 C1587.97097171 2011.95913035 1586.23877099 2012.83070429 1584.50956345 2013.70816994 C1577.04520145 2017.48425895 1569.46934717 2021.0086843 1561.8728447 2024.50895119 C1561.04655563 2024.89180275 1560.22026657 2025.27465431 1559.36893845 2025.66910744 C1539.55781442 2034.68079737 1518.69050281 2040.33095609 1497.30504595 2044.0710175 C1494.76976686 2044.52751102 1492.24279717 2045.01929468 1489.71442898 2045.51254275 C1474.59403072 2048.36283704 1460.01413173 2049.07818776 1444.65666962 2049.01790237 C1442.08826812 2049.02269333 1439.5198694 2049.0292309 1436.95147622 2049.03733557 C1431.39282463 2049.05208503 1425.83432677 2049.05230093 1420.27566633 2049.0425566 C1411.95400635 2049.02804132 1403.63247688 2049.03686389 1395.31082022 2049.0499193 C1381.12146435 2049.07150388 1366.9321617 2049.0742562 1352.74279404 2049.0665226 C1338.37526968 2049.0587546 1324.00778494 2049.05970452 1309.6402626 2049.0711422 C1308.73071979 2049.07185985 1307.82117698 2049.0725775 1306.88407226 2049.0733169 C1303.17924825 2049.07626693 1299.4744243 2049.07927574 1295.7696004 2049.08235983 C1258.21137 2049.11358797 1220.65316682 2049.11899222 1183.09492575 2049.11404771 C1177.90961861 2049.11337077 1172.72431147 2049.11272658 1167.53900433 2049.11211634 C1166.50898495 2049.11199425 1165.47896558 2049.11187216 1164.41773349 2049.11174638 C1141.56500864 2049.1091998 1118.71228752 2049.11441046 1095.85956378 2049.12116847 C1090.63737875 2049.12270997 1085.41519371 2049.12419945 1080.19300868 2049.1256985 C1078.09702887 2049.12630189 1076.00104907 2049.12690565 1073.90506926 2049.12750978 C1072.34662582 2049.12795882 1072.34662582 2049.12795882 1070.75669868 2049.12841694 C1068.65510927 2049.129024 1066.55351986 2049.12963337 1064.45193045 2049.13024502 C1004.83608428 2049.14758622 945.22024139 2049.15688256 885.60439301 2049.14834976 C884.50099655 2049.14819365 883.3976001 2049.14803753 882.2607674 2049.14787669 C869.95749368 2049.14613118 857.65421997 2049.14427265 845.35094628 2049.14237542 C843.68482857 2049.1421189 843.68482857 2049.1421189 841.98505191 2049.14185719 C832.75727885 2049.14043583 832.75727885 2049.14043583 828.50927773 2049.13977273 C757.48298531 2049.12870442 686.4567449 2049.14377819 615.43046188 2049.18131447 C597.53651439 2049.19075947 579.64256687 2049.20012075 561.74861908 2049.20898819 C560.64670706 2049.20953483 559.54479503 2049.21008148 558.40949173 2049.21064469 C524.42717939 2049.22739724 490.44487137 2049.23674755 456.46255493 2049.23840332 C454.86130701 2049.23848242 454.86130701 2049.23848242 453.22771064 2049.23856312 C429.78925712 2049.23964488 406.35080395 2049.23889933 382.91235054 2049.23648369 C374.52485478 2049.2356325 366.13735901 2049.23490223 357.74986323 2049.23422481 C355.66340027 2049.2340542 353.5769373 2049.23387633 351.49047433 2049.23369117 C318.29908297 2049.23079836 285.10772706 2049.24501547 251.9163442 2049.26769909 C217.53773185 2049.29104188 183.15918256 2049.29207996 148.78056988 2049.26801224 C145.08112649 2049.26550879 141.38168304 2049.2631018 137.68223953 2049.2607708 C136.7743848 2049.26019021 135.86653008 2049.25960962 134.9311646 2049.25901144 C120.61359294 2049.25039411 106.29611157 2049.2617636 91.97855409 2049.28165118 C77.86597501 2049.3008265 63.75353386 2049.29824131 49.64096258 2049.27323873 C42.10612499 2049.26046412 34.57158444 2049.25677793 27.03676662 2049.2809654 C-40.18114318 2049.48550134 -40.18114318 2049.48550134 -69.02103849 2040.13413087 C-71.21304919 2039.48345445 -73.37235174 2039.06758423 -75.6271553 2038.69645119 C-92.10384054 2035.56665697 -108.73756014 2028.4406295 -123.5568428 2020.81363869 C-126.68581473 2019.22537634 -129.89947948 2017.883702 -133.1271553 2016.50895119 C-136.47958693 2014.87983565 -139.80277552 2013.19440657 -143.1271553 2011.50895119 C-144.66832369 2010.73712211 -146.20994311 2009.9661925 -147.7521553 2009.19645119 C-148.8659053 2008.63957619 -149.9796553 2008.08270119 -151.1271553 2007.50895119 C-151.1271553 2006.84895119 -151.1271553 2006.18895119 -151.1271553 2005.50895119 C-152.0140303 2005.26145119 -152.9009053 2005.01395119 -153.8146553 2004.75895119 C-157.29646016 2003.44506256 -159.28140713 2001.86883992 -162.1271553 1999.50895119 C-163.84000986 1998.52564579 -165.55336652 1997.5429755 -167.27949905 1996.58316994 C-170.41292959 1994.761408 -173.26126252 1992.73148029 -176.1271553 1990.50895119 C-176.1271553 1989.84895119 -176.1271553 1989.18895119 -176.1271553 1988.50895119 C-176.7252803 1988.40582619 -177.3234053 1988.30270119 -177.9396553 1988.19645119 C-180.44253254 1987.40983263 -181.34030285 1986.37349288 -183.1271553 1984.50895119 C-184.1171553 1984.17895119 -185.1071553 1983.84895119 -186.1271553 1983.50895119 C-187.2483103 1982.38779619 -188.36482499 1981.26154985 -189.4552803 1980.11051369 C-192.45431911 1977.23760268 -195.81763505 1974.79636592 -199.11543655 1972.27848244 C-199.77930374 1971.69453712 -200.44317093 1971.11059181 -201.1271553 1970.50895119 C-201.1271553 1969.84895119 -201.1271553 1969.18895119 -201.1271553 1968.50895119 C-202.0862178 1968.10676369 -202.0862178 1968.10676369 -203.0646553 1967.69645119 C-205.1271553 1966.50895119 -205.1271553 1966.50895119 -206.1271553 1963.50895119 C-206.7871553 1963.17895119 -207.4471553 1962.84895119 -208.1271553 1962.50895119 C-210.1271553 1961.50895119 -210.1271553 1961.50895119 -211.1271553 1958.50895119 C-211.7871553 1958.17895119 -212.4471553 1957.84895119 -213.1271553 1957.50895119 C-215.1271553 1956.50895119 -215.1271553 1956.50895119 -216.1271553 1953.50895119 C-216.7871553 1953.17895119 -217.4471553 1952.84895119 -218.1271553 1952.50895119 C-220.1271553 1951.50895119 -220.1271553 1951.50895119 -221.1271553 1948.50895119 C-221.7871553 1948.50895119 -222.4471553 1948.50895119 -223.1271553 1948.50895119 C-224.64456506 1946.80992095 -226.0922833 1945.04822396 -227.5021553 1943.25895119 C-230.23491302 1939.8041605 -233.00859824 1936.6140662 -236.1271553 1933.50895119 C-237.15020478 1931.8563328 -238.15331584 1930.19103753 -239.1271553 1928.50895119 C-239.7871553 1927.84895119 -240.4471553 1927.18895119 -241.1271553 1926.50895119 C-241.1271553 1925.51895119 -241.1271553 1924.52895119 -241.1271553 1923.50895119 C-242.1171553 1923.17895119 -243.1071553 1922.84895119 -244.1271553 1922.50895119 C-248.42926337 1917.2985094 -251.88217572 1911.41944971 -255.1271553 1905.50895119 C-255.7046553 1904.58082619 -256.2821553 1903.65270119 -256.8771553 1902.69645119 C-258.1271553 1900.50895119 -258.1271553 1900.50895119 -258.1271553 1898.50895119 C-258.7871553 1898.50895119 -259.4471553 1898.50895119 -260.1271553 1898.50895119 C-261.32168709 1896.11988761 -262.51599179 1893.73071425 -263.70918655 1891.34098244 C-264.57733447 1889.6070782 -265.44890841 1887.87487749 -266.32637405 1886.14566994 C-270.10246307 1878.68130794 -273.62688842 1871.10545366 -277.1271553 1863.50895119 C-277.51000687 1862.68266212 -277.89285843 1861.85637306 -278.28731155 1861.00504494 C-286.96693182 1841.92393642 -292.68452375 1821.75710069 -296.29345004 1801.14004628 C-296.85767949 1797.93961105 -297.47905362 1794.7559705 -298.13074686 1791.57225938 C-301.0676499 1776.74711727 -301.69514639 1762.46211197 -301.63610649 1747.38179588 C-301.64089663 1744.81084641 -301.64743368 1742.23989971 -301.65553969 1739.66895854 C-301.67029809 1734.10161336 -301.67049984 1728.53442162 -301.66076072 1722.96706757 C-301.64625315 1714.63239209 -301.65506365 1706.29784703 -301.66812341 1697.96317487 C-301.68971426 1683.75206845 -301.69245846 1669.54101515 -301.68472672 1655.32989693 C-301.67696004 1640.9393776 -301.67790656 1626.54889782 -301.68934631 1612.15838051 C-301.69006396 1611.24754603 -301.69078162 1610.33671154 -301.69152101 1609.39827601 C-301.69447103 1605.68822019 -301.69747984 1601.97816441 -301.70056395 1598.26810869 C-301.73179604 1560.65231358 -301.7371959 1523.03654564 -301.73225182 1485.42073987 C-301.73157489 1480.22706492 -301.7309307 1475.03338997 -301.73032045 1469.839715 C-301.73019837 1468.80804032 -301.73007628 1467.77636563 -301.72995049 1466.71342807 C-301.72740416 1443.82620411 -301.73261415 1420.93898387 -301.73937259 1398.05176101 C-301.74091409 1392.82203535 -301.74240356 1387.59230968 -301.74390262 1382.36258401 C-301.74450601 1380.26358522 -301.74510977 1378.16458642 -301.7457139 1376.06558763 C-301.74601326 1375.0251305 -301.74631262 1373.98467337 -301.74662105 1372.91268724 C-301.74722812 1370.8080786 -301.74783748 1368.70346996 -301.74844914 1366.59886132 C-301.76579094 1306.89541247 -301.77508625 1247.19196691 -301.76655388 1187.48851585 C-301.76639777 1186.38344188 -301.76624165 1185.27836791 -301.76608081 1184.13980684 C-301.76433529 1171.81776484 -301.76247676 1159.49572285 -301.76057954 1147.17368087 C-301.76040852 1146.06123654 -301.7602375 1144.94879221 -301.7600613 1143.80263744 C-301.75863993 1134.56062781 -301.75863993 1134.56062781 -301.75797685 1130.30624385 C-301.74690849 1059.17099305 -301.7619822 988.03579417 -301.79951859 916.90055275 C-301.80896355 898.97927168 -301.81832481 881.05799058 -301.82719231 863.13670921 C-301.82773895 862.03312128 -301.8282856 860.92953334 -301.8288488 859.79250335 C-301.84560079 825.75969879 -301.85495161 791.72689854 -301.85660744 757.69408989 C-301.85666017 756.62503875 -301.8567129 755.55598762 -301.85676723 754.45454099 C-301.85784899 730.98223806 -301.85710347 707.50993548 -301.8546878 684.03763266 C-301.85383661 675.6380613 -301.85310634 667.23848993 -301.85242892 658.83891856 C-301.85225832 656.7494424 -301.85208045 654.65996624 -301.85189528 652.57049008 C-301.8490022 619.32786776 -301.86322145 586.08528082 -301.88590321 552.842667 C-301.90924348 518.41187332 -301.91028682 483.98114261 -301.88621636 449.55034861 C-301.8837129 445.84567733 -301.8813059 442.141006 -301.87897491 438.43633461 C-301.87839433 437.52719395 -301.87781374 436.61805328 -301.87721556 435.6813629 C-301.8685965 421.34054576 -301.87997076 406.99981873 -301.8998553 392.65901574 C-301.91902541 378.52526941 -301.91645227 364.39166084 -301.89144285 350.25792232 C-301.87866364 342.71103555 -301.87499427 335.16444544 -301.89916952 327.61757836 C-302.09953311 261.63399407 -302.09953311 261.63399407 -292.75233499 232.63256352 C-292.10522641 230.43446304 -291.68690761 228.26849396 -291.3146553 226.00895119 C-287.38508215 205.32185946 -277.55949109 185.14418757 -268.1271553 166.50895119 C-267.41784378 165.09277404 -266.70937469 163.67617428 -266.0021553 162.25895119 C-264.04382197 158.34228452 -262.08548864 154.42561785 -260.1271553 150.50895119 C-259.4671553 150.50895119 -258.8071553 150.50895119 -258.1271553 150.50895119 C-257.8796553 149.62207619 -257.6321553 148.73520119 -257.3771553 147.82145119 C-256.06326668 144.33964633 -254.48704403 142.35469936 -252.1271553 139.50895119 C-251.14384991 137.79609663 -250.16117961 136.08273997 -249.20137405 134.35660744 C-247.37961212 131.22317691 -245.3496844 128.37484397 -243.1271553 125.50895119 C-242.4671553 125.50895119 -241.8071553 125.50895119 -241.1271553 125.50895119 C-240.9724678 124.61176369 -240.9724678 124.61176369 -240.8146553 123.69645119 C-240.02803674 121.19357395 -238.99169699 120.29580364 -237.1271553 118.50895119 C-236.6321553 117.02395119 -236.6321553 117.02395119 -236.1271553 115.50895119 C-235.00600031 114.38779619 -233.87975397 113.2712815 -232.7287178 112.18082619 C-229.8558068 109.18178738 -227.41457003 105.81847144 -224.89668655 102.52066994 C-224.31274124 101.85680275 -223.72879593 101.19293556 -223.1271553 100.50895119 C-222.4671553 100.50895119 -221.8071553 100.50895119 -221.1271553 100.50895119 C-220.8590303 99.86957619 -220.5909053 99.23020119 -220.3146553 98.57145119 C-219.1271553 96.50895119 -219.1271553 96.50895119 -216.1271553 95.50895119 C-215.7971553 94.84895119 -215.4671553 94.18895119 -215.1271553 93.50895119 C-214.1271553 91.50895119 -214.1271553 91.50895119 -211.1271553 90.50895119 C-210.7971553 89.84895119 -210.4671553 89.18895119 -210.1271553 88.50895119 C-209.1271553 86.50895119 -209.1271553 86.50895119 -206.1271553 85.50895119 C-205.7971553 84.84895119 -205.4671553 84.18895119 -205.1271553 83.50895119 C-204.1271553 81.50895119 -204.1271553 81.50895119 -201.1271553 80.50895119 C-201.1271553 79.84895119 -201.1271553 79.18895119 -201.1271553 78.50895119 C-199.42812507 76.99154143 -197.66642808 75.54382319 -195.8771553 74.13395119 C-192.42236462 71.40119347 -189.23227031 68.62750825 -186.1271553 65.50895119 C-184.47453691 64.48590171 -182.80924165 63.48279065 -181.1271553 62.50895119 C-180.1371553 61.51895119 -180.1371553 61.51895119 -179.1271553 60.50895119 C-178.1371553 60.50895119 -177.1471553 60.50895119 -176.1271553 60.50895119 C-175.7971553 59.51895119 -175.4671553 58.52895119 -175.1271553 57.50895119 C-169.91671351 53.20684312 -164.03765383 49.75393077 -158.1271553 46.50895119 C-157.1990303 45.93145119 -156.2709053 45.35395119 -155.3146553 44.75895119 C-153.1271553 43.50895119 -153.1271553 43.50895119 -151.1271553 43.50895119 C-151.1271553 42.84895119 -151.1271553 42.18895119 -151.1271553 41.50895119 C-148.73809172 40.3144194 -146.34891837 39.1201147 -143.95918655 37.92691994 C-142.22528232 37.05877202 -140.4930816 36.18719809 -138.76387405 35.30973244 C-131.29951205 31.53364343 -123.72365777 28.00921807 -116.1271553 24.50895119 C-115.30086624 24.12609962 -114.47457718 23.74324806 -113.62324905 23.34879494 C-94.54214053 14.66917467 -74.37530481 8.95158275 -53.7582504 5.34265646 C-50.55781517 4.778427 -47.37417462 4.15705287 -44.1904635 3.50535963 C-29.36532139 0.56845659 -15.08031609 -0.0590399 0 0 Z " fill="#7289DA" transform="translate(301.1271553039551,-0.5089511871337891)"/>
<path d="M0 0 C2.32421875 2.36328125 2.32421875 2.36328125 4.6875 5.3125 C5.47511719 6.27800781 6.26273438 7.24351562 7.07421875 8.23828125 C8.82161603 10.74418363 9.40032389 12.11345615 10 15 C3.95431662 17.05833427 -2.12252935 18.95184854 -8.25 20.75 C-16.43607105 23.17624613 -24.54068949 25.80224267 -32.62939453 28.53417969 C-37.27459648 30.10083773 -41.92428812 31.60587252 -46.625 33 C-53.58008053 35.10269877 -60.35250697 37.6662902 -67.15625 40.20703125 C-71.66665229 41.88764167 -76.20346757 43.48287009 -80.75 45.0625 C-88.60272033 47.80595906 -96.29584193 50.86458683 -104 54 C-105.29363239 54.51333061 -106.58791161 55.02503396 -107.8828125 55.53515625 C-114.43925203 58.12129366 -120.91773674 60.81225277 -127.3125 63.78125 C-131.15822825 65.52524304 -135.06588197 67.1091467 -138.98046875 68.69140625 C-141.29524829 69.6945772 -143.519119 70.74708527 -145.765625 71.88671875 C-150.29169651 74.17840731 -154.92044812 76.20663034 -159.5625 78.25 C-167.05836612 81.58441088 -174.32233705 85.17853883 -181.515625 89.1171875 C-184.84851683 90.91814475 -188.21800328 92.59448751 -191.625 94.25 C-201.32491252 99.06718628 -210.64722675 104.54751753 -220 110 C-220.79615723 110.45971191 -221.59231445 110.91942383 -222.41259766 111.39306641 C-249.5021787 127.06213963 -276.10688898 144.76363554 -300 165 C-301.13636055 165.95094904 -302.27310208 166.90144294 -303.41015625 167.8515625 C-304.58633324 168.83807003 -305.76211993 169.82504311 -306.9375 170.8125 C-307.75420166 171.49735474 -307.75420166 171.49735474 -308.58740234 172.19604492 C-311.52515682 174.68053275 -314.3247501 177.23450071 -317 180 C-315.97003906 179.32195312 -314.94007813 178.64390625 -313.87890625 177.9453125 C-304.39800214 171.737484 -294.80091158 165.80692005 -284.98291016 160.14794922 C-283.12076195 159.06991168 -281.26826865 157.97711882 -279.41796875 156.87890625 C-271.849669 152.44172022 -264.14168293 148.61347233 -256.1796875 144.9453125 C-252.28585899 143.14802304 -248.45039347 141.25038822 -244.625 139.3125 C-236.10037554 135.0258317 -227.61148789 131.14276446 -218.61328125 127.9609375 C-215.45513419 126.79964575 -212.41397174 125.44912233 -209.3515625 124.05859375 C-183.42320456 112.38652564 -155.77620363 103.02667697 -128.33203125 95.63085938 C-125.96745114 94.99119491 -123.60829905 94.33429673 -121.25 93.671875 C-116.83742237 92.43284352 -112.42008779 91.21194269 -108 90 C-106.72769531 89.65066406 -105.45539063 89.30132813 -104.14453125 88.94140625 C-92.29138907 85.73144045 -80.37383398 82.79520361 -68.30859375 80.49609375 C-65.729567 79.94188665 -63.2219456 79.23088029 -60.6875 78.5 C-56.73700233 77.38788511 -52.87666775 76.62947649 -48.8125 76.0625 C-43.91759655 75.37145481 -39.20810454 74.33548975 -34.4375 73.0625 C-26.00284468 70.85034815 -17.5111108 69.61332642 -8.88378906 68.41064453 C-3.41563633 67.63199292 2.04143251 66.78028097 7.5 65.9375 C8.56138184 65.77507812 9.62276367 65.61265625 10.71630859 65.4453125 C15.79029244 64.66579648 20.85330947 63.85276731 25.91015625 62.96875 C32.5574827 61.85254179 39.23019878 61.20238265 45.9375 60.5625 C54.41896312 59.7287925 62.8350858 58.78327067 71.25 57.4375 C82.35850714 55.70714066 93.54009531 55.19672165 104.75195312 54.58459473 C105.45126953 54.54636597 106.15058594 54.50813721 106.87109375 54.46875 C107.5662207 54.43084351 108.26134766 54.39293701 108.97753906 54.35388184 C116.15645198 53.95274716 123.31486578 53.35945699 130.47387695 52.69702148 C147.68780855 51.14840272 164.86394512 50.83784928 182.13671875 50.83203125 C184.4318697 50.82880402 186.72702046 50.82543895 189.02217102 50.82194519 C193.81174189 50.81599917 198.60129485 50.81410041 203.39086914 50.81469727 C208.23205322 50.81477823 213.07314208 50.80787664 217.91430664 50.79418945 C243.2468733 50.72369276 268.47727596 50.65891541 293.74002075 52.73373413 C296.89769795 52.99164426 300.05605355 53.22228103 303.21655273 53.44262695 C308.93888751 53.84483335 314.65726784 54.28719263 320.375 54.75 C321.88395844 54.8715596 321.88395844 54.8715596 323.42340088 54.99557495 C339.94889235 56.34375872 356.4143404 58.07767232 372.875 60.0625 C374.42124054 60.24818542 374.42124054 60.24818542 375.99871826 60.43762207 C393.07171447 62.50335972 410.02298898 64.99793894 426.91015625 68.25390625 C431.40215958 69.09704771 435.91819802 69.75965029 440.4375 70.4375 C447.3849629 71.48854807 454.16516915 72.89485898 460.98339844 74.58520508 C466.34130012 75.89800531 471.69318548 76.80462933 477.16796875 77.5078125 C480 78 480 78 482.875 78.96484375 C486.47446067 80.1571651 490.08548587 80.80673364 493.8125 81.4375 C498.94187948 82.34835697 503.7986866 83.46350699 508.69140625 85.2578125 C511.61334108 86.19718241 514.55323329 86.77246966 517.5625 87.375 C524.16104697 88.72745299 530.43387665 90.61244135 536.8203125 92.71875 C540.10806055 93.77220559 543.42196349 94.6103917 546.77734375 95.421875 C552.77929656 96.89603885 558.59260178 98.75045532 564.4375 100.75 C566.53248694 101.45852597 568.62754038 102.16685535 570.72265625 102.875 C572.28910889 103.40673828 572.28910889 103.40673828 573.88720703 103.94921875 C576.87759996 104.95868159 579.87280632 105.95176167 582.87109375 106.9375 C583.79929932 107.24333008 584.72750488 107.54916016 585.68383789 107.86425781 C587.41283355 108.43332215 589.14243951 109.00053738 590.87280273 109.56542969 C599.89799669 112.55026959 608.62722858 116.23086335 617.375 119.9375 C622.48546436 122.1017866 627.60009508 124.24347661 632.75 126.3125 C650.41309667 133.69262396 667.31835507 142.64873673 684 152 C685.33200852 152.73962427 686.66403759 153.47921152 687.99609375 154.21875 C699.59408011 160.70410315 710.66890386 167.87218397 721.3828125 175.72607422 C724.16061864 177.75128489 726.85461792 179.59608556 730 181 C729.34 180.38125 728.68 179.7625 728 179.125 C726 177 726 177 726 175 C725.47148438 174.93683594 724.94296875 174.87367188 724.3984375 174.80859375 C720.92384046 173.63719051 718.41754619 171.36098927 715.625 169.0625 C699.01923566 155.71908779 681.14877776 144.12001306 663 133 C662.25685547 132.54399414 661.51371094 132.08798828 660.74804688 131.61816406 C628.01931044 111.59894954 593.9824847 93.45210131 559.109375 77.44921875 C556.32707923 76.15244522 553.60072215 74.78560462 550.875 73.375 C546.05871883 70.92672374 541.06780773 69.07058257 536.01171875 67.1796875 C533.63075061 66.24706444 531.43612071 65.26374991 529.1875 64.0625 C523.38371508 61.02592055 517.11212515 58.98344125 510.97363281 56.73046875 C508.20005997 55.70393115 505.44394765 54.63406021 502.6875 53.5625 C494.89202166 50.55149649 487.04298579 47.68695668 479.19677734 44.81152344 C477.12249864 44.04525289 475.05518977 43.26244762 472.98828125 42.4765625 C468.69804915 40.86353318 464.35503889 39.42690694 460 38 C454.92665504 36.33774363 449.89816287 34.61031916 444.90722656 32.71435547 C436.04985287 29.39680869 427.00039059 26.64860892 417.89453125 24.109375 C414.87989206 23.26198239 411.88246225 22.36504102 408.88671875 21.453125 C407.99621826 21.18234131 407.10571777 20.91155762 406.18823242 20.63256836 C404.4335782 20.09729604 402.67978955 19.55917568 400.92700195 19.01782227 C396.63114766 17.71016575 392.46503422 16.60161987 388 16 C391.27347942 8.62139502 399.17823733 3.00617666 406 -1 C410.58610337 -2.23388019 414.34400898 -1.67340887 419 -1 C420.96582158 -0.96767405 422.9316947 -0.93634161 424.89770508 -0.91894531 C440.34046174 -0.61425429 455.65102926 2.84568521 470.80102539 5.60165405 C474.59746131 6.28938135 478.3961749 6.96410001 482.1953125 7.63671875 C482.88662262 7.75985443 483.57793274 7.88299011 484.29019165 8.00985718 C488.26898949 8.71350427 492.2522591 9.35168693 496.25 9.9375 C501.62501337 10.81250218 506.65510247 12.38169291 511.828125 14.05859375 C514.82487505 14.94802326 517.73089001 15.55599228 520.8125 16.0625 C524.78219809 16.71552393 528.23361776 17.72388157 531.953125 19.2265625 C534.19474542 20.07358701 536.43295222 20.70085695 538.75 21.3125 C565.52414586 28.45471401 592.142403 37.360311 617.5234375 48.5078125 C620.23222403 49.6704602 622.94522617 50.7731708 625.6875 51.8515625 C631.41983233 54.13263171 637.02263513 56.6686023 642.625 59.25 C643.68404541 59.73742676 644.74309082 60.22485352 645.83422852 60.72705078 C653.54275205 64.29186901 661.18629338 67.9518667 668.73779297 71.83789062 C670.39610839 72.68977724 672.05695821 73.53673511 673.71923828 74.38085938 C697.90873976 86.66834723 721.17724859 100.33623286 744 115 C745.0209375 115.65210449 746.041875 116.30420898 747.09375 116.97607422 C750.11894017 118.92077112 753.12440271 120.89261511 756.125 122.875 C757.03137207 123.45693115 757.93774414 124.0388623 758.87158203 124.63842773 C769.96198141 132.0877844 774.60248103 143.67716534 780.375 155.3125 C780.95710236 156.47927277 780.95710236 156.47927277 781.55096436 157.6696167 C789.25390594 173.1332572 796.3534021 188.84215705 803.24291992 204.68217468 C805.90592152 210.80396475 808.61761072 216.90360701 811.34414673 222.99734497 C813.34025148 227.47002163 815.23699654 231.96544484 817.01171875 236.53125 C818.25386817 239.63416871 819.59927663 242.68733184 820.9375 245.75 C822.99547089 250.51228943 824.85615524 255.28846615 826.5625 260.1875 C828.01525551 264.35607552 829.56202264 268.37915811 831.4375 272.375 C834.37394094 278.65698357 836.72975949 285.12571223 839.11816406 291.62841797 C840.04676955 294.12578056 841.00126407 296.6120742 841.9609375 299.09765625 C847.34211709 313.11101577 852.17417786 327.27347043 856.83837891 341.53808594 C859.08642952 348.39440826 861.39303667 355.17706561 864.15307617 361.84863281 C865.51537911 365.30917288 866.50889151 368.85643525 867.5 372.4375 C868.88335195 377.30166455 870.3283024 382.08073915 872.125 386.8125 C873.89798254 391.49061056 875.10607368 396.19749901 876.19140625 401.078125 C876.96261751 403.86491738 878.03413242 406.36702627 879.20385742 409.00439453 C880.7944693 412.99141123 881.78716567 417.16617481 882.875 421.3125 C883.40053853 423.28138437 883.92658732 425.2501326 884.453125 427.21875 C884.84274414 428.68248047 884.84274414 428.68248047 885.24023438 430.17578125 C886.13303072 433.49450494 887.0641005 436.80135347 888.00073242 440.10791016 C890.06481346 447.39717563 891.88210613 454.7047956 893.54907227 462.09448242 C894.68022062 466.9770342 896.2371762 471.51476033 898.05859375 476.171875 C899.62663476 480.88250441 900.42341366 485.7390017 901.2890625 490.6171875 C901.87198594 493.8748597 901.87198594 493.8748597 902.93359375 496.33203125 C904.55099846 500.3785053 905.44596457 504.57545529 906.4375 508.8125 C906.65776855 509.74449219 906.87803711 510.67648437 907.10498047 511.63671875 C908.71063935 518.52654084 910.07148008 525.43411469 911.328125 532.39453125 C912.68115939 539.65529138 914.45991285 546.81611072 916.23046875 553.984375 C918.4723823 563.13072046 920.52997091 572.11765481 921.640625 581.48046875 C921.86292906 583.98955285 921.86292906 583.98955285 923 586 C923.3027691 587.76565349 923.56624482 589.53808185 923.8125 591.3125 C924.70492579 597.37160139 925.82165757 603.36545361 927 609.375 C928.42472914 616.67122216 929.57372505 623.9180998 930.47119141 631.29833984 C930.96436095 634.75052667 931.64288358 638.07620595 932.42578125 641.47265625 C934.0932098 649.1032015 935.1548252 656.75412441 936.125 664.5 C936.45903912 667.11483015 936.79605861 669.72926706 937.1328125 672.34375 C937.27605957 673.48005859 937.41930664 674.61636719 937.56689453 675.78710938 C937.84355809 677.83947267 938.16022696 679.88709763 938.52832031 681.92504883 C939.08657282 685.56438132 939.25476381 689.18298459 939.4140625 692.85546875 C939.81820168 700.71489557 940.82523933 708.38138154 942.04110718 716.15405273 C944.62542423 732.86034798 946.01253612 749.55414604 947.01123047 766.4230957 C947.11543747 768.17790441 947.2197655 769.93270593 947.32421875 771.6875 C947.40000656 772.97483536 947.40000656 772.97483536 947.47732544 774.28817749 C947.84765742 780.29098727 948.40430059 786.25860148 949.04296875 792.23828125 C950.41648727 805.24335247 950.63810764 818.23254135 950.83909607 831.29959106 C950.92768525 836.59197053 951.11482132 841.87236092 951.35839844 847.15975952 C952.90542126 882.01611759 952.90542126 882.01611759 943.83789062 892.32763672 C942.75670208 893.43316781 941.65065565 894.5151359 940.51708984 895.56689453 C938.33611917 897.62712914 936.60981112 899.97980039 934.8125 902.375 C933.54394322 903.91854046 932.27312466 905.460225 931 907 C930.34128906 907.83144531 929.68257812 908.66289063 929.00390625 909.51953125 C919.80995524 921.04149188 909.51450902 931.56251831 899.125 942 C898.43599609 942.69367676 897.74699219 943.38735352 897.03710938 944.10205078 C892.52095818 948.60407542 887.84192266 952.8521327 883 957 C881.97906265 957.8892035 880.95822112 958.77851704 879.9375 959.66796875 C810.79615647 1018.97138175 724.45100201 1052.99233506 587.19921875 1070.73779297 C583.60568346 1070.95247879 580.02369399 1071.250954 576.4375 1071.56640625 C565.04148105 1072.37218537 565.04148105 1072.37218537 559.9140625 1068.92578125 C557.23949026 1066.11065341 555.14628434 1063.23152962 553 1060 C551.53851851 1058.19387837 550.05938179 1056.4018929 548.5625 1054.625 C547.83160156 1053.72007813 547.10070313 1052.81515625 546.34765625 1051.8828125 C543.77184968 1048.71984203 541.14302571 1045.6067545 538.5 1042.5 C535.16370068 1038.57615821 531.86728525 1034.62738142 528.625 1030.625 C524.45843577 1025.50266476 520.13798719 1020.52582622 515.79956055 1015.54956055 C511.8787025 1011.04197757 508.0716526 1006.45615909 504.3125 1001.8125 C501.57012049 998.47717357 498.75807606 995.20668448 495.9375 991.9375 C490.06994335 985.12998596 484.3677533 978.21138893 479 971 C484.85105114 968.26950947 490.76576535 966.63520909 497 965 C504.04993711 963.1137292 510.89470476 961.25375906 517.49609375 958.1171875 C520.75124071 956.66481304 524.09065094 955.46989085 527.4375 954.25 C572.99486418 937.35955801 616.06923924 910.83916495 651.85546875 877.9609375 C653.80634883 876.17707266 655.79748048 874.46047206 657.8125 872.75 C666.51803617 865.13706148 674.58414279 856.8678836 681.76171875 847.80078125 C683.79919573 845.25126817 685.89837059 842.78007351 688.03344727 840.31323242 C694.17544688 833.2014996 699.65952411 825.72689245 705 818 C701.36993266 820.86445314 697.86657926 823.84405125 694.375 826.875 C672.13541022 845.82389038 647.30466638 861.69835185 621.64990234 875.56201172 C619.45826738 876.75131796 617.28200971 877.96110944 615.11328125 879.19140625 C603.2683341 885.78110391 590.74623306 891.04450888 578.35473633 896.50830078 C575.25376224 897.88716343 572.17070587 899.29958003 569.08984375 900.72265625 C564.88192118 902.64098522 560.69256866 904.26709274 556.3125 905.75 C550.40017255 907.77571893 544.55134292 909.92463558 538.7199707 912.17285156 C516.63435869 920.64762648 494.02491561 927.16778787 471.14306641 933.08203125 C470.44448013 933.26290787 469.74589386 933.44378448 469.02613831 933.63014221 C467.13211111 934.11923737 465.23710983 934.604556 463.34204102 935.08959961 C460.18210024 935.95039435 457.10485466 936.96154825 454 938 C452.06924133 938.35175765 450.13093477 938.66432644 448.1875 938.9375 C444.56741806 939.50396759 441.24350223 940.15588049 437.8125 941.4375 C426.91690339 945.3232056 414.69991649 946.21528085 403.29907227 947.875 C398.36971894 948.6046412 393.50237004 949.46866184 388.625 950.5 C381.49691501 951.98793905 374.3342297 952.98000108 367.11376953 953.91015625 C362.55600394 954.49987633 358.03276403 955.15941259 353.5078125 955.96484375 C345.0756681 957.39584759 336.56943837 958.15971128 328.0625 959 C326.29148808 959.17676213 324.5204921 959.35368395 322.74951172 959.53076172 C320.1404868 959.79128468 317.53140927 960.05119757 314.92211914 960.30905151 C310.68623685 960.72805097 306.45304675 961.1609028 302.22265625 961.6328125 C297.15515966 962.18897551 292.08362431 962.62009958 287 963 C285.81519043 963.09023437 284.63038086 963.18046875 283.40966797 963.2734375 C258.22843932 965.11681095 233.02353797 965.18852134 207.78904343 965.18758392 C206.01553721 965.18752805 204.24203091 965.187959 202.46852493 965.18888092 C197.34575428 965.19153078 192.22306324 965.18770054 187.10030937 965.17388725 C185.52013877 965.16999858 183.93996399 965.16751042 182.35978889 965.16655159 C174.67311136 965.15899711 167.06848108 965.04226053 159.41448975 964.23908997 C155.63711095 963.86504267 151.8589755 963.75627699 148.06640625 963.640625 C122.67719288 962.73505469 97.65838445 960.49886583 72.45941162 957.30853271 C69.37775495 956.92193948 66.2943528 956.55092808 63.21061707 956.18135071 C49.62769916 954.55051255 36.16414187 952.66175677 22.75390625 949.94140625 C17.17698864 948.81223838 11.5671451 947.90559821 5.9440918 947.03881836 C1.50659932 946.33296115 -2.68589048 945.2367436 -7 944 C-9.64533754 943.51022235 -12.28257861 943.05183325 -14.9375 942.625 C-27.15316732 940.55851516 -38.95730337 937.32739981 -50.84765625 933.86328125 C-53.50379482 933.13588766 -56.10537084 932.55097019 -58.8125 932.0625 C-66.3602623 930.6351988 -73.66455796 928.24577574 -81 926 C-82.69793701 925.48179687 -82.69793701 925.48179687 -84.43017578 924.953125 C-87.60470092 923.98235779 -90.77818428 923.00839961 -93.95053101 922.0305481 C-95.82774608 921.45206186 -97.70549245 920.87530056 -99.58325195 920.29858398 C-106.80202293 918.06057387 -113.92552446 915.65860285 -121 913 C-122.1653125 912.56816406 -123.330625 912.13632813 -124.53125 911.69140625 C-130.57297965 909.39395905 -136.46075759 906.9095606 -142.3203125 904.18359375 C-145.85038116 902.62439433 -149.46209497 901.36601553 -153.09960938 900.08325195 C-178.30585457 890.66910129 -203.24120221 877.31611433 -226 863 C-226.65887207 862.58814453 -227.31774414 862.17628906 -227.99658203 861.75195312 C-246.48771159 850.14864937 -263.89069965 837.27551163 -280.35644531 822.94702148 C-283.4748423 820.18226288 -283.4748423 820.18226288 -287 818 C-279.43455495 828.73810952 -271.73771967 839.18159916 -263 849 C-262.34563965 849.74048584 -261.6912793 850.48097168 -261.01708984 851.24389648 C-249.32424797 864.37560111 -237.02494657 877.34020454 -223 888 C-221.9054844 888.86980029 -220.81317732 889.74238425 -219.72265625 890.6171875 C-196.31634042 909.34158626 -170.82359291 926.18168921 -143.77246094 939.14160156 C-141.03455919 940.46756059 -138.33331046 941.86483358 -135.625 943.25 C-131.36331012 945.38371284 -127.07096554 947.22751325 -122.625 948.9375 C-119.54812867 950.1829003 -116.5645301 951.58394806 -113.5625 953 C-108.84058701 955.19917202 -104.12992674 957.14943456 -99.21484375 958.8671875 C-96.61227091 959.78425448 -94.02600061 960.72945428 -91.44140625 961.6953125 C-83.35577778 964.71517886 -75.32116358 967.6809872 -67 970 C-67 974 -67 974 -69.16015625 976.515625 C-70.59681641 977.86914062 -70.59681641 977.86914062 -72.0625 979.25 C-76.84799331 983.84577069 -76.84799331 983.84577069 -81.3125 988.75 C-84.6612962 992.66761087 -88.16474594 996.42702857 -91.6875 1000.1875 C-92.29190918 1000.83307861 -92.89631836 1001.47865723 -93.51904297 1002.14379883 C-94.74636209 1003.45464338 -95.97373844 1004.76543436 -97.20117188 1006.07617188 C-105.91467916 1015.36126816 -105.91467916 1015.36126816 -114.375 1024.875 C-118.32260808 1029.43882007 -122.46995181 1033.81539274 -126.59399414 1038.21899414 C-134.47514122 1046.63566176 -142.26353949 1055.13260806 -149.9296875 1063.74609375 C-150.61289062 1064.48988281 -151.29609375 1065.23367188 -152 1066 C-152.67933594 1066.91007812 -153.35867188 1067.82015625 -154.05859375 1068.7578125 C-158.54656484 1072.17892193 -162.70171957 1071.61937508 -168.1875 1071.4375 C-169.25959717 1071.41937256 -170.33169434 1071.40124512 -171.4362793 1071.38256836 C-178.4080263 1071.21676002 -185.30406448 1070.73675342 -192.21498108 1069.80638123 C-196.61820153 1069.22995773 -200.96245027 1068.87248065 -205.39978027 1068.72317505 C-216.15098338 1068.3504038 -226.60436156 1066.89474565 -237.20068359 1065.09863281 C-240.02379695 1064.62097365 -242.84939163 1064.16095823 -245.67578125 1063.703125 C-253.87051863 1062.35553878 -261.94751559 1060.9685303 -269.92333984 1058.60742188 C-272.52601294 1057.84614153 -275.13586854 1057.36099161 -277.8125 1056.9375 C-281.71250691 1056.2709734 -285.25109333 1055.27622355 -289 1054 C-290.43470935 1053.71475267 -291.8727279 1053.44598258 -293.3125 1053.1875 C-306.90828344 1050.54951217 -319.88152567 1045.6993421 -332.79882812 1040.82128906 C-335.99669164 1039.62811993 -339.2161304 1038.50318891 -342.4375 1037.375 C-351.3344263 1034.20566421 -359.87592179 1030.58833058 -368.30517578 1026.33837891 C-370.94310501 1025.02825678 -373.59893568 1023.7693553 -376.26953125 1022.52734375 C-389.58451478 1016.32212886 -402.39576022 1009.543249 -415 1002 C-416.06009277 1001.36843994 -416.06009277 1001.36843994 -417.14160156 1000.72412109 C-433.88284397 990.68826766 -449.91589818 979.38561181 -465 967 C-465.81259277 966.33387695 -465.81259277 966.33387695 -466.64160156 965.65429688 C-478.81428051 955.6246444 -490.2033184 944.87890553 -501.375 933.75 C-502.2194165 932.91025635 -503.06383301 932.0705127 -503.93383789 931.20532227 C-508.82772199 926.2988338 -513.52154847 921.2884157 -518 916 C-518.73605469 915.13375 -519.47210937 914.2675 -520.23046875 913.375 C-524.68285048 907.9717104 -528.97567729 902.46720097 -533.1875 896.875 C-533.67436279 896.23046875 -534.16122559 895.5859375 -534.6628418 894.921875 C-535.63459819 893.62203365 -536.58899516 892.30905381 -537.52661133 890.984375 C-538.95815034 888.97187536 -538.95815034 888.97187536 -540.68237305 887.234375 C-547.39080402 879.40572619 -545.67615924 868.92609383 -545.4375 859.25 C-545.41593568 857.37763316 -545.39703474 855.50523365 -545.38085938 853.6328125 C-545.28608474 845.28651063 -544.99588894 837.004645 -544.26538086 828.68798828 C-543.89957816 823.60444124 -543.71948357 818.51874228 -543.53515625 813.42578125 C-543.49631821 812.36896149 -543.45748016 811.31214172 -543.41746521 810.22329712 C-543.2571585 805.81771811 -543.09976666 801.41206933 -542.95043945 797.00610352 C-542.53611301 784.91154601 -541.97943788 772.93536412 -540.44287109 760.92651367 C-539.95653768 756.61466129 -539.72758837 752.33358623 -539.5625 748 C-539.21360919 740.14626079 -538.46524755 732.37185036 -537.5625 724.5625 C-537.37892944 722.96438477 -537.37892944 722.96438477 -537.19165039 721.33398438 C-536.57179547 716.14285064 -535.85139344 710.99173801 -534.9609375 705.83984375 C-534.05696537 700.56803679 -533.49661113 695.32815383 -533.0625 690 C-532.21716428 680.4567176 -530.88825252 671.04420766 -529.39550781 661.58398438 C-528.97634221 658.84543574 -528.58945044 656.10382861 -528.2109375 653.359375 C-528.08130615 652.42222656 -527.9516748 651.48507812 -527.81811523 650.51953125 C-527.57230414 648.73089684 -527.32941845 646.94185683 -527.09008789 645.15234375 C-526.56708352 641.38107025 -525.9761074 637.7095738 -525 634.02734375 C-523.76419495 629.34497025 -523.18467874 624.60847937 -522.5625 619.8125 C-521.60648147 612.75734078 -520.38943897 605.90442806 -518.67578125 598.98828125 C-517.9801384 595.9121727 -517.52960789 592.87720303 -517.125 589.75 C-515.79259431 579.72308263 -513.63843926 569.84174303 -511.59765625 559.93945312 C-511.19860906 557.97681906 -510.81061004 556.01190684 -510.43359375 554.04492188 C-510.25957031 553.13806641 -510.08554687 552.23121094 -509.90625 551.296875 C-509.75478516 550.49088867 -509.60332031 549.68490234 -509.44726562 548.85449219 C-509 547 -509 547 -508 546 C-507.6503697 544.4663276 -507.34533014 542.92238472 -507.0625 541.375 C-506.48047571 538.31285726 -505.83033681 535.43112929 -504.9375 532.4375 C-503.88284944 528.9551753 -503.88284944 528.9551753 -503.625 525.0625 C-502.99850067 518.84885912 -501.32492635 512.89610401 -499.74658203 506.87158203 C-499.00568183 504.02185406 -498.27765505 501.16900507 -497.55293274 498.31512451 C-496.84274366 495.51939805 -496.12926252 492.72451695 -495.41531372 489.92974854 C-495.05674061 488.52466041 -494.69904598 487.11934778 -494.34225464 485.71380615 C-493.83306755 483.71067747 -493.31940403 481.70874525 -492.8046875 479.70703125 C-492.50546387 478.5363208 -492.20624023 477.36561035 -491.89794922 476.15942383 C-491.09534812 473.33548126 -490.10825918 470.71341391 -489 468 C-488.46184495 465.6751702 -487.96411145 463.340736 -487.5 461 C-486.21277719 454.50791975 -486.21277719 454.50791975 -485.03125 451.6875 C-484.07811461 449.20357142 -483.57131573 447.00028661 -483.0859375 444.39453125 C-482.00249075 438.68901195 -480.35957341 433.22450677 -478.625 427.6875 C-478.31191895 426.67421631 -477.99883789 425.66093262 -477.67626953 424.61694336 C-477.06029755 422.62453424 -476.44237591 420.63272657 -475.82226562 418.64160156 C-474.82934653 415.45176052 -473.8518539 412.25729269 -472.875 409.0625 C-472.25069698 407.04145124 -471.62567554 405.02062428 -471 403 C-470.43539062 401.16695312 -470.43539062 401.16695312 -469.859375 399.296875 C-467.41904711 391.4056664 -464.88454192 383.5520351 -462.23095703 375.72973633 C-460.79497944 371.47412057 -459.44488037 367.20030103 -458.140625 362.90234375 C-455.86321522 355.46100837 -453.35556549 348.1035534 -450.8125 340.75 C-450.57422485 340.05945526 -450.33594971 339.36891052 -450.0904541 338.65744019 C-437.61398519 302.51292508 -437.61398519 302.51292508 -431.38623047 287.76733398 C-429.55950833 283.43007563 -427.92242712 279.07024871 -426.375 274.625 C-424.61826789 269.58941611 -422.59145044 264.80909292 -420.3203125 259.98828125 C-418.69825084 256.31704703 -417.31654942 252.58034498 -415.9375 248.8125 C-414.18263622 244.02141693 -412.32664729 239.41157887 -409.92578125 234.90625 C-408.78362656 232.55447157 -407.93165031 230.15297817 -407.0625 227.6875 C-405.43634592 223.09674193 -403.57537958 218.70384697 -401.5234375 214.2890625 C-400.00512189 211.01105803 -398.52416299 207.71835651 -397.04931641 204.4206543 C-395.04405256 199.94205558 -393.02190218 195.47110577 -391 191 C-390.56300781 190.03143066 -390.12601563 189.06286133 -389.67578125 188.06494141 C-386.18407974 180.34492943 -382.62173968 172.65983063 -379 165 C-378.68146057 164.32495422 -378.36292114 163.64990845 -378.034729 162.95440674 C-375.97905511 158.60596664 -373.89769522 154.27104156 -371.78787231 149.9486084 C-371.10417064 148.54144023 -370.42665416 147.13124743 -369.75582886 145.71789551 C-365.96814891 137.75591401 -362.46759224 131.09291471 -355 126 C-354.19224121 125.4335376 -353.38448242 124.8670752 -352.55224609 124.28344727 C-349.83535446 122.43051606 -347.0834163 120.64603321 -344.3125 118.875 C-343.30646729 118.22611816 -342.30043457 117.57723633 -341.26391602 116.90869141 C-298.04893873 89.13271431 -298.04893873 89.13271431 -278.36328125 79.6484375 C-275.32988729 78.16168692 -272.36963762 76.59125353 -269.40405273 74.9765625 C-257.61740542 68.5776511 -245.42093268 63.04374568 -233.22705078 57.47436523 C-231.14501438 56.52313072 -229.06509126 55.56725046 -226.98779297 54.60571289 C-221.68244834 52.16071659 -216.3712649 49.91387279 -210.875 47.9375 C-206.7279849 46.41895638 -202.61820615 44.89441473 -198.625 43 C-193.44164272 40.59918141 -187.98816983 38.9369672 -182.55712891 37.19335938 C-177.91303512 35.6913026 -173.4875488 33.93109681 -169 32 C-166.03983611 30.92054432 -163.05450407 29.9247351 -160.0625 28.9375 C-158.92264648 28.55368164 -158.92264648 28.55368164 -157.75976562 28.16210938 C-152.87981349 26.54101511 -147.99697535 25.21106884 -143 24 C-141.53742923 23.5768817 -140.07833748 23.14131994 -138.625 22.6875 C-125.78408799 18.81208962 -112.87348582 15.4262219 -99.8125 12.375 C-97.96156738 11.9413916 -97.96156738 11.9413916 -96.07324219 11.49902344 C-84.7429276 8.87924536 -73.36953092 6.26133959 -61.8125 4.875 C-57.48322303 4.40458302 -57.48322303 4.40458302 -53.23242188 3.51806641 C-50.21542534 2.81792788 -47.22036562 2.56861058 -44.13671875 2.28125 C-43.46768021 2.21844849 -42.79864166 2.15564697 -42.10932922 2.09094238 C-40.68980463 1.95839452 -39.27013735 1.82736714 -37.8503418 1.69775391 C-35.73253785 1.50411792 -33.61528155 1.3052219 -31.49804688 1.10546875 C-24.57288024 0.45860307 -17.64322458 -0.14018531 -10.70703125 -0.65625 C-9.51182861 -0.74712891 -8.31662598 -0.83800781 -7.08520508 -0.93164062 C-4.39052712 -0.99134703 -2.49332528 -0.96664846 0 0 Z " fill="#FEFEFE" transform="translate(821,497)"/>
<path d="M0 0 C0.54221191 0.43683105 1.08442383 0.87366211 1.64306641 1.32373047 C13.72764103 11.13760443 24.14669074 21.4252543 32 35 C32.66902344 36.11503906 33.33804687 37.23007813 34.02734375 38.37890625 C38.3571474 45.66882008 42.04166716 53.04067592 45 61 C45.42023438 62.09183594 45.84046875 63.18367188 46.2734375 64.30859375 C55.15112985 88.87020924 58.06037642 117.66235882 51 143 C50.65108829 144.49098901 50.30770477 145.98327845 49.96875 147.4765625 C41.53923002 183.46158903 19.55412857 214.81655445 -11.8125 234.375 C-13.86248345 235.60444847 -15.92610319 236.81133363 -18 238 C-18.64670654 238.3926001 -19.29341309 238.7852002 -19.9597168 239.18969727 C-26.09614454 242.80347132 -32.40404307 245.0727483 -39.1875 247.1875 C-40.3017334 247.53554687 -41.4159668 247.88359375 -42.56396484 248.2421875 C-73.62887029 257.70716964 -108.35792352 254.38348692 -137.125 239.125 C-169.18469333 221.19487824 -192.56446551 191.8062186 -203.39355469 156.85375977 C-204.01052394 154.87922308 -204.01052394 154.87922308 -205.03515625 152.55859375 C-216.65984926 121.73197869 -211.21556354 82.4074274 -198 53 C-183.68540362 21.54564998 -157.17557045 -6.32876004 -124.51953125 -18.7578125 C-82.28328445 -34.13945197 -35.3914322 -28.62616556 0 0 Z " fill="#7289DA" transform="translate(1326,1003)"/>
<path d="M0 0 C0.68964844 0.16628906 1.37929688 0.33257813 2.08984375 0.50390625 C36.45548127 9.01649536 65.97025764 31.78695736 84.20751953 62.00048828 C90.15860481 72.22340416 94.46738099 82.73373499 98 94 C98.39058594 95.20527344 98.78117187 96.41054687 99.18359375 97.65234375 C109.1127035 129.98559856 105.42382541 167.55953411 91 198 C90.53851562 198.99 90.07703125 199.98 89.6015625 201 C84.07440318 212.46373784 77.25200637 222.33588559 69 232 C68.39027344 232.73347656 67.78054688 233.46695312 67.15234375 234.22265625 C56.33024664 247.0168895 42.5270914 255.98380225 28 264 C27.24589844 264.49757813 26.49179687 264.99515625 25.71484375 265.5078125 C21.66598451 267.73322866 17.38088845 269.06477331 13 270.5 C12.12988281 270.79519531 11.25976562 271.09039063 10.36328125 271.39453125 C-1.42656218 275.30153046 -12.35826896 277.50553541 -24.8125 277.3125 C-26.04516602 277.29832031 -27.27783203 277.28414062 -28.54785156 277.26953125 C-32.03364712 277.21074576 -35.51574505 277.1178302 -39 277 C-39.80937012 276.97341309 -40.61874023 276.94682617 -41.45263672 276.91943359 C-58.81772318 276.12249505 -77.38267635 269.22015799 -92 260 C-93.45986328 259.11248047 -93.45986328 259.11248047 -94.94921875 258.20703125 C-121.14722083 241.59784039 -143.35352469 215.07671789 -152 185 C-152.50586628 183.64017133 -153.02552985 182.28534932 -153.5625 180.9375 C-158.78906949 167.10413402 -160.36342771 152.80944895 -160.31567383 138.09594727 C-160.31250652 136.06667565 -160.33612655 134.03885975 -160.36132812 132.00976562 C-160.40633465 122.61538092 -159.15779543 114.10467702 -157 105 C-156.82686279 104.22793213 -156.65372559 103.45586426 -156.4753418 102.66040039 C-148.29784039 67.1198988 -126.2490407 36.07575273 -95.5703125 16.4453125 C-80.42608715 7.10717993 -64.40535928 0.23807687 -46.625 -1.67578125 C-31.00329076 -3.60524831 -15.62030321 -3.88214972 0 0 Z " fill="#7289DA" transform="translate(812,979)"/>
<path d="M0 0 C0.66 0.33 1.32 0.66 2 1 C-0.97 3.97 -0.97 3.97 -4 7 C-3.67 7.66 -3.34 8.32 -3 9 C-3.96421875 9.61488281 -4.9284375 10.22976563 -5.921875 10.86328125 C-7.19796882 11.67960597 -8.47400759 12.49601676 -9.75 13.3125 C-10.70132813 13.91868164 -10.70132813 13.91868164 -11.671875 14.53710938 C-14.87174892 16.5870286 -18.00078145 18.65970068 -21 21 C-21.66 20.67 -22.32 20.34 -23 20 C-16.53455349 14.00977006 -9.98088697 8.24663553 -3.1171875 2.71484375 C-1.13793226 1.17273924 -1.13793226 1.17273924 0 0 Z " fill="#8195DD" transform="translate(524,658)"/>
<path d="M0 0 C0.53109375 0.40992188 1.0621875 0.81984375 1.609375 1.2421875 C2.31578125 1.78101563 3.0221875 2.31984375 3.75 2.875 C4.44609375 3.40867187 5.1421875 3.94234375 5.859375 4.4921875 C7.92237493 6.03461989 7.92237493 6.03461989 10.09375 7 C13.22457687 8.64240098 14.8397952 11.2397383 17 14 C16.67 14.66 16.34 15.32 16 16 C13.56012348 14.23236498 11.12306583 12.46105712 8.6875 10.6875 C7.99720703 10.18798828 7.30691406 9.68847656 6.59570312 9.17382812 C5.92861328 8.68720703 5.26152344 8.20058594 4.57421875 7.69921875 C3.96151123 7.25408936 3.34880371 6.80895996 2.7175293 6.3503418 C1.00729001 5.00573149 -0.49553692 3.5689113 -2 2 C-1.34 2 -0.68 2 0 2 C0 1.34 0 0.68 0 0 Z " fill="#8699DF" transform="translate(1535,664)"/>
<path d="M0 0 C0.66 0.33 1.32 0.66 2 1 C0.73459948 4.79620155 -0.78218431 5.48678188 -4.0625 7.6875 C-4.98160156 8.31011719 -5.90070313 8.93273437 -6.84765625 9.57421875 C-7.55792969 10.04472656 -8.26820313 10.51523437 -9 11 C-9.66 10.67 -10.32 10.34 -11 10 C-5.555 5.05 -5.555 5.05 0 0 Z " fill="#97A8E3" transform="translate(512,668)"/>
<path d="M0 0 C0.66 0 1.32 0 2 0 C3.7143618 1.95927063 5.38405168 3.95880212 7 6 C6.67 6.66 6.34 7.32 6 8 C3.69 6.35 1.38 4.7 -1 3 C-0.67 2.01 -0.34 1.02 0 0 Z " fill="#A5B4E7" transform="translate(1545,672)"/>
</svg>
