<?xml version="1.0" encoding="UTF-8"?>
<svg version="1.1" xmlns="http://www.w3.org/2000/svg" width="4096" height="4096">
<path d="M0 0 C4.7633739 0.0054777 9.52673673 -0.00093744 14.29010943 -0.0056737 C22.63240777 -0.01239576 30.97467987 -0.01184327 39.31697872 -0.00630661 C51.80570594 0.00194424 64.29441224 -0.00150028 76.78313998 -0.00707189 C98.07725506 -0.01623554 119.37136055 -0.01598968 140.66547647 -0.01051014 C162.2264045 -0.00499583 183.78732556 -0.00384009 205.34825388 -0.00798481 C206.03011648 -0.00811383 206.71197908 -0.00824286 207.41450419 -0.0083758 C213.66403743 -0.009559 219.91357067 -0.01078682 226.16310389 -0.01206822 C241.82978949 -0.0152753 257.49647516 -0.01778785 273.16316095 -0.01982896 C273.88082074 -0.01992277 274.59848052 -0.02001657 275.33788757 -0.02011321 C310.65795692 -0.02466357 345.97802515 -0.02160161 381.29809442 -0.01777332 C382.84404238 -0.01760605 384.38999034 -0.01743878 385.9359383 -0.01727153 C387.08521582 -0.01714716 387.08521582 -0.01714716 388.25771107 -0.01702028 C398.36266515 -0.01592715 408.46761924 -0.01485392 418.57257334 -0.01383369 C419.34506828 -0.01375537 420.11756323 -0.01367705 420.91346711 -0.01359635 C456.75680873 -0.00998938 492.6001498 -0.01085241 528.4434915 -0.0126946 C532.35705479 -0.0128942 536.27061809 -0.0130852 540.18418139 -0.01327715 C551.98093762 -0.01385837 563.77769384 -0.01445225 575.57445007 -0.01507235 C611.54497901 -0.01696115 647.51550795 -0.01816182 683.48603693 -0.01876896 C684.28685714 -0.01878269 685.08767735 -0.01879643 685.91276484 -0.01881058 C737.75380901 -0.01968769 789.59485256 -0.0174884 841.43589655 -0.0130698 C842.26314079 -0.01299956 843.09038504 -0.01292932 843.9426973 -0.01285696 C871.64898736 -0.01050445 899.35527741 -0.00799222 927.06156746 -0.0054637 C1010.83821636 0.00217671 1094.61486303 0.00636434 1244.23172424 -0.00569436 C1271.93111915 -0.00822089 1299.63051407 -0.010718 1327.329909 -0.0130698 C1328.15692268 -0.01314029 1328.98393636 -0.01321078 1329.83601107 -0.0132834 C1381.650597 -0.01769595 1433.4651825 -0.01965776 1485.27976862 -0.01876896 C1486.48059395 -0.01874869 1486.48059395 -0.01874869 1487.70567838 -0.01872801 C1523.65643784 -0.01811449 1559.60719725 -0.01683772 1595.55795666 -0.01494795 C1607.34941554 -0.01432889 1619.14087444 -0.01374021 1630.93233333 -0.01316185 C1634.84363642 -0.01296987 1638.75493951 -0.01277516 1642.6662426 -0.01257413 C1678.50857275 -0.0107376 1714.35090215 -0.01019969 1750.19323221 -0.01383369 C1750.96523461 -0.01391163 1751.737237 -0.01398958 1752.53263341 -0.01406988 C1762.63171136 -0.01509337 1772.7307893 -0.01617867 1782.82986724 -0.01727153 C1783.59544265 -0.01735435 1784.36101806 -0.01743718 1785.14979272 -0.01752252 C1786.69432699 -0.01768964 1788.23886126 -0.0178569 1789.78339553 -0.01802431 C1825.05647898 -0.02183755 1860.3295611 -0.02443938 1895.60264459 -0.01982896 C1896.67770733 -0.0196889 1896.67770733 -0.0196889 1897.77448851 -0.01954601 C1913.41599048 -0.01748503 1929.05749231 -0.01484552 1944.69899409 -0.0116384 C1950.93851327 -0.01036674 1957.17803247 -0.0091655 1963.41755167 -0.00798481 C1964.09814342 -0.00785397 1964.77873516 -0.00772314 1965.47995091 -0.00758835 C1987.66521033 -0.00335719 2009.85046196 -0.00581395 2032.03572101 -0.01152282 C2053.19650449 -0.01682501 2074.35727736 -0.01493512 2095.5180595 -0.00549464 C2107.90877072 -0.00017699 2120.29945281 -0.0002343 2132.69016261 -0.00845784 C2140.94083451 -0.01337994 2149.19148394 -0.01092782 2157.44215315 -0.00272413 C2162.10516678 0.00171367 2166.76812284 0.00326573 2171.43113367 -0.00435716 C2200.9575649 -0.04927067 2230.5203964 0.62411042 2259.88290277 4.00481732 C2260.62297571 4.08751873 2261.36304865 4.17022015 2262.12554804 4.25542767 C2323.53735364 11.16505031 2384.79251889 26.19391494 2441.38290277 51.25481732 C2442.81859613 51.88806927 2442.81859613 51.88806927 2444.2832934 52.53411419 C2499.95287846 77.23076134 2551.98836831 109.02226645 2598.31259027 148.65325482 C2601.06024322 150.99739433 2603.87090506 153.25365048 2606.69540277 155.50481732 C2612.9133486 160.56256334 2618.68356824 166.07536912 2624.49618402 171.58684857 C2627.6217323 174.54936414 2630.80059755 177.44323861 2634.00790277 180.31731732 C2640.07180395 185.8542864 2645.8828066 191.64419462 2651.69540277 197.44231732 C2652.17189264 197.91621899 2652.64838251 198.39012066 2653.13931146 198.87838299 C2658.2034867 203.92083809 2663.15025479 209.00338532 2667.80258051 214.42937787 C2670.36643391 217.39089986 2673.07055036 220.21832892 2675.75790277 223.06731732 C2680.42848293 228.05892478 2684.87907754 233.15725519 2689.15243402 238.49700482 C2691.16259523 240.98242305 2693.22490129 243.41338628 2695.31210199 245.83416302 C2701.53771096 253.0717356 2707.28557714 260.61344255 2712.94051996 268.3021806 C2714.26606772 270.09665097 2715.60623745 271.87875387 2716.95321527 273.65716107 C2723.1253989 281.86143205 2728.8720404 290.34309437 2734.57040277 298.87981732 C2734.94835993 299.44496045 2735.32631708 300.01010357 2735.71572748 300.59237225 C2782.64988513 370.87368997 2814.60748462 449.9624796 2838.07040277 596.19231732 C2838.16194635 597.23517392 2838.16194635 597.23517392 2838.2553393 598.29909832 C2840.32160944 622.22865394 2840.53030686 646.12350475 2840.51288264 670.12419024 C2840.51055717 674.87959602 2840.514098 679.63499834 2840.51684946 684.3904034 C2840.52088518 692.74044704 2840.52123719 701.09048445 2840.51914352 709.44052872 C2840.5160264 721.94107381 2840.51868901 734.44161323 2840.52244222 746.94215791 C2840.52866892 768.25094382 2840.53014938 789.55972769 2840.52902475 810.86851437 C2840.52789967 832.45789727 2840.52892919 854.04727827 2840.53259722 875.63666089 C2840.53282921 877.01494502 2840.53306118 878.39322916 2840.53329313 879.77151329 C2840.53423271 885.32910307 2840.53518901 890.88669284 2840.53616432 896.4442826 C2840.53890922 912.10859397 2840.54128879 927.77290537 2840.54341629 943.43721683 C2840.54351384 944.15492907 2840.54361139 944.87264132 2840.5437119 945.61210242 C2840.54921335 986.40147143 2840.5495214 1027.19084052 2840.54993276 1067.98020983 C2840.54999601 1074.21410435 2840.55006253 1080.44799887 2840.55013331 1086.68189338 C2840.55015101 1088.24444477 2840.55016838 1089.80699616 2840.55018543 1091.36954755 C2840.55057346 1126.46029112 2840.55275295 1161.55103449 2840.55531569 1196.64177797 C2840.55588725 1204.47701716 2840.55644123 1212.31225635 2840.55699632 1220.14749554 C2840.55705144 1220.92526539 2840.55710656 1221.70303525 2840.55716336 1222.50437388 C2840.55749786 1227.22566072 2840.55783163 1231.94694756 2840.55816492 1236.66823439 C2840.558332 1239.03340615 2840.55849951 1241.39857791 2840.55866706 1243.76374968 C2840.56126881 1280.53649788 2840.56349915 1317.30924611 2840.56534925 1354.08199437 C2840.56538962 1354.88318744 2840.56542999 1355.68438052 2840.56547159 1356.50985218 C2840.56803428 1407.55625403 2840.56893414 1458.60265577 2840.56867125 1509.64905769 C2840.5686585 1512.15868951 2840.56864654 1514.66832134 2840.56863484 1517.17795317 C2840.5685525 1534.80846169 2840.5684498 1552.43897022 2840.56834196 1570.06947874 C2840.56831119 1575.12434708 2840.56828113 1580.17921541 2840.56825115 1585.23408374 C2840.56822605 1589.45049965 2840.56820027 1593.66691556 2840.56817304 1597.88333147 C2840.56766169 1677.50862543 2840.56907773 1757.13391837 2840.57852045 1836.75921185 C2840.57866949 1838.01642252 2840.57866949 1838.01642252 2840.57882154 1839.29903139 C2840.58193289 1865.48660459 2840.58529938 1891.67417775 2840.58871332 1917.86175091 C2840.59221489 1944.73331831 2840.59568542 1971.60488571 2840.59897772 1998.47645314 C2840.59907924 1999.30390133 2840.59918077 2000.13134953 2840.59928537 2000.98387191 C2840.6056372 2052.82676003 2840.60955691 2104.66964786 2840.6108357 2156.51253636 C2840.61085573 2157.31355614 2840.61087576 2158.11457592 2840.61089639 2158.93986902 C2840.61177183 2194.12306366 2840.61209145 2229.30625829 2840.61180551 2264.48945293 C2840.61169123 2278.64475875 2840.61163516 2292.80006457 2840.61160219 2306.95537039 C2840.61159579 2309.30228576 2840.61158671 2311.64920113 2840.61157704 2313.9961165 C2840.61144065 2349.86544639 2840.61278003 2385.73477536 2840.61862222 2421.60410483 C2840.61881072 2422.7631107 2840.61881072 2422.7631107 2840.61900304 2423.94553084 C2840.62103186 2436.37352267 2840.62317594 2448.80151447 2840.62532985 2461.22950628 C2840.6314439 2496.53630235 2840.63647964 2531.84309716 2840.63435868 2567.14989383 C2840.63431596 2567.86731159 2840.63427325 2568.58472936 2840.63422924 2569.32388705 C2840.63327556 2584.98111982 2840.63175936 2600.63835249 2840.62969253 2616.29558515 C2840.62887628 2622.54150972 2840.62813263 2628.7874343 2840.62741152 2635.03335888 C2840.62733086 2635.71465315 2840.62725021 2636.39594742 2840.62716712 2637.09788698 C2840.62457332 2659.30639203 2840.62869373 2681.51488876 2840.6360827 2703.72339268 C2840.64298958 2724.90674378 2840.64271088 2746.09008483 2840.63489057 2767.27343571 C2840.63052326 2779.67769755 2840.63154697 2792.08192974 2840.64075735 2804.4861891 C2840.64633677 2812.74596478 2840.64453439 2821.00571856 2840.63697457 2829.26549259 C2840.6329013 2833.93372238 2840.63171912 2838.60189425 2840.63972526 2843.27012028 C2840.68702826 2872.80780347 2840.01490565 2902.38105502 2836.63290277 2931.75481732 C2836.55020136 2932.49489026 2836.46749994 2933.23496319 2836.38229242 2933.99746258 C2828.43293373 3004.6503037 2809.05619237 3073.08333033 2778.38290277 3137.25481732 C2777.8585766 3138.35406537 2777.33425043 3139.45331341 2776.79403559 3140.58587201 C2768.2262775 3158.42482489 2758.7415825 3175.40480808 2748.38290277 3192.25481732 C2747.84955316 3193.12928509 2747.31620355 3194.00375287 2746.76669184 3194.90471966 C2734.80242618 3214.47800919 2721.57602778 3233.23771727 2707.38290277 3251.25481732 C2706.63524652 3252.20485638 2705.88759027 3253.15489544 2705.11727777 3254.13372357 C2703.22043303 3256.51971528 2701.30651628 3258.89037572 2699.38290277 3261.25481732 C2698.70227777 3262.09786419 2698.02165277 3262.94091107 2697.32040277 3263.80950482 C2687.87119189 3275.45228251 2678.07575624 3286.7312431 2667.83895746 3297.68548138 C2666.00345297 3299.66378837 2664.19942478 3301.67016235 2662.38973871 3303.67205365 C2656.16753702 3310.51757483 2649.66459298 3317.08173489 2643.13290277 3323.62981732 C2642.66104547 3324.10426281 2642.18918817 3324.57870831 2641.70303217 3325.06753094 C2636.67999967 3330.11229635 2631.61531552 3335.03747972 2626.21053949 3339.67229779 C2623.2484711 3342.2371024 2620.42014644 3344.94175248 2617.57040277 3347.62981732 C2612.57879531 3352.30039748 2607.4804649 3356.75099209 2602.14071527 3361.02434857 C2599.65529704 3363.03450978 2597.22433381 3365.09681584 2594.80355707 3367.18401654 C2587.56598449 3373.4096255 2580.02427754 3379.15749168 2572.33553949 3384.81243451 C2570.54106912 3386.13798226 2568.75896622 3387.478152 2566.98055902 3388.82512982 C2546.75887144 3404.04411717 2525.25488827 3417.56048848 2503.38290277 3430.25481732 C2502.60785394 3430.70727826 2501.83280512 3431.15973919 2501.03426996 3431.62591107 C2428.45175933 3473.77694845 2345.67999125 3499.19966611 2181.73046747 3512.38853009 C2179.4162986 3512.39040298 2177.10213005 3512.39270557 2174.78796199 3512.39539541 C2168.48756927 3512.40146079 2162.18718992 3512.40138609 2155.88679496 3512.40020103 C2149.77071783 3512.40001683 2143.65464556 3512.40452204 2137.53857024 3512.40881392 C2123.49968122 3512.4184415 2109.46079588 3512.42129644 2095.42190395 3512.42187098 C2084.57169768 3512.4223321 2073.72149283 3512.42439861 2062.87128702 3512.42757161 C2059.73795934 3512.42846927 2056.60463166 3512.42935909 2053.47130397 3512.43024648 C2052.69214913 3512.43046753 2051.91299428 3512.43068858 2051.11022868 3512.43091633 C2029.21922537 3512.43706321 2007.32822255 3512.44101764 1985.43721834 3512.44057305 C1984.61331898 3512.44055747 1983.78941962 3512.44054189 1982.94055362 3512.44052584 C1978.76554712 3512.44044274 1974.59054062 3512.4403437 1970.41553413 3512.44024113 C1969.58649829 3512.44022119 1968.75746245 3512.44020124 1967.90330431 3512.44018069 C1966.22679398 3512.44014025 1964.55028364 3512.44009846 1962.87377331 3512.4400553 C1936.80926531 3512.439443 1910.74477033 3512.44694382 1884.68026605 3512.46062787 C1855.33420591 3512.47602874 1825.98815432 3512.48459168 1796.64208988 3512.48366464 C1793.50561864 3512.48359002 1790.36914741 3512.48354131 1787.23267618 3512.48351033 C1786.46051223 3512.48349867 1785.68834828 3512.48348702 1784.89278543 3512.48347501 C1772.53234647 3512.48344439 1760.17191893 3512.4897968 1747.81148336 3512.49844259 C1735.36239907 3512.50696956 1722.91333127 3512.50786992 1710.46424566 3512.50133327 C1703.73635828 3512.49799001 1697.00851673 3512.49793752 1690.28063074 3512.50668652 C1610.16593069 3512.60418889 1610.16593069 3512.60418889 1577.25790277 3501.87981732 C1575.58582758 3501.33538983 1575.58582758 3501.33538983 1573.87997309 3500.7799638 C1555.94122169 3494.65640713 1541.09489356 3484.79184768 1532.40634027 3467.45403607 C1521.08986635 3443.4570885 1519.92099567 3417.30418052 1519.99763361 3391.19208844 C1519.99361549 3388.76125932 1519.98828283 3386.33043209 1519.98176786 3383.89960838 C1519.970658 3378.66188518 1519.96855779 3373.42424297 1519.97482744 3368.18651516 C1519.98408734 3360.39673854 1519.97590174 3352.60704471 1519.96433035 3344.81727458 C1519.94528406 3331.69829621 1519.93967842 3318.57934572 1519.9416472 3305.46035511 C1519.94349398 3292.46534077 1519.93821748 3279.47035769 1519.92396608 3266.47535069 C1519.9230762 3265.66384496 1519.92218633 3264.85233922 1519.92126948 3264.01624241 C1519.9166986 3259.89348651 1519.91198159 3255.7707308 1519.90719465 3251.64797515 C1519.89749958 3243.26669158 1519.88876618 3234.88540702 1519.88033262 3226.50412209 C1519.87948837 3225.66532372 1519.87864411 3224.82652535 1519.87777428 3223.96230885 C1519.8579623 3204.03548258 1519.84794321 3184.10865301 1519.8392016 3164.18181927 C1519.8386246 3162.87553997 1519.8386246 3162.87553997 1519.83803595 3161.54287118 C1519.83492046 3154.48826981 1519.83182937 3147.43366843 1519.82877824 3140.37906703 C1519.81998561 3120.08642852 1519.80876091 3099.79379174 1519.79623285 3079.50115521 C1519.7956995 3078.63215994 1519.79516615 3077.76316467 1519.79461664 3076.86783621 C1519.78237802 3056.99077138 1519.76805262 3037.11371003 1519.74867979 3017.23665078 C1519.74786493 3016.39895944 1519.74705007 3015.56126811 1519.74621052 3014.69819219 C1519.73803911 3006.32996263 1519.72960109 2997.96173339 1519.72072063 2989.59350454 C1519.70181508 2971.68779009 1519.68874924 2953.7820977 1519.68772588 2935.87637274 C1519.68692785 2922.81486281 1519.67945214 2909.75337154 1519.66519614 2896.69186922 C1519.6577163 2889.6336003 1519.65341585 2882.57536514 1519.65831438 2875.51709301 C1519.70103352 2834.34526971 1519.70103352 2834.34526971 1517.38290277 2793.25481732 C1517.30329998 2792.31798961 1517.22369718 2791.38116191 1517.14168218 2790.41594548 C1516.71754735 2785.53853967 1516.2155764 2780.6790392 1515.63290277 2775.81731732 C1515.55020136 2775.1152113 1515.46749994 2774.41310528 1515.38229242 2773.68972332 C1505.55264581 2690.89200487 1477.92546589 2608.35196768 1413.69540277 2543.37981732 C1413.19951654 2542.8827528 1412.70363031 2542.38568829 1412.19271723 2541.87356121 C1407.2474091 2536.45812937 1407.2474091 2536.45812937 1401.38290277 2532.25481732 C1401.38290277 2531.59481732 1401.38290277 2530.93481732 1401.38290277 2530.25481732 C1402.07065286 2530.17457821 1402.75840296 2530.09433911 1403.46699396 2530.01166851 C1457.762321 2523.65986885 1511.79138174 2516.18802902 1565.38290277 2505.25481732 C1566.54166925 2505.01952313 1566.54166925 2505.01952313 1567.72384516 2504.77947552 C1632.97673112 2491.50712022 1696.3474748 2473.03001221 1757.38290277 2446.25481732 C1758.02751459 2445.97269391 1758.67212641 2445.69057049 1759.33627191 2445.39989788 C1789.93145916 2431.99109457 1820.12221056 2417.4652136 1848.99081293 2400.63225872 C1852.0115964 2398.89279554 1855.0707003 2397.23022639 1858.1348559 2395.56878216 C1894.33832951 2375.87363957 1928.48571488 2351.4857469 1959.7442309 2324.65520794 C1961.39222424 2323.2468513 1963.05029954 2321.85124874 1964.71102777 2320.45794232 C1977.71837702 2309.50192461 1989.95997432 2297.7504933 2002.00790277 2285.75481732 C2002.7417016 2285.02569134 2003.47550043 2284.29656537 2004.23153559 2283.54534466 C2008.25258735 2279.51229802 2012.09683766 2275.38150404 2015.81503168 2271.0678056 C2017.9108584 2268.64432238 2020.08389334 2266.29566423 2022.25790277 2263.94231732 C2027.17884374 2258.53965774 2031.80707653 2252.95034004 2036.38290277 2247.25481732 C2037.29481266 2246.14604434 2038.20761411 2245.03800418 2039.12118402 2243.93059857 C2097.4061274 2172.81963875 2133.98899169 2084.01522313 2201.38290277 1742.25481732 C2201.46905574 1740.80713824 2201.55532709 1739.3594662 2201.64169184 1737.91179974 C2202.71789915 1718.47930271 2202.60568126 1699.01158661 2202.62313715 1679.55584271 C2202.62749356 1675.42717071 2202.64130053 1671.298711 2202.66415277 1667.17010052 C2202.84888178 1633.05572957 2201.70689568 1599.15551366 2197.07040277 1565.31731732 C2196.9668548 1564.53670941 2196.86330683 1563.7561015 2196.75662103 1562.9518388 C2186.79422808 1487.9694612 2165.17629468 1414.7733471 2130.50643793 1347.43987591 C2129.68953006 1345.85114808 2128.87732679 1344.25999848 2128.06796137 1342.66741497 C2110.36002237 1307.84078916 2088.92811558 1275.00310025 2064.90145746 1244.20257122 C2063.44370641 1242.33280629 2061.99456695 1240.45666358 2060.54696527 1238.57903607 C2050.71856615 1225.88584126 2040.1883522 1213.80649127 2029.30868402 1202.00481732 C2028.67317621 1201.30356732 2028.0376684 1200.60231732 2027.38290277 1199.87981732 C2026.82602777 1199.27395794 2026.26915277 1198.66809857 2025.69540277 1198.04387982 C2024.17271028 1195.96830493 2023.71528638 1194.81101867 2023.38290277 1192.25481732 C2024.13632074 1189.52288372 2024.13632074 1189.52288372 2025.37509027 1186.35637982 C2025.82851801 1185.17044232 2026.28194574 1183.98450482 2026.74911371 1182.76262982 C2026.9949621 1182.13131146 2027.24081049 1181.4999931 2027.49410883 1180.84954388 C2050.19437726 1122.30846485 2060.59688474 1059.78654939 2060.63290277 997.12981732 C2060.63357752 996.06267498 2060.63425226 994.99553265 2060.63494745 993.89605267 C2060.61440652 973.23302592 2059.61330636 952.79565816 2057.38290277 932.25481732 C2057.25915277 931.11514508 2057.25915277 931.11514508 2057.13290277 929.95244915 C2049.68421575 862.47379073 2032.23463281 794.73663774 2006.04696527 732.06853802 C2005.38290277 730.25481732 2005.38290277 730.25481732 2005.38290277 728.25481732 C1911.92275877 703.9895127 1805.74041472 756.3662662 1688.38290277 811.25481732 C1687.06515863 811.89217816 1687.06515863 811.89217816 1685.7207934 812.54241497 C1673.89637123 818.27512388 1662.42943169 824.5134451 1651.02743402 831.04387982 C1646.70922723 833.51414919 1642.35708335 835.90870918 1637.97738519 838.26775677 C1619.57814047 848.20174396 1601.96871045 859.47510577 1584.50692621 870.95867474 C1578.13653336 875.14042218 1571.69535145 879.17383929 1565.17367426 883.11443646 C1557.24717507 887.9141396 1549.44468158 892.9058864 1541.63680902 897.89544232 C1540.77458734 898.4374931 1539.91236566 898.97954388 1539.02401605 899.53802044 C1537.19076397 900.72968514 1535.39362857 901.97805199 1533.62850824 903.26848919 C1525.80330957 908.8141436 1525.80330957 908.8141436 1520.89462152 908.50481732 C1519.043859 908.15305252 1517.20751279 907.72370822 1515.38290277 907.25481732 C1514.74241999 907.09900189 1514.1019372 906.94318646 1513.44204584 906.78264935 C1508.57678855 905.59730128 1503.74260632 904.30939811 1498.91137567 902.99300702 C1451.97891925 890.23696818 1404.32833794 880.35349885 1356.38290277 872.25481732 C1355.53568659 872.11150982 1354.6884704 871.96820233 1353.815581 871.82055218 C1287.58281562 860.66393382 1220.51199993 853.69486004 1153.38290277 851.25481732 C1152.29071436 851.21351696 1151.19852594 851.17221661 1150.07324091 851.12966473 C1128.61125765 850.33140213 1107.17128753 850.05105916 1085.69540277 850.06731732 C1084.89793257 850.06758419 1084.10046236 850.06785107 1083.27882639 850.06812603 C974.94045848 850.11334992 867.18499796 860.61222856 656.60800043 906.37664349 C655.26681146 906.75719891 655.26681146 906.75719891 653.89852777 907.14544232 C653.15892816 907.36232708 652.41932855 907.57921185 651.65731684 907.80266888 C647.21250295 908.68628796 644.38682761 908.77981282 640.29696527 906.64104779 C638.66887934 905.51787152 638.66887934 905.51787152 637.00790277 904.37200482 C636.41025614 903.9660458 635.8126095 903.56008679 635.19685236 903.14182599 C633.91619998 902.26982625 632.63976725 901.39160269 631.36724726 900.50777752 C628.68310437 898.64386623 625.97858208 896.8105656 623.27485529 894.97523053 C621.91122065 894.0491193 620.54864074 893.12145318 619.18711725 892.19224102 C613.46679513 888.2912563 607.67326052 884.51676514 601.82040277 880.81731732 C600.93820062 880.25939495 600.05599848 879.70147259 599.14706293 879.12664349 C596.562214 877.49752293 593.97357001 875.87466714 591.38290277 874.25481732 C590.55129633 873.73435833 589.71968988 873.21389935 588.86288324 872.67766888 C582.72090805 868.84057392 576.55629683 865.04111125 570.38290277 861.25481732 C569.27543695 860.57451458 568.16797113 859.89421185 567.02694574 859.19329388 C552.98397576 850.57305448 538.9442699 841.98067088 524.38290277 834.25481732 C523.41127191 833.73887005 522.43964105 833.22292279 521.43856684 832.69134076 C433.91452298 786.4084343 332.25716367 738.08773927 175.38290277 725.25481732 C174.14540277 725.37985638 172.90790277 725.50489544 171.63290277 725.63372357 C168.14691727 726.12783089 165.55209015 726.73005335 162.38290277 728.25481732 C160.80817687 730.5395054 160.80817687 730.5395054 159.87899652 733.40325482 C159.47245844 734.48558392 159.06592035 735.56791302 158.64706293 736.68303997 C158.22989008 737.8617265 157.81271723 739.04041302 157.38290277 740.25481732 C156.93608148 741.46057415 156.48926019 742.66633099 156.02889887 743.90862591 C154.54472168 747.92686928 153.11473352 751.96327862 151.69540277 756.00481732 C151.43689539 756.73958294 151.178388 757.47434857 150.91204706 758.23137982 C126.7516036 827.06743734 110.32865947 899.02030239 107.82040277 972.12981732 C107.77721918 973.26805951 107.73403559 974.40630169 107.6895434 975.57903607 C107.15728104 990.63445698 107.36358291 1005.59149035 108.13290277 1020.62981732 C108.17580438 1021.46908764 108.218706 1022.30835797 108.26290766 1023.17306073 C111.11943018 1077.41316482 121.48994729 1132.52263475 141.88876215 1183.03264935 C142.3560473 1184.19006634 142.82333246 1185.34748333 143.30477777 1186.53997357 C143.72855707 1187.55067913 144.15233637 1188.5613847 144.58895746 1189.60271771 C145.43891557 1192.44192281 145.55616733 1193.56992835 144.38290277 1196.25481732 C143.1270434 1197.91131146 143.1270434 1197.91131146 141.53915277 1199.53997357 C140.95689936 1200.14728314 140.37464594 1200.75459271 139.77474848 1201.3803056 C139.15043939 1202.01951947 138.52613031 1202.65873333 137.88290277 1203.31731732 C132.87674796 1208.55680181 128.10217547 1213.86469063 123.57821527 1219.53216107 C121.58288607 1222.00679533 119.53256563 1224.42389439 117.45663324 1226.83098919 C111.29102126 1233.99778015 105.59693197 1241.46169464 99.99374262 1249.07317669 C98.31683976 1251.34428975 96.62633822 1253.60479912 94.93368402 1255.86419232 C87.04486331 1266.42835223 79.54589192 1277.18625958 72.38290277 1288.25481732 C71.89080316 1289.01230267 71.39870355 1289.76978802 70.89169184 1290.55022747 C57.38693496 1311.40484065 45.56656132 1333.07792905 34.38290277 1355.25481732 C33.86196039 1356.28590619 33.34101801 1357.31699505 32.80428949 1358.37932904 C23.99507477 1375.93829416 16.47216481 1393.94837595 9.38290277 1412.25481732 C8.93704828 1413.40224408 8.49119379 1414.54967083 8.03182855 1415.7318681 C-11.87795894 1467.59223344 -23.7345607 1522.89345847 -29.92959723 1578.00481732 C-30.07687262 1579.30797894 -30.22414801 1580.61114056 -30.37588629 1581.95379193 C-30.84089234 1586.38414523 -31.23934329 1590.81633842 -31.61709723 1595.25481732 C-31.70356512 1596.2226112 -31.79003302 1597.19040509 -31.87912115 1598.18752606 C-33.82780286 1620.59393714 -33.92824385 1642.95027441 -33.87783941 1665.42693646 C-33.86652968 1670.5107627 -33.87317643 1675.59437749 -33.88471636 1680.67819626 C-33.95093326 1715.09204589 -32.88566386 1749.40543485 -29.80459723 1783.69231732 C-29.72028448 1784.65131939 -29.63597174 1785.61032147 -29.54910406 1786.59838421 C-21.82832402 1874.075071 -5.22779842 1960.38515862 56.70028559 2122.68401654 C58.26047571 2125.99500619 59.80390838 2129.31327819 61.34384027 2132.63372357 C74.92007472 2161.69962147 91.03825137 2189.92696911 109.38290277 2216.25481732 C110.01953852 2217.17061566 110.01953852 2217.17061566 110.66903559 2218.10491497 C113.52303785 2222.19238899 116.43755063 2226.23281211 119.38290277 2230.25481732 C120.07851312 2231.20952923 120.07851312 2231.20952923 120.78817621 2232.18352826 C127.05352825 2240.75915039 133.57707266 2248.99759053 140.56259027 2256.99700482 C143.18368719 2260.00193695 145.69708941 2263.08424612 148.19540277 2266.19231732 C151.16054776 2269.84665816 154.22429108 2273.2290971 157.61630121 2276.48723919 C159.31279326 2278.18466905 160.85961618 2279.93985401 162.41024652 2281.77044232 C166.68170522 2286.68408574 171.25944921 2291.28201885 175.87093988 2295.87322552 C177.31814663 2297.31506953 178.75992303 2298.76218847 180.20126215 2300.20989544 C184.88526129 2304.89725588 189.62689029 2309.464128 194.66000238 2313.77703412 C197.0599567 2315.83554672 199.37309437 2317.9844811 201.69540277 2320.12981732 C207.0977046 2325.04977077 212.67067454 2329.70026734 218.38290277 2334.25481732 C218.90722894 2334.67344037 219.43155512 2335.09206341 219.97176996 2335.52337201 C251.60528964 2360.72928934 284.97184696 2382.69936595 320.38290277 2402.25481732 C321.26929437 2402.74949505 322.15568598 2403.24417279 323.06893793 2403.75384076 C403.86973812 2448.81837604 489.70017926 2480.92221699 764.38290277 2530.25481732 C762.70393087 2533.83081208 760.75774652 2536.08633879 757.91024652 2538.85247357 C757.00983637 2539.73741497 756.10942621 2540.62235638 755.1817309 2541.53411419 C753.30189568 2543.36262286 751.42169843 2545.19075942 749.5411059 2547.01848919 C743.35017423 2553.10411799 737.74749353 2559.43218281 732.38290277 2566.25481732 C731.66807733 2567.1426994 731.66807733 2567.1426994 730.93881098 2568.04851849 C696.46549961 2610.87899625 675.55851996 2662.65418263 662.75790277 2715.69231732 C662.45706781 2716.91209271 662.15623285 2718.1318681 661.84628168 2719.38860638 C660.17787113 2726.52789431 659.09824038 2733.4630823 658.49227777 2740.77044232 C656.38872328 2763.98338394 656.38872328 2763.98338394 651.07870355 2769.76262982 C645.20091291 2773.81383529 638.71237079 2775.66221679 631.8404223 2777.35540326 C627.30951823 2778.53403979 623.02765173 2780.18336089 618.66317621 2781.86370404 C613.61410729 2783.78972615 608.4988041 2785.51603313 603.38290277 2787.25481732 C602.58320062 2787.53132122 601.78349848 2787.80782513 600.95956293 2788.09270794 C570.90461384 2798.42266652 539.47454684 2804.49383571 508.00790277 2808.44231732 C506.18657831 2808.67483197 506.18657831 2808.67483197 504.32845941 2808.91204388 C480.86250788 2811.69359769 457.30138261 2812.62831732 433.68636957 2812.62542279 C431.01963037 2812.62835919 428.35473818 2812.63931792 425.68832269 2812.66643841 C400.30215997 2812.92009985 375.79112245 2810.43254312 351.38290277 2803.25481732 C350.56225336 2803.01424603 349.74160394 2802.77367474 348.89608637 2802.52581341 C319.40294006 2793.68412409 291.75784783 2779.59165558 266.38290277 2762.25481732 C265.47967279 2761.6409013 265.47967279 2761.6409013 264.55819574 2761.01458294 C251.34209735 2751.97333028 238.93434871 2741.86035866 227.24227777 2730.92669232 C225.31024769 2729.12135273 223.3720896 2727.34092652 221.39852777 2725.58294232 C213.90748601 2718.88931054 207.04557795 2711.7701757 200.38290277 2704.25481732 C199.64837885 2703.42941449 199.64837885 2703.42941449 198.89901605 2702.58733685 C178.40258452 2679.4418446 161.11335992 2653.89072959 145.5020434 2627.26140912 C138.26282834 2614.91422424 130.75730991 2602.87256924 122.38290277 2591.25481732 C121.88339105 2590.55856244 121.38387934 2589.86230755 120.8692309 2589.14495404 C113.5751915 2579.03621218 105.71542728 2569.521664 97.38290277 2560.25481732 C96.61695795 2559.40210247 96.61695795 2559.40210247 95.83553949 2558.53216107 C86.25557981 2547.9144494 76.40645893 2537.39228331 65.38290277 2528.25481732 C64.85277582 2527.81089642 64.32264887 2527.36697552 63.77645746 2526.90960247 C48.13394459 2513.84037171 31.69621819 2502.00885755 14.38290277 2491.25481732 C13.46654047 2490.68505169 12.55017816 2490.11528607 11.6060473 2489.52825482 C-7.754855 2477.55703419 -27.42705893 2466.32324399 -48.55459723 2457.75481732 C-49.97192145 2457.17703534 -49.97192145 2457.17703534 -51.41787848 2456.58758099 C-67.39971718 2450.34399109 -83.83205768 2447.01561896 -100.74209723 2444.44231732 C-102.22478598 2444.21344326 -102.22478598 2444.21344326 -103.73742804 2443.97994549 C-118.47640883 2441.72905659 -132.69326584 2440.1222831 -147.61709723 2441.25481732 C-148.48431402 2441.30847454 -149.35153082 2441.36213177 -150.24502691 2441.41741497 C-167.21237545 2442.50410193 -186.17517364 2444.51769758 -199.67959723 2455.81731732 C-200.31897223 2456.62169232 -200.95834723 2457.42606732 -201.61709723 2458.25481732 C-202.21522223 2458.97669232 -202.81334723 2459.69856732 -203.42959723 2460.44231732 C-205.53870475 2465.43757198 -205.84349236 2469.90481748 -203.94766363 2475.0834306 C-198.554548 2487.61109109 -191.06278281 2499.00713326 -181.76162848 2508.95794232 C-179.84850177 2511.0069742 -178.0419868 2513.10697773 -176.24209723 2515.25481732 C-163.35034286 2529.90055187 -146.57495477 2541.24997385 -129.50772223 2550.47747357 C-107.22377281 2562.578628 -88.4451304 2578.238509 -70.53042731 2596.15618451 C-69.05753751 2597.62688142 -67.57679457 2599.08935266 -66.09561285 2600.55169232 C-59.82706063 2606.78328059 -54.09966412 2613.3158473 -48.61709723 2620.25481732 C-47.61520705 2621.48562784 -46.61156832 2622.71501929 -45.60537848 2623.94231732 C-37.61190503 2633.80542091 -30.05200853 2643.96590762 -22.61709723 2654.25481732 C-22.08552008 2654.99022747 -21.55394293 2655.72563763 -21.00625738 2656.48333294 C4.00156746 2691.20727411 24.49122955 2728.17837808 41.57107416 2767.39617474 C42.6627765 2769.89557475 43.76510682 2772.39022879 44.86718622 2774.88506634 C50.51251391 2787.67592506 55.9291718 2800.51298585 60.94540277 2813.56731732 C72.00204357 2842.12714206 86.10397056 2868.40077499 105.38290277 2892.25481732 C106.17180902 2893.25512982 106.96071527 2894.25544232 107.77352777 2895.28606732 C113.61962571 2902.60420431 119.94255597 2909.4615432 126.38290277 2916.25481732 C127.09446527 2917.00891888 127.80602777 2917.76302044 128.53915277 2918.53997357 C132.90188805 2923.03680932 137.59741131 2926.9986358 142.48446527 2930.91497357 C145.37348471 2933.24721433 148.18761547 2935.65268778 151.00790277 2938.06731732 C225.82294667 3000.3650437 321.17278985 3017.84107406 558.18759027 3024.18841107 C582.81386771 3021.85609163 607.18868211 3017.15142723 631.52914301 3012.84588177 C632.9858642 3012.58872891 632.9858642 3012.58872891 634.4720141 3012.32638104 C636.31010098 3012.00142983 638.14792318 3011.67497692 639.98544184 3011.34682782 C646.16152803 3010.25481732 646.16152803 3010.25481732 648.38290277 3010.25481732 C648.64249472 3045.91257971 648.89758413 3081.57037167 649.14726731 3117.22820482 C649.17727981 3121.51384995 649.2073267 3125.79949484 649.23739496 3130.08513958 C649.24337619 3130.93772986 649.24935742 3131.79032014 649.2555199 3132.66874649 C649.3387068 3144.51649391 649.4237243 3156.36422689 649.51028994 3168.21195009 C649.83853724 3213.1471012 650.13829787 3258.08230774 650.37124601 3303.01806326 C650.38284402 3305.24354429 650.394622 3307.4690243 650.40645471 3309.69450409 C650.50051978 3327.42203057 650.57555795 3345.14939826 650.61407343 3362.87714894 C650.62496947 3367.71154383 650.64261451 3372.54583447 650.6666247 3377.38018162 C650.69382672 3382.93801187 650.70624788 3388.49567864 650.70703951 3394.05357368 C650.70963151 3396.04284725 650.71717614 3398.03212271 650.73050371 3400.02135332 C650.90550189 3427.5219885 646.6283943 3456.2070724 627.38290277 3477.25481732 C626.93205316 3477.75336224 626.48120355 3478.25190716 626.01669184 3478.76555951 C612.49447601 3493.54565587 596.09362668 3505.62588783 575.94701925 3508.83785946 C575.16022267 3508.96507186 574.37342608 3509.09228425 573.56278717 3509.22335156 C565.80858926 3510.42512882 558.06617924 3511.04790541 550.23203913 3511.426143 C549.0846 3511.48531126 549.0846 3511.48531126 547.91398028 3511.54567484 C524.55107041 3512.72310913 501.15020061 3512.53953601 477.76486829 3512.51626666 C471.62621268 3512.51215126 465.48757071 3512.51756981 459.34891696 3512.52256139 C446.05051969 3512.53299558 432.75214184 3512.53221947 419.4537428 3512.52640356 C407.81556505 3512.52133974 396.17739435 3512.52007413 384.53921572 3512.52244885 C383.37385909 3512.522678 383.37385909 3512.522678 382.1849599 3512.52291179 C379.02997102 3512.52353463 375.87498215 3512.52417145 372.71999329 3512.52483132 C343.22332197 3512.53092671 313.7266629 3512.52543836 284.22999348 3512.51463752 C258.11583624 3512.5051479 232.00169851 3512.50599899 205.88754144 3512.51555951 C176.43767086 3512.52630562 146.98781108 3512.53049508 117.53793881 3512.52433498 C114.38955056 3512.5236937 111.24116231 3512.52306801 108.09277407 3512.52244885 C107.31775864 3512.52229069 106.54274321 3512.52213254 105.74424246 3512.52196959 C94.12254613 3512.51970989 82.50085769 3512.52232645 70.87916246 3512.52740796 C57.64438742 3512.5331665 44.40963456 3512.53161255 31.17486223 3512.52084647 C24.44017008 3512.51554635 17.70552205 3512.51344681 10.97082773 3512.52014477 C-23.12864335 3512.55125635 -57.19294349 3512.41073799 -91.11709723 3508.50481732 C-91.85717016 3508.4221159 -92.5972431 3508.33941449 -93.35974249 3508.25420697 C-182.71004481 3498.20114199 -269.58490124 3469.88960127 -346.61709723 3423.25481732 C-347.54957281 3422.69230267 -348.4820484 3422.12978802 -349.44278082 3421.55022747 C-361.10508875 3414.4930255 -372.48844174 3407.12529578 -383.61709723 3399.25481732 C-384.22102301 3398.83103802 -384.82494879 3398.40725872 -385.44717535 3397.97063763 C-397.51495035 3389.50236618 -409.16057565 3380.53350173 -420.61709723 3371.25481732 C-421.46530035 3370.57032513 -422.31350348 3369.88583294 -423.18740973 3369.18059857 C-434.8231657 3359.73290749 -446.09815809 3349.94333927 -457.04776129 3339.71087201 C-459.02606827 3337.87536752 -461.03244226 3336.07133933 -463.03433356 3334.26165326 C-469.87985474 3328.03945157 -476.4440148 3321.53650753 -482.99209723 3315.00481732 C-483.46654272 3314.53296002 -483.94098822 3314.06110272 -484.42981085 3313.57494671 C-489.47457626 3308.55191422 -494.39975963 3303.48723006 -499.0345777 3298.08245404 C-501.5993823 3295.12038565 -504.30403239 3292.29206098 -506.99209723 3289.44231732 C-511.66267738 3284.45070986 -516.113272 3279.35237945 -520.38662848 3274.01262982 C-522.39678968 3271.52721158 -524.45909575 3269.09624835 -526.54629645 3266.67547162 C-532.77190541 3259.43789903 -538.51977159 3251.89619209 -544.17471441 3244.20745404 C-545.50026217 3242.41298367 -546.84043191 3240.63088077 -548.18740973 3238.85247357 C-554.35959335 3230.64820258 -560.10623486 3222.16654027 -565.80459723 3213.62981732 C-566.18255438 3213.06467419 -566.56051153 3212.49953106 -566.94992193 3211.91726239 C-619.26306421 3133.58121125 -651.43861564 3045.27086807 -669.30459723 2916.31731732 C-669.39600485 2915.2751405 -669.39600485 2915.2751405 -669.48925909 2914.2119096 C-671.55577107 2890.28189283 -671.76450167 2866.38660982 -671.74707709 2842.3854444 C-671.74475162 2837.63003862 -671.74829245 2832.8746363 -671.75104391 2828.11923124 C-671.75507963 2819.76918759 -671.75543165 2811.41915018 -671.75333797 2803.06910592 C-671.75022085 2790.56856082 -671.75288346 2778.06802141 -671.75663668 2765.56747672 C-671.76286338 2744.25869082 -671.76434383 2722.94990695 -671.76321921 2701.64112027 C-671.76209413 2680.05173737 -671.76312364 2658.46235636 -671.76679167 2636.87297375 C-671.76702366 2635.49468961 -671.76725563 2634.11640548 -671.76748759 2632.73812134 C-671.76842717 2627.18053157 -671.76938347 2621.6229418 -671.77035878 2616.06535203 C-671.77310367 2600.40104067 -671.77548324 2584.73672926 -671.77761075 2569.07241781 C-671.7777083 2568.35470556 -671.77780585 2567.63699332 -671.77790635 2566.89753221 C-671.7834078 2526.10816321 -671.78371585 2485.31879411 -671.78412721 2444.5294248 C-671.78419046 2438.29553029 -671.78425699 2432.06163577 -671.78432777 2425.82774125 C-671.78434546 2424.26518986 -671.78436283 2422.70263848 -671.78437989 2421.14008709 C-671.78476791 2386.04934351 -671.7869474 2350.95860014 -671.78951014 2315.86785667 C-671.79008171 2308.03261748 -671.79063569 2300.19737829 -671.79119078 2292.36213909 C-671.7912459 2291.58436924 -671.79130102 2290.80659939 -671.79135781 2290.00526076 C-671.79169232 2285.28397392 -671.79202608 2280.56268708 -671.79235937 2275.84140024 C-671.79252646 2273.47622848 -671.79269396 2271.11105672 -671.79286151 2268.74588496 C-671.79546326 2231.97313675 -671.79769361 2195.20038853 -671.79954371 2158.42764027 C-671.79958408 2157.62644719 -671.79962445 2156.82525411 -671.79966604 2155.99978246 C-671.80222873 2104.9533806 -671.80312859 2053.90697886 -671.80286571 2002.86057695 C-671.80285295 2000.35094512 -671.80284099 1997.8413133 -671.8028293 1995.33168147 C-671.80274696 1977.70117294 -671.80264425 1960.07066442 -671.80253642 1942.4401559 C-671.80250565 1937.38528756 -671.80247558 1932.33041923 -671.8024456 1927.27555089 C-671.80242051 1923.05913498 -671.80239472 1918.84271907 -671.80236749 1914.62630317 C-671.80185615 1835.00100921 -671.80327218 1755.37571626 -671.8127149 1675.75042279 C-671.81281426 1674.91228234 -671.81291362 1674.07414189 -671.81301599 1673.21060325 C-671.81612735 1647.02303005 -671.81949384 1620.83545688 -671.82290777 1594.64788372 C-671.82640934 1567.77631633 -671.82987988 1540.90474892 -671.83317217 1514.0331815 C-671.8332737 1513.2057333 -671.83337522 1512.37828511 -671.83347983 1511.52576272 C-671.83983166 1459.6828746 -671.84375137 1407.83998677 -671.84503016 1355.99709828 C-671.8450602 1354.79556861 -671.8450602 1354.79556861 -671.84509085 1353.56976561 C-671.84596628 1318.38657098 -671.8462859 1283.20337635 -671.84599996 1248.0201817 C-671.84588569 1233.86487588 -671.84582961 1219.70957006 -671.84579664 1205.55426424 C-671.84579024 1203.20734887 -671.84578116 1200.8604335 -671.84577149 1198.51351814 C-671.84563511 1162.64418824 -671.84697448 1126.77485927 -671.85281667 1090.90552981 C-671.85294234 1090.13285923 -671.85306801 1089.36018864 -671.85319749 1088.5641038 C-671.85522631 1076.13611197 -671.8573704 1063.70812016 -671.8595243 1051.28012835 C-671.86563835 1015.97333229 -671.87067409 980.66653747 -671.86855313 945.3597408 C-671.86851042 944.64232304 -671.8684677 943.92490528 -671.8684237 943.18574758 C-671.86747001 927.52851481 -671.86595382 911.87128215 -671.86388698 896.21404949 C-671.86307074 889.96812492 -671.86232708 883.72220034 -671.86160597 877.47627575 C-671.86152532 876.79498148 -671.86144467 876.11368721 -671.86136157 875.41174766 C-671.85876777 853.20324261 -671.86288819 830.99474588 -671.87027716 808.78624196 C-671.87718403 787.60289086 -671.87690533 766.41954981 -671.86908502 745.23619892 C-671.86471771 732.83193709 -671.86574142 720.42770489 -671.87495181 708.02344554 C-671.88053122 699.76366985 -671.87872884 691.50391608 -671.87116902 683.24414205 C-671.86709576 678.57591226 -671.86591357 673.90774039 -671.87391971 669.23951435 C-671.92122272 639.70183117 -671.2491001 610.12857962 -667.86709723 580.75481732 C-667.7430451 579.64470791 -667.7430451 579.64470791 -667.61648688 578.51217205 C-657.09413783 484.99093545 -626.3573961 394.84425094 -540.10342535 263.15423138 C-538.65708993 261.30592495 -537.22185812 259.44949841 -535.78897223 257.59075482 C-527.26495291 246.57772791 -518.2251923 236.02617917 -508.84756598 225.73137982 C-506.96663289 223.64291821 -505.11461583 221.53488014 -503.26944098 219.41497357 C-493.82903344 208.61085385 -483.80729387 198.34938766 -473.67959723 188.19231732 C-472.80416266 187.31229046 -471.92872809 186.43226361 -471.0267652 185.52556927 C-466.6327985 181.14207039 -462.17712741 176.9054849 -457.46890387 172.86150677 C-454.50079806 170.28627878 -451.6626458 167.57571589 -448.80459723 164.87981732 C-443.81298977 160.20923716 -438.71465935 155.75864255 -433.37490973 151.48528607 C-430.88949149 149.47512486 -428.45852826 147.4128188 -426.03775152 145.3256181 C-418.80017894 139.10000914 -411.258472 133.35214295 -403.56973395 127.69720013 C-401.77526357 126.37165237 -399.99316068 125.03148264 -398.21475348 123.68450482 C-390.01048249 117.51232119 -381.52882018 111.76567969 -372.99209723 106.06731732 C-372.4269541 105.68936016 -371.86181097 105.31140301 -371.2795423 104.92199261 C-293.52895845 52.99982783 -204.13496937 18.963328 -94.74209723 4.50481732 C-93.90014807 4.40358563 -93.05819891 4.30235394 -92.19073614 4.19805462 C-61.57019895 0.56703354 -30.79784645 -0.05034698 0 0 Z " fill="#FFFFFF" transform="translate(963.6170972269028,291.74518268182874)"/>
<path d="M0 0 C6.23567823 4.44558809 12.15805924 9.82953962 13.6796875 17.58984375 C14.61467532 25.99012492 12.89298715 32.90510737 8.1015625 39.890625 C3.71365723 45.29644523 -0.23936687 48.04081223 -7.13671875 48.96875 C-18.42463359 49.59511599 -28.73024788 46.13080092 -39.3203125 42.58984375 C-40.53976562 42.18378906 -41.75921875 41.77773437 -43.015625 41.359375 C-50.82816667 38.43216949 -58.51253397 33.87498285 -62.3828125 26.15234375 C-64.8385436 16.82056558 -62.683546 9.95773071 -58.2578125 1.578125 C-54.81416798 -3.93409764 -49.57482336 -6.98295303 -43.48046875 -9.02734375 C-28.67868834 -11.65044408 -12.72855457 -7.73570404 0 0 Z " fill="#FFFFFF" transform="translate(1311.3203125,3117.41015625)"/>
<path d="M0 0 C13.20390063 7.3547284 27.56628592 19.77847349 32.53125 34.3515625 C34.30699523 41.52463864 33.3878136 46.84451874 29.796875 53.3203125 C25.27929079 59.88558675 19.55701085 64.60789973 11.73046875 66.4765625 C3.38728014 67.35215951 -4.16333212 64.56235909 -10.875 59.75 C-13.48223346 57.57866338 -15.98235929 55.33292268 -18.45703125 53.01171875 C-20.62293345 50.98577792 -22.84655897 49.08403091 -25.125 47.1875 C-32.40795703 40.83146477 -38.17119982 32.88681972 -38.9296875 23.04296875 C-38.72573375 14.4914794 -33.13594647 8.82523936 -27.26171875 3.20703125 C-19.33423037 -3.77817169 -9.47609143 -4.31308043 0 0 Z " fill="#FFFFFF" transform="translate(1167.875,3033.25)"/>
<path d="M0 0 C6.58087053 5.61781631 9.7876965 11.09300905 10.8828125 19.70703125 C11.20756005 26.75405299 9.58541205 31.77338756 4.90234375 37.0625 C-6.63488096 48.05484551 -25.22967011 52.61586068 -40.81640625 52.40234375 C-48.23455456 51.79429881 -54.33714324 49.65216795 -59.4375 44.1875 C-64.70794232 35.68022655 -65.77641815 26.68052818 -64.01171875 16.8046875 C-61.56085056 9.13632692 -55.79300079 4.68357446 -48.9375 0.9375 C-33.91009742 -6.0878107 -15.02896497 -7.92436335 0 0 Z " fill="#FFFFFF" transform="translate(1590.4375,3118.8125)"/>
<path d="M0 0 C1.16402344 -0.02900391 2.32804687 -0.05800781 3.52734375 -0.08789062 C11.72784619 -0.14758073 20.12861271 0.52245823 26.71923828 5.92749023 C32.10535834 11.46050447 33.87456285 18.33058082 34.125 25.875 C33.86882514 33.84983476 31.52563851 39.66520901 25.75 45.3125 C12.17751164 54.16665549 -8.70259498 54.04153558 -24.33984375 51.88671875 C-30.40487689 50.36345157 -35.32524495 47.20711369 -39.25 42.3125 C-42.03074882 37.05214336 -42.77209484 32.7840816 -42.6875 26.875 C-42.67847656 26.12436279 -42.66945313 25.37372559 -42.66015625 24.6003418 C-42.45026817 17.91088792 -41.37271651 13.43521651 -36.5546875 8.6171875 C-26.29789182 0.02141136 -12.70706743 0.10415629 0 0 Z " fill="#FFFFFF" transform="translate(1434.25,3132.6875)"/>
<path d="M0 0 C12.52793816 7.20480238 22.17488909 22.5089324 26.4453125 36.11328125 C27.94761064 42.74666811 27.48601739 48.20926817 24.46875 54.3515625 C20.72059136 59.99373747 15.46016778 64.46345495 9 66.5625 C1.73601566 67.84279409 -4.01930268 65.62017311 -10 61.5625 C-20.72746833 52.83199116 -31.78297172 38.36202463 -33.37109375 24.26953125 C-33.55448168 19.35140052 -33.48867524 15.63758554 -31.4375 11.125 C-23.04251102 2.29949877 -12.53878402 -5.38795274 0 0 Z " fill="#FFFFFF" transform="translate(1081,2932.4375)"/>
<path d="M0 0 C2.84678484 1.81339697 5.43729073 3.80669026 8 6 C8.845625 6.721875 9.69125 7.44375 10.5625 8.1875 C17.24428005 15.89724621 22.56740957 24.30132379 22.3203125 34.75 C21.77267641 38.59680961 20.30038982 40.86891385 18 44 C15.75 45.4375 15.75 45.4375 14 46 C14 46.66 14 47.32 14 48 C8.09828909 52.19677221 3.18368338 53.11128804 -4 52 C-16.41334374 48.08791591 -24.92973824 38.04450404 -31 27 C-31.3609375 26.37222656 -31.721875 25.74445312 -32.09375 25.09765625 C-34.54136204 20.28175293 -34.7673293 15.25794963 -34 10 C-31.18194822 4.1384523 -26.1868808 -0.20227237 -20.5625 -3.375 C-12.85090447 -5.25587696 -6.91063276 -3.57067671 0 0 Z " fill="#FFFFFF" transform="translate(1014,2846)"/>
<path d="M0 0 C4.31867696 3.43653157 7.45379757 7.51373645 9.19921875 12.75 C9.596861 18.0187598 9.12349542 21.31641924 6.19921875 25.75 C0.30243142 31.59218745 -3.61154697 33.32877386 -12 33.30078125 C-20.80055243 32.02546995 -29.19909181 26.5206257 -35.80078125 20.75 C-40.23924673 14.70875532 -41.50266927 10.11982417 -40.80078125 2.75 C-38.96150508 -1.84819043 -36.0423377 -3.82625346 -31.80078125 -6.25 C-21.72773419 -10.27921882 -8.5372052 -5.49900496 0 0 Z " fill="#FFFFFF" transform="translate(950.80078125,2790.25)"/>
</svg>
