<?xml version="1.0" encoding="UTF-8"?>
<svg version="1.1" xmlns="http://www.w3.org/2000/svg" width="450" height="450">
<path d="M0 0 C2.71380699 -0.00080807 5.42761229 -0.00310349 8.14141846 -0.00531006 C14.7094444 -0.00972675 21.27745884 -0.00880967 27.84548521 -0.00589742 C33.18961397 -0.00362715 38.53373954 -0.00333786 43.87786865 -0.00442123 C44.64220746 -0.00457447 45.40654627 -0.0047277 46.19404685 -0.00488558 C47.74740934 -0.00520534 49.30077183 -0.00552956 50.85413432 -0.00585817 C65.37611897 -0.00870095 79.89809729 -0.00544485 94.4200809 -0.0000578 C106.84581231 0.00440914 119.27153438 0.00363287 131.69726562 -0.00097656 C146.17185939 -0.00634362 160.64644763 -0.00842637 175.12104225 -0.0053643 C176.66828028 -0.00504579 178.21551831 -0.00473142 179.76275635 -0.00442123 C180.5237721 -0.00426696 181.28478786 -0.00411268 182.0688647 -0.00395373 C187.39859265 -0.00309496 192.72831704 -0.00453759 198.05804443 -0.00690079 C204.56460589 -0.00972273 211.0711553 -0.00891046 217.5777154 -0.00362004 C220.88923667 -0.00101508 224.20072162 -0.00047295 227.51224518 -0.0032692 C268.18841243 -0.03443107 268.18841243 -0.03443107 276.6328125 4.94189453 C277.28572266 5.28542969 277.93863281 5.62896484 278.61132812 5.98291016 C284.32522175 9.08740078 288.01739811 13.27526101 292.12109375 18.16455078 C293.29068753 19.51697761 294.49944436 20.8361896 295.73828125 22.12548828 C310.12786345 37.29439022 312.98404592 54.64728016 312.95402527 74.71575928 C312.95629083 75.84148606 312.95855638 76.96721283 312.96089059 78.12705255 C312.96719159 81.87751829 312.96640374 85.62794754 312.96557617 89.37841797 C312.96857009 92.07635634 312.97194517 94.7742919 312.97575378 97.472229 C312.98403339 104.02750528 312.9868074 110.58277256 312.98736616 117.13805363 C312.98784258 122.47045756 312.98990362 127.80285854 312.99306679 133.13526154 C313.00186587 148.27842011 313.00648731 163.42157161 313.00573631 178.56473276 C313.00567638 179.78735069 313.00567638 179.78735069 313.00561523 181.03466797 C313.00557435 181.85075028 313.00553347 182.6668326 313.00549135 183.50764468 C313.00508505 196.7280764 313.01465251 209.94847961 313.0287536 223.16890308 C313.04314314 236.76785852 313.05002237 250.36680009 313.04915982 263.96576333 C313.04882875 271.5907717 313.05153631 279.21575017 313.06233788 286.84075165 C313.07147685 293.33330422 313.07359037 299.82581335 313.06682845 306.3183696 C313.06358034 309.62545791 313.06454734 312.93239558 313.0721817 316.23948669 C313.17178903 362.39427015 313.17178903 362.39427015 296.734375 379.44970703 C295.12182963 381.06633175 293.48923121 382.6508857 291.8203125 384.20922852 C289.35428242 386.51441336 287.90757648 387.86760259 286.8203125 391.12939453 C284.58902709 392.60426251 282.41008215 393.91544125 280.0703125 395.19189453 C279.44898438 395.54316406 278.82765625 395.89443359 278.1875 396.25634766 C262.19272423 405.18170249 241.46418293 402.27383927 223.640625 402.25878906 C220.92681801 402.25959713 218.21301271 402.26189255 215.49920654 402.26409912 C208.9311806 402.26851581 202.36316616 402.26759874 195.79513979 402.26468648 C190.45101103 402.26241621 185.10688546 402.26212692 179.76275635 402.2632103 C178.99841754 402.26336353 178.23407873 402.26351676 177.44657815 402.26367464 C175.89321566 402.26399441 174.33985317 402.26431862 172.78649068 402.26464723 C158.26450603 402.26749001 143.74252771 402.26423392 129.2205441 402.25884686 C116.79481269 402.25437992 104.36909062 402.25515619 91.94335938 402.25976562 C77.46876561 402.26513268 62.99417737 402.26721543 48.51958275 402.26415336 C46.97234472 402.26383486 45.42510669 402.26352048 43.87786865 402.2632103 C43.1168529 402.26305602 42.35583714 402.26290175 41.5717603 402.2627428 C36.24203235 402.26188403 30.91230796 402.26332665 25.58258057 402.26568985 C19.07601911 402.26851179 12.5694697 402.26769953 6.0629096 402.26240911 C2.75138833 402.25980414 -0.56009662 402.25926201 -3.87162018 402.26205826 C-44.54778743 402.29322014 -44.54778743 402.29322014 -52.9921875 397.31689453 C-53.64509766 396.97335937 -54.29800781 396.62982422 -54.97070312 396.27587891 C-60.68459675 393.17138828 -64.37677311 388.98352805 -68.48046875 384.09423828 C-69.65006253 382.74181146 -70.85881936 381.42259946 -72.09765625 380.13330078 C-86.48723845 364.96439884 -89.34342092 347.6115089 -89.31340027 327.54302979 C-89.31566583 326.41730301 -89.31793138 325.29157623 -89.32026559 324.13173652 C-89.32656659 320.38127077 -89.32577874 316.63084153 -89.32495117 312.88037109 C-89.32794509 310.18243273 -89.33132017 307.48449716 -89.33512878 304.78656006 C-89.34340839 298.23128378 -89.3461824 291.67601651 -89.34674116 285.12073544 C-89.34721758 279.78833151 -89.34927862 274.45593052 -89.35244179 269.12352753 C-89.36124087 253.98036896 -89.36586231 238.83721745 -89.36511131 223.6940563 C-89.36507136 222.87897768 -89.3650314 222.06389906 -89.36499023 221.22412109 C-89.36494935 220.40803878 -89.36490847 219.59195646 -89.36486635 218.75114438 C-89.36446005 205.53071267 -89.37402751 192.31030945 -89.3881286 179.08988598 C-89.40251814 165.49093054 -89.40939737 151.89198897 -89.40853482 138.29302573 C-89.40820375 130.66801737 -89.41091131 123.04303889 -89.42171288 115.41803741 C-89.43085185 108.92548484 -89.43296537 102.43297571 -89.42620345 95.94041947 C-89.42295534 92.63333116 -89.42392234 89.32639348 -89.4315567 86.01930237 C-89.53116403 39.86451891 -89.53116403 39.86451891 -73.09375 22.80908203 C-71.48120463 21.19245731 -69.84860621 19.60790337 -68.1796875 18.04956055 C-65.71365742 15.7443757 -64.26695148 14.39118648 -63.1796875 11.12939453 C-60.94840209 9.65452656 -58.76945715 8.34334781 -56.4296875 7.06689453 C-55.80835938 6.715625 -55.18703125 6.36435547 -54.546875 6.00244141 C-38.55209923 -2.92291343 -17.82355793 -0.01505021 0 0 Z " fill="#DFDEDE" transform="translate(113.1796875,23.87060546875)"/>
<path d="M0 0 C5.13309272 3.18873941 9.35540522 7.13170444 11.3203125 12.94140625 C12.22119007 19.36820245 12.3639231 26.05546886 8.984375 31.78125 C5.23762294 36.64499153 0.95265751 41.03541509 -3.29101562 45.46289062 C-5.04328666 47.32852941 -6.68073582 49.27622252 -8.3046875 51.25390625 C-9.0884375 52.14078125 -9.8721875 53.02765625 -10.6796875 53.94140625 C-11.3396875 53.94140625 -11.9996875 53.94140625 -12.6796875 53.94140625 C-12.94394531 54.534375 -13.20820313 55.12734375 -13.48046875 55.73828125 C-14.72339175 58.02169679 -15.98370396 59.41567348 -17.8671875 61.19140625 C-20.37492474 63.62174419 -22.72664987 66.09646283 -24.9921875 68.75390625 C-28.62225507 72.97798487 -32.55787553 76.85473822 -36.54296875 80.7421875 C-38.8149588 82.9471869 -38.8149588 82.9471869 -40.6796875 85.94140625 C-41.3396875 85.94140625 -41.9996875 85.94140625 -42.6796875 85.94140625 C-42.92332031 86.51375 -43.16695313 87.08609375 -43.41796875 87.67578125 C-44.90486048 90.34574163 -46.66052658 92.07969632 -48.8671875 94.19140625 C-51.68557101 96.94715901 -54.42164574 99.70299317 -56.9921875 102.69140625 C-64.38490676 111.28523092 -72.24025766 119.48524824 -79.9921875 127.75390625 C-80.61609375 128.4197876 -81.24 129.08566895 -81.8828125 129.77172852 C-85.15206431 133.25784404 -88.43042112 136.73479393 -91.72265625 140.19921875 C-107.59777512 156.09013499 -107.59777512 156.09013499 -111.92578125 177.27734375 C-110.93636866 187.98812764 -103.89874665 196.36828739 -95.92578125 203.01953125 C-93.94372791 204.7154795 -92.11211594 206.49191697 -90.27531433 208.34106445 C-88.36129328 210.2607413 -86.43280009 212.16533844 -84.50366211 214.06982422 C-80.13928092 218.38054395 -75.78429103 222.70062629 -71.43237305 227.02392578 C-69.55646861 228.88470064 -67.67788651 230.74277996 -65.79663086 232.59814453 C-63.07211746 235.28619125 -60.35747754 237.98387936 -57.64453125 240.68359375 C-56.38660011 241.9182991 -56.38660011 241.9182991 -55.10325623 243.177948 C-45.45945398 252.81896436 -45.45945398 252.81896436 -44.1484375 259.75 C-44.23685967 267.18851521 -45.35208949 272.42624008 -50.55078125 277.91796875 C-55.16212532 282.15447767 -58.75596135 284.72877162 -65.1171875 285.19140625 C-74.11453398 284.56001351 -79.94697735 279.96050606 -86.0546875 273.62890625 C-89.03909943 270.5432532 -92.02652992 267.60906775 -95.28759766 264.81811523 C-102.83242772 258.24463007 -109.83736579 251.08673803 -116.93359375 244.03759766 C-118.75896009 242.22878424 -120.58967399 240.42535085 -122.42578125 238.62744141 C-135.95147178 225.38070612 -146.06874474 213.8961258 -152.6796875 195.94140625 C-152.999375 195.19246094 -153.3190625 194.44351563 -153.6484375 193.671875 C-159.30860235 178.7091244 -156.12657121 158.61726905 -150.296875 144.25 C-146.12070225 135.70599439 -140.22899249 127.81018954 -133.6796875 120.94140625 C-133.0196875 120.94140625 -132.3596875 120.94140625 -131.6796875 120.94140625 C-131.45667969 120.3896875 -131.23367187 119.83796875 -131.00390625 119.26953125 C-129.26414653 116.21083865 -127.02204268 114.13402505 -124.4921875 111.69140625 C-120.62067593 107.94443281 -117.02295492 104.09129416 -113.4987793 100.01660156 C-110.48144477 96.57446716 -107.32849069 93.26291866 -104.1796875 89.94140625 C-102.76548079 88.44414662 -101.35142178 86.94674746 -99.9375 85.44921875 C-99.22754883 84.69801758 -98.51759766 83.94681641 -97.78613281 83.17285156 C-94.5343824 79.72813683 -91.29373518 76.27306217 -88.0546875 72.81640625 C-87.44004639 72.16051514 -86.82540527 71.50462402 -86.19213867 70.82885742 C-81.95583254 66.30666902 -77.72203727 61.78213443 -73.4921875 57.25390625 C-72.91758789 56.63878174 -72.34298828 56.02365723 -71.75097656 55.38989258 C-68.43243696 51.83289787 -65.13128437 48.26066041 -61.84130859 44.67724609 C-57.48460255 39.93290811 -53.06584255 35.2830474 -48.47265625 30.765625 C-46.01131967 28.2613893 -43.7486584 25.60348148 -41.4609375 22.94140625 C-38.97887117 20.15452476 -36.31721118 17.56785326 -33.65625 14.953125 C-31.69326984 12.95523017 -29.87048079 10.88566357 -28.0546875 8.75390625 C-20.59599052 0.10318007 -11.54391621 -4.56035174 0 0 Z " fill="#373636" transform="translate(250.6796875,70.05859375)"/>
<path d="M0 0 C1.2065625 0.0309375 1.2065625 0.0309375 2.4375 0.0625 C2.4375 0.7225 2.4375 1.3825 2.4375 2.0625 C3.11216309 2.04678955 3.78682617 2.0310791 4.48193359 2.01489258 C7.59203424 1.95183921 10.70199972 1.91328869 13.8125 1.875 C15.40384766 1.83729492 15.40384766 1.83729492 17.02734375 1.79882812 C25.10459784 1.72449757 32.20390567 2.66959886 39.3125 6.6875 C46.08702487 14.2590278 45.93834039 22.28220025 45.4375 32.0625 C44.7775 32.0625 44.1175 32.0625 43.4375 32.0625 C43.4375 33.3825 43.4375 34.7025 43.4375 36.0625 C42.7775 36.0625 42.1175 36.0625 41.4375 36.0625 C41.375625 36.64 41.31375 37.2175 41.25 37.8125 C40.05015219 41.13515546 38.39983587 42.14932475 35.4375 44.0625 C28.35389985 47.30143915 21.56730211 47.48620973 13.88452148 47.43481445 C12.65735413 47.43846512 11.43018677 47.44211578 10.16583252 47.44587708 C6.82481911 47.4525596 3.48436984 47.44592028 0.14341235 47.43254495 C-3.36687035 47.42115667 -6.87714002 47.42534356 -10.38743591 47.42729187 C-16.27909133 47.42817241 -22.17063115 47.41714389 -28.06225586 47.39868164 C-34.85776146 47.37750785 -41.653098 47.37400768 -48.44862992 47.3802436 C-55.0080471 47.38595288 -61.56740522 47.38027384 -68.12681389 47.36907005 C-70.90850869 47.36444574 -73.69016712 47.36354075 -76.4718647 47.3656559 C-80.36094502 47.36790218 -84.2498669 47.35337856 -88.13891602 47.3371582 C-89.2835582 47.33963562 -90.42820038 47.34211304 -91.60752869 47.34466553 C-101.45139705 47.27927768 -109.30808972 46.2206128 -116.5625 39.0625 C-121.07089001 33.61697274 -121.28042185 27.33596605 -121.08203125 20.48046875 C-120.09216767 13.96820833 -116.64567971 10.04406119 -112 5.625 C-106.24453618 1.93560012 -101.41014919 1.76377081 -94.73925781 1.75952148 C-93.75502335 1.75108215 -92.77078888 1.74264282 -91.75672913 1.73394775 C-88.50968944 1.70819554 -85.26274053 1.69603792 -82.015625 1.68359375 C-79.7607145 1.66742066 -77.50581102 1.65024087 -75.25091553 1.63209534 C-69.31987743 1.58642442 -63.38883005 1.55160459 -57.45770264 1.51989746 C-47.94941394 1.46799615 -38.44122776 1.40306199 -28.93306732 1.33168221 C-25.60425232 1.30877356 -22.27545055 1.29255428 -18.94659424 1.27696228 C-16.92044934 1.26356276 -14.89430584 1.24994858 -12.86816406 1.23608398 C-11.93518997 1.23347061 -11.00221588 1.23085724 -10.04096985 1.22816467 C-6.3057424 1.19763373 -3.37865463 0.08240621 0 0 Z " fill="#ABAAAA" transform="translate(305.5625,221.9375)"/>
<path d="M0 0 C4.00130889 2.9927145 7.6468507 6.9265139 9.890625 11.4140625 C10.77599348 19.75221632 10.52512916 26.28941753 5.68359375 33.29296875 C3.47387268 35.90708322 1.13674589 38.0999848 -1.59375 40.16015625 C-3.39052848 41.52433496 -3.39052848 41.52433496 -5.109375 44.4140625 C-5.769375 44.4140625 -6.429375 44.4140625 -7.109375 44.4140625 C-7.439375 45.4040625 -7.769375 46.3940625 -8.109375 47.4140625 C-9.5625 48.80859375 -9.5625 48.80859375 -11.359375 50.2265625 C-13.74338971 52.18986873 -15.551393 53.94675085 -17.546875 56.3515625 C-21.09998728 60.59796498 -25.2066402 65.06395329 -30.29296875 67.4296875 C-32.46386301 68.33851993 -32.46386301 68.33851993 -33.109375 71.4140625 C-35.5078125 72.94921875 -35.5078125 72.94921875 -38.484375 74.4765625 C-41.47948748 76.02943744 -44.29922566 77.54062961 -47.109375 79.4140625 C-68.55634466 87.89594499 -87.70081088 87.39645093 -108.921875 78.7265625 C-111.34759693 77.66919653 -113.74297821 76.5972609 -116.109375 75.4140625 C-116.109375 74.7540625 -116.109375 74.0940625 -116.109375 73.4140625 C-116.7075 73.3109375 -117.305625 73.2078125 -117.921875 73.1015625 C-120.40921464 72.31982719 -121.35633528 71.2876551 -123.109375 69.4140625 C-122.3359375 69.46046875 -121.5625 69.506875 -120.765625 69.5546875 C-113.94719154 69.79096985 -108.65666481 69.64882391 -103.109375 65.4140625 C-98.63236748 61.19688131 -95.50148705 56.95834806 -94.80859375 50.6953125 C-94.76307076 43.58322671 -94.76307076 43.58322671 -98.109375 37.4140625 C-98.109375 36.7540625 -98.109375 36.0940625 -98.109375 35.4140625 C-95.1374365 36.53857977 -92.77496813 37.63700041 -90.109375 39.4140625 C-79.90042384 41.58617977 -69.41869056 41.48185559 -60.109375 36.4140625 C-56.45478168 33.71385342 -53.30476297 30.63735779 -50.109375 27.4140625 C-48.99690157 26.3129853 -47.8835745 25.21277011 -46.76953125 24.11328125 C-44.01942039 21.38818539 -41.28840853 18.64519585 -38.57006836 15.88842773 C-37.1818005 14.48716589 -35.77877506 13.10057027 -34.375 11.71484375 C-31.98680122 9.37032066 -31.98680122 9.37032066 -29.671875 6.3515625 C-21.98660417 -2.45838211 -10.5480987 -5.96010455 0 0 Z " fill="#DC8D39" transform="translate(300.109375,284.5859375)"/>
<path d="M0 0 C0.99 0.99 0.99 0.99 2 2 C-0.75 8.75 -0.75 8.75 -3 11 C-3.495 12.155 -3.99 13.31 -4.5 14.5 C-6 18 -6 18 -8 20 C-8.24212873 21.98128508 -8.24212873 21.98128508 -8.125 24.125 C-8.08375 25.40375 -8.0425 26.6825 -8 28 C-7.34 28.33 -6.68 28.66 -6 29 C-5.505 30.485 -5.505 30.485 -5 32 C-4.01 32.33 -3.02 32.66 -2 33 C-2 33.66 -2 34.32 -2 35 C-1.030625 35.268125 -0.06125 35.53625 0.9375 35.8125 C1.948125 36.204375 2.95875 36.59625 4 37 C4.33 37.99 4.66 38.98 5 40 C6.65 40.33 8.3 40.66 10 41 C10 41.66 10 42.32 10 43 C10.61875 43.061875 11.2375 43.12375 11.875 43.1875 C12.57625 43.455625 13.2775 43.72375 14 44 C14.309375 44.804375 14.61875 45.60875 14.9375 46.4375 C15.7499244 49.20667349 15.7499244 49.20667349 18.375 50.125 C19.24125 50.41375 20.1075 50.7025 21 51 C23.3125 52.5 23.3125 52.5 25 54 C25 54.66 25 55.32 25 56 C25.86431641 56.40025391 25.86431641 56.40025391 26.74609375 56.80859375 C30.87709529 58.99222541 34.36323269 62.08837199 38 65 C38.91910156 65.71929687 39.83820313 66.43859375 40.78515625 67.1796875 C43.57516699 69.39788036 46.29391034 71.68049458 49 74 C49.74378906 74.59039062 50.48757813 75.18078125 51.25390625 75.7890625 C55.24975225 79.45393944 56.38600565 82.44619308 56.67260742 87.91259766 C56.71822806 94.49842321 56.36269153 99.83365476 52 105 C47.2309029 109.56174505 42.88386256 112.66354937 36.25 113.4375 C29.74867463 113.16297187 23.87549221 110.67597176 19.0625 106.375 C18.381875 105.59125 17.70125 104.8075 17 104 C15.515 103.01 15.515 103.01 14 102 C14 101.34 14 100.68 14 100 C13.25621094 99.74089844 12.51242187 99.48179687 11.74609375 99.21484375 C8.91313255 97.96157073 7.29210925 96.68614762 5.0625 94.5625 C-0.49715299 89.45764333 -6.42018942 84.88060919 -12.38427734 80.26464844 C-13.79923164 79.15714417 -15.19256625 78.02213176 -16.58203125 76.8828125 C-26.31034552 68.94341766 -35.50042113 66.12653545 -48 67 C-53.56294685 68.09551639 -58.76434582 69.84579524 -64 72 C-62.5158627 68.51345524 -60.53785948 66.35808928 -57.8125 63.75 C-54.9973201 61.00174197 -52.28962656 58.25427001 -49.75 55.25 C-46.51658438 51.47264531 -43.03278469 47.99342635 -39.5 44.5 C-33.96393097 39.01967638 -28.71080895 33.42837603 -23.875 27.3125 C-21.03401681 23.80862073 -17.76802224 20.74611352 -14.53515625 17.60546875 C-6.2695559 9.58669197 -6.2695559 9.58669197 0 0 Z " fill="#DF923E" transform="translate(260,99)"/>
<path d="M0 0 C1.2065625 0.0309375 1.2065625 0.0309375 2.4375 0.0625 C2.4375 0.7225 2.4375 1.3825 2.4375 2.0625 C5.4075 2.0625 8.3775 2.0625 11.4375 2.0625 C11.4375 2.7225 11.4375 3.3825 11.4375 4.0625 C14.0775 4.3925 16.7175 4.7225 19.4375 5.0625 C19.4375 5.3925 19.4375 5.7225 19.4375 6.0625 C-21.8125 6.0625 -63.0625 6.0625 -105.5625 6.0625 C-105.8925 5.0725 -106.2225 4.0825 -106.5625 3.0625 C-104.28815023 1.92532511 -103.02098928 1.92856786 -100.49436951 1.91101074 C-99.64323578 1.90266708 -98.79210205 1.89432343 -97.91517639 1.88572693 C-96.5116819 1.8794503 -96.5116819 1.8794503 -95.07983398 1.87304688 C-94.0960376 1.86475357 -93.11224121 1.85646027 -92.09863281 1.84791565 C-89.95804405 1.83049132 -87.81743597 1.81533107 -85.67681694 1.80213928 C-82.29483348 1.78116466 -78.91294747 1.75413886 -75.53102112 1.72546387 C-67.13217988 1.65552227 -58.73326963 1.59615257 -50.33435059 1.53643799 C-43.23948616 1.48560295 -36.14467431 1.43081018 -29.04988289 1.37062073 C-25.70778568 1.34394311 -22.36568385 1.32319197 -19.02354431 1.3026123 C-16.98761764 1.28601748 -14.95169319 1.26914636 -12.91577148 1.25195312 C-11.97808426 1.24776871 -11.04039703 1.24358429 -10.07429504 1.23927307 C-6.33214915 1.2024669 -3.38542961 0.08257145 0 0 Z " fill="#BAB7B8" transform="translate(305.5625,221.9375)"/>
<path d="M0 0 C2.05834925 1.62762828 3.26194038 2.58638077 4.4375 4.9375 C3.4475 5.2675 2.4575 5.5975 1.4375 5.9375 C1.4375 4.9475 1.4375 3.9575 1.4375 2.9375 C0.1175 2.6075 -1.2025 2.2775 -2.5625 1.9375 C-2.5625 1.2775 -2.5625 0.6175 -2.5625 -0.0625 C-13.24913299 -3.01011841 -27.43574004 -5.78206269 -37.5625 -0.0625 C-44.23310046 3.80624885 -48.04119566 7.14641306 -51.5625 13.9375 C-53.52435416 15.64890469 -55.52552383 17.31623325 -57.5625 18.9375 C-58.76906901 20.39808353 -59.97487388 21.85960791 -61.15234375 23.34375 C-62.79663951 25.20212305 -64.59568899 26.72256291 -66.5 28.3125 C-70.56036459 31.77977763 -73.48601597 35.60498373 -76.5625 39.9375 C-77.80294047 41.59055015 -79.05303563 43.2363979 -80.3125 44.875 C-80.88484375 45.62652344 -81.4571875 46.37804687 -82.046875 47.15234375 C-83.5625 48.9375 -83.5625 48.9375 -85.5625 49.9375 C-85.8925 50.9275 -86.2225 51.9175 -86.5625 52.9375 C-88.0475 53.4325 -88.0475 53.4325 -89.5625 53.9375 C-90.2225 54.5975 -90.8825 55.2575 -91.5625 55.9375 C-92.5525 56.4325 -92.5525 56.4325 -93.5625 56.9375 C-95.81266934 63.68800803 -95.88381531 70.98943838 -96.12109375 78.03125 C-96.26675781 78.9903125 -96.41242188 79.949375 -96.5625 80.9375 C-98.0475 81.9275 -98.0475 81.9275 -99.5625 82.9375 C-101.63718697 75.83377181 -101.61631452 66.76768337 -98.5625 59.9375 C-94.77545714 53.94493502 -89.80552431 49.0484044 -84.75390625 44.125 C-82.73456133 42.10925462 -80.85643267 40.04013332 -79 37.875 C-76.00652794 34.38376815 -72.81076404 31.16652297 -69.53515625 27.94140625 C-66.98912171 25.35503849 -64.64228443 22.6221472 -62.27734375 19.87109375 C-60.06690699 17.37868784 -57.70408441 15.06752433 -55.328125 12.734375 C-52.81001953 10.17170129 -50.47627295 7.46293569 -48.140625 4.734375 C-36.6201246 -8.38302644 -13.97034922 -10.14897483 0 0 Z " fill="#C4B1A7" transform="translate(238.5625,171.0625)"/>
<path d="M0 0 C1.13308594 -0.02578125 2.26617187 -0.0515625 3.43359375 -0.078125 C6.81497115 0.27647637 8.19421903 0.85262466 10.5625 3.25 C10.5625 3.91 10.5625 4.57 10.5625 5.25 C5.2825 4.92 0.0025 4.59 -5.4375 4.25 C-5.4375 4.91 -5.4375 5.57 -5.4375 6.25 C-7.1160513 7.74629179 -8.85708898 9.17292661 -10.625 10.5625 C-14.48202072 13.60371179 -18.01178503 16.72989742 -21.4375 20.25 C-22.16710937 20.96800781 -22.89671875 21.68601562 -23.6484375 22.42578125 C-27.83988121 26.56426448 -31.83154499 30.78263582 -35.6640625 35.25390625 C-38.76278789 38.74167866 -42.10094637 41.99144373 -45.4375 45.25 C-45.7675 44.59 -46.0975 43.93 -46.4375 43.25 C-48.0875 43.91 -49.7375 44.57 -51.4375 45.25 C-48.26023508 41.43728209 -45.037501 37.79483529 -41.5 34.3125 C-38.85883171 31.71142534 -36.35304065 29.06171133 -33.9375 26.25 C-30.92280583 22.74199224 -27.71186256 19.50222113 -24.4140625 16.26171875 C-22.45108234 14.26382392 -20.62829329 12.19425732 -18.8125 10.0625 C-13.19016128 3.54161399 -8.89484581 0.12115567 0 0 Z " fill="#4E4E4E" transform="translate(241.4375,68.75)"/>
<path d="M0 0 C-0.9590625 0.4021875 -0.9590625 0.4021875 -1.9375 0.8125 C-4.33131686 1.88667752 -4.33131686 1.88667752 -5 5 C-7.3984375 6.53515625 -7.3984375 6.53515625 -10.375 8.0625 C-13.37011248 9.61537494 -16.18985066 11.12656711 -19 13 C-40.44696966 21.48188249 -59.59143588 20.98238843 -80.8125 12.3125 C-83.23822193 11.25513403 -85.63360321 10.1831984 -88 9 C-88 8.34 -88 7.68 -88 7 C-88.598125 6.896875 -89.19625 6.79375 -89.8125 6.6875 C-92.28243264 5.91123545 -93.32251235 4.92911079 -95 3 C-93.35 3 -91.7 3 -90 3 C-90 3.66 -90 4.32 -90 5 C-88.7315625 5.4021875 -88.7315625 5.4021875 -87.4375 5.8125 C-84 7 -84 7 -80.75 8.4375 C-62.26951638 16.38549381 -38.8298892 17.13553696 -20 10 C-18.71854566 9.30809967 -17.44876364 8.59415639 -16.19140625 7.859375 C-13 6 -13 6 -11 6 C-11 5.34 -11 4.68 -11 4 C-10.01 4 -9.02 4 -8 4 C-8 3.34 -8 2.68 -8 2 C-3.61016949 -1.20338983 -3.61016949 -1.20338983 0 0 Z " fill="#E2B98D" transform="translate(272,351)"/>
<path d="M0 0 C3.98619856 1.71396744 7.20148752 4.37534027 10.5625 7.0625 C11.17512695 7.5476709 11.78775391 8.0328418 12.41894531 8.53271484 C17.29174437 12.40288555 22.1055478 16.34218619 26.890625 20.3203125 C28.88957638 22.03117 28.88957638 22.03117 31 23 C31 23.66 31 24.32 31 25 C31.5775 25.268125 32.155 25.53625 32.75 25.8125 C35.05550043 27.02929189 37.02056192 28.30333879 39 30 C39 30.66 39 31.32 39 32 C39.804375 32.185625 39.804375 32.185625 40.625 32.375 C43 33 43 33 45.75 34.0625 C51.8551385 35.82359765 56.08969341 35.76689012 61.6875 32.875 C66.60504637 29.88540359 70.13913114 26.58260657 72 21 C72.22451458 18.77425665 72.40782878 16.54418481 72.5625 14.3125 C72.64628906 13.13300781 72.73007812 11.95351562 72.81640625 10.73828125 C72.87699219 9.83464844 72.93757813 8.93101562 73 8 C73.99 8 74.98 8 76 8 C77.48862243 15.62918993 77.46707508 20.93743964 74 28 C73.505 29.093125 73.01 30.18625 72.5 31.3125 C70.30220616 35.25021396 67.1984673 36.70047441 63 38 C61.33121079 37.67746091 59.66477098 37.34267549 58 37 C56.18799136 36.95779893 54.3745334 36.95887584 52.5625 37 C48.58337329 37.04301759 44.90808941 36.8449923 41 36 C41 35.34 41 34.68 41 34 C39.68 33.67 38.36 33.34 37 33 C37 32.34 37 31.68 37 31 C36.34 31 35.68 31 35 31 C34.34 30.34 33.68 29.68 33 29 C30.39262861 26.86061834 27.80816992 24.87211328 25 23 C25 22.34 25 21.68 25 21 C23.68 20.67 22.36 20.34 21 20 C21 19.01 21 18.02 21 17 C19.02 16.67 17.04 16.34 15 16 C15.33 15.01 15.66 14.02 16 13 C14.35 12.67 12.7 12.34 11 12 C11 11.01 11 10.02 11 9 C10.113125 8.79375 9.22625 8.5875 8.3125 8.375 C4.05692816 6.60853622 2.67466035 4.69732461 0 1 C0 0.67 0 0.34 0 0 Z " fill="#BEAA9B" transform="translate(243,176)"/>
<path d="M0 0 C-1.55603771 3.81936528 -3.95604931 6.26044438 -7 9 C-7.66 9 -8.32 9 -9 9 C-9.37125 9.85476929 -9.37125 9.85476929 -9.75 10.72680664 C-12.2644062 15.29939183 -16.34863826 18.76105257 -20 22.4375 C-20.81339844 23.28376953 -21.62679687 24.13003906 -22.46484375 25.00195312 C-30.30203828 32.90724334 -38.35754324 38.113448 -49.6875 38.1875 C-63.91704678 37.99754246 -71.82619777 32.54695102 -81.54638672 22.60766602 C-82.7027685 21.41008839 -83.85216063 20.20576771 -85 19 C-83.68 18.67 -82.36 18.34 -81 18 C-81 18.66 -81 19.32 -81 20 C-80.01 20 -79.02 20 -78 20 C-77.67 20.99 -77.34 21.98 -77 23 C-76.360625 23.103125 -75.72125 23.20625 -75.0625 23.3125 C-74.0415625 23.6528125 -74.0415625 23.6528125 -73 24 C-72.690625 24.969375 -72.38125 25.93875 -72.0625 26.9375 C-71.33098982 30.11427417 -71.33098982 30.11427417 -68.875 31.25 C-67.92625 31.4975 -66.9775 31.745 -66 32 C-65.30519531 32.18304688 -64.61039063 32.36609375 -63.89453125 32.5546875 C-61.93582437 33.06083122 -59.96838887 33.53292468 -58 34 C-58 34.66 -58 35.32 -58 36 C-52.80790596 36.21192221 -48.873261 35.5912689 -44 34 C-44 34.66 -44 35.32 -44 36 C-43.484375 35.525625 -42.96875 35.05125 -42.4375 34.5625 C-39.33217325 32.57190593 -36.63367496 32.34939182 -33 32 C-32.9175 31.4225 -32.835 30.845 -32.75 30.25 C-31.77700266 27.33100799 -30.25912892 26.0654893 -28 24 C-27.319375 23.2575 -26.63875 22.515 -25.9375 21.75 C-24 20 -24 20 -21 20 C-21 18.68 -21 17.36 -21 16 C-20.01 16 -19.02 16 -18 16 C-17.5875 15.05125 -17.175 14.1025 -16.75 13.125 C-14.86832941 9.76487395 -14.26858399 9.53214875 -11 8 C-9.95107762 6.36368108 -8.95093297 4.69514137 -8 3 C-5.5816784 -0.18778756 -3.92730196 -0.31842989 0 0 Z " fill="#D1BFB4" transform="translate(273,288)"/>
<path d="M0 0 C91.74 0 183.48 0 278 0 C278 0.33 278 0.66 278 1 C186.26 1 94.52 1 0 1 C0 0.67 0 0.34 0 0 Z " fill="#F9F9F9" transform="translate(86,427)"/>
<path d="M0 0 C91.74 0 183.48 0 278 0 C278 0.33 278 0.66 278 1 C186.26 1 94.52 1 0 1 C0 0.67 0 0.34 0 0 Z " fill="#FCFCFC" transform="translate(86,22)"/>
<path d="M0 0 C0.33 0 0.66 0 1 0 C1 91.08 1 182.16 1 276 C0.67 276 0.34 276 0 276 C0 184.92 0 93.84 0 0 Z " fill="#FDFCFD" transform="translate(427,87)"/>
<path d="M0 0 C0.33 0 0.66 0 1 0 C1 91.08 1 182.16 1 276 C0.67 276 0.34 276 0 276 C0 184.92 0 93.84 0 0 Z " fill="#FDFDFD" transform="translate(22,87)"/>
<path d="M0 0 C0.66 0 1.32 0 2 0 C2.564927 10.29422529 2.13613873 16.38017552 -4.7265625 24.12890625 C-7.3068955 26.97314621 -9.9541718 29.74924102 -12.61132812 32.52148438 C-14.36359916 34.38712316 -16.00104832 36.33481627 -17.625 38.3125 C-18.40875 39.199375 -19.1925 40.08625 -20 41 C-20.66 41 -21.32 41 -22 41 C-22.26425781 41.59296875 -22.52851563 42.1859375 -22.80078125 42.796875 C-24.04370425 45.08029054 -25.30401646 46.47426723 -27.1875 48.25 C-29.73670849 50.7202041 -32.12819493 53.24154523 -34.4375 55.9375 C-38.08407192 60.17249602 -42.00351553 64.09693984 -46 68 C-46.33 66.68 -46.66 65.36 -47 64 C-46.34 64 -45.68 64 -45 64 C-44.7525 63.21625 -44.505 62.4325 -44.25 61.625 C-42.79219136 58.56360186 -41.92006527 58.41293481 -39 57 C-38.87367188 56.37222656 -38.74734375 55.74445313 -38.6171875 55.09765625 C-37.79690013 52.30971754 -36.69458309 51.87680259 -34.1875 50.5 C-29.42033702 47.69077896 -26.67329509 45.6271298 -24.5 40.375 C-22.87515461 36.71909788 -22.42646665 36.48480222 -19 35 C-18.7525 34.01 -18.7525 34.01 -18.5 33 C-18.2525 32.01 -18.2525 32.01 -18 31 C-17.360625 30.690625 -16.72125 30.38125 -16.0625 30.0625 C-13.76935324 29.17222894 -13.76935324 29.17222894 -13.12109375 26.6796875 C-11.85110517 23.64410503 -10.43047059 22.24724287 -8 20.0625 C-2.60982921 14.83803066 -1.84194892 10.11517352 -1.24609375 2.85546875 C-1 1 -1 1 0 0 Z " fill="#303030" transform="translate(260,83)"/>
<path d="M0 0 C1.2065625 0.0309375 1.2065625 0.0309375 2.4375 0.0625 C2.4375 0.7225 2.4375 1.3825 2.4375 2.0625 C3.7575 2.3925 5.0775 2.7225 6.4375 3.0625 C0.97151378 4.20653292 -4.3274259 4.19682338 -9.88232422 4.17602539 C-10.90732529 4.17617142 -11.93232635 4.17631744 -12.98838806 4.1764679 C-16.36467633 4.17577316 -19.74090891 4.16800129 -23.1171875 4.16015625 C-25.46273773 4.15829051 -27.80828835 4.15686734 -30.15383911 4.15586853 C-36.31873658 4.15205562 -42.48361039 4.1422358 -48.64849854 4.13116455 C-54.94274577 4.12092407 -61.23699683 4.11636526 -67.53125 4.11132812 C-79.87501038 4.10061243 -92.21875322 4.08355073 -104.5625 4.0625 C-104.5625 3.4025 -104.5625 2.7425 -104.5625 2.0625 C-103.29938492 2.05219254 -102.03626984 2.04188507 -100.73487854 2.03126526 C-88.85921055 1.93371342 -76.98359711 1.83099712 -65.10801792 1.72316074 C-59.0019624 1.66788234 -52.89590213 1.61445462 -46.78979492 1.56518555 C-40.90240594 1.51761436 -35.01507728 1.46527446 -29.12775993 1.40955925 C-26.87619456 1.38910275 -24.62461262 1.37039526 -22.37301826 1.35342598 C-19.23112087 1.32945465 -16.08933867 1.29939053 -12.94750977 1.26782227 C-12.00668045 1.2620668 -11.06585114 1.25631134 -10.09651184 1.25038147 C-6.35068546 1.2073046 -3.38944903 0.08266949 0 0 Z " fill="#B2AFB0" transform="translate(305.5625,221.9375)"/>
<path d="M0 0 C4.62838392 2.13617719 8.7783826 4.67658115 12.25 8.4375 C15.46831109 11.43638079 18.69584602 12.93480167 22.6953125 14.69140625 C25.26301284 16.1493378 26.47832834 17.48874449 28 20 C28 20.66 28 21.32 28 22 C28.66 22 29.32 22 30 22 C31 23 32 24 33 25 C34.051875 25.680625 35.10375 26.36125 36.1875 27.0625 C37.115625 27.701875 38.04375 28.34125 39 29 C39 29.66 39 30.32 39 31 C40.32 31 41.64 31 43 31 C43.268125 31.61875 43.53625 32.2375 43.8125 32.875 C45.3751359 35.67129582 47.12881746 36.7510907 50.1875 37.625 C57.78107766 38.67811434 57.78107766 38.67811434 65 37 C65.33 36.175 65.66 35.35 66 34.5 C66.33 33.675 66.66 32.85 67 32 C69.125 31.1875 69.125 31.1875 71 31 C71.185625 29.4221875 71.185625 29.4221875 71.375 27.8125 C71.91140782 24.54041229 72.63880035 21.99463924 74 19 C74.66 19 75.32 19 76 19 C76 17.02 76 15.04 76 13 C76.33 13 76.66 13 77 13 C77.75738944 26.99066598 77.75738944 26.99066598 73 33 C68.2309029 37.56174505 63.88386256 40.66354937 57.25 41.4375 C50.74867463 41.16297187 44.87549221 38.67597176 40.0625 34.375 C39.381875 33.59125 38.70125 32.8075 38 32 C37.01 31.34 36.02 30.68 35 30 C35 29.34 35 28.68 35 28 C34.25621094 27.74089844 33.51242187 27.48179687 32.74609375 27.21484375 C29.91313255 25.96157073 28.29210925 24.68614762 26.0625 22.5625 C22.14244916 18.95762913 18.07779048 15.6382844 13.875 12.375 C9.14664961 8.69360995 4.44652603 5.02304736 0 1 C0 0.67 0 0.34 0 0 Z " fill="#C68348" transform="translate(239,171)"/>
<path d="M0 0 C2.31 0.99 4.62 1.98 7 3 C7 3.33 7 3.66 7 4 C5.35 4 3.7 4 2 4 C2 4.66 2 5.32 2 6 C1.34 6 0.68 6 0 6 C-0.33 6.99 -0.66 7.98 -1 9 C-1.66 9.33 -2.32 9.66 -3 10 C-3.45375 10.763125 -3.9075 11.52625 -4.375 12.3125 C-6.61897989 16.02369751 -9.26017104 18.43222428 -12.6875 21.0625 C-15.24498825 22.86146904 -15.24498825 22.86146904 -16 26 C-17.70703125 27.68359375 -17.70703125 27.68359375 -19.8125 29.4375 C-22.06422435 31.33664118 -24.16068725 33.16986937 -26.1875 35.3125 C-28.31033356 37.28893125 -30.32406952 37.92962781 -33 39 C-35.27191416 41.02040748 -35.27191416 41.02040748 -37 43 C-37.66 42.67 -38.32 42.34 -39 42 C-38.25556641 41.27296875 -38.25556641 41.27296875 -37.49609375 40.53125 C-34.1418163 37.22152652 -30.86244305 33.90652836 -27.8125 30.3125 C-24.55567365 26.51661274 -21.05366631 23.01402501 -17.5 19.5 C-11.25133513 13.31426495 -5.41785336 6.9348523 0 0 Z " fill="#BB6A30" transform="translate(238,124)"/>
<path d="M0 0 C0.33 0 0.66 0 1 0 C1.042721 1.66611905 1.04063832 3.33382885 1 5 C0.67 5.33 0.34 5.66 0 6 C-0.61029747 12.78369114 -0.14118424 17.96892626 3 24 C3.33 24.99 3.66 25.98 4 27 C4.66 27.33 5.32 27.66 6 28 C6.639375 28.495 7.27875 28.99 7.9375 29.5 C11.71488755 32.24719094 15.04546651 32.14661417 19.58276367 32.20532227 C20.24644455 32.21522186 20.91012543 32.22512146 21.59391785 32.23532104 C23.78523199 32.2668809 25.97656781 32.29167155 28.16796875 32.31640625 C29.68826355 32.33698055 31.20855269 32.35797715 32.72883606 32.37937927 C36.72858087 32.43455084 40.72837689 32.48398175 44.72821045 32.53222656 C48.81038974 32.5824775 52.89249474 32.63814481 56.97460938 32.69335938 C64.9830101 32.80088082 72.99147299 32.90233911 81 33 C81 33.33 81 33.66 81 34 C71.89886331 34.27059015 62.79763857 34.50741673 53.69455814 34.70202446 C49.46688199 34.79344755 45.24013082 34.89616906 41.01342773 35.02539062 C36.92886533 35.14983953 32.84460562 35.24372152 28.75881767 35.31708145 C27.20576793 35.35021402 25.65290616 35.39407101 24.10048103 35.44918442 C16.00027168 35.72973979 9.34902208 35.87052309 2.68479919 30.69021606 C-2.60317104 25.38524425 -4.29392308 20.52968409 -4.375 13.0625 C-4.30933307 7.37335582 -3.98452139 4.10526447 0 0 Z " fill="#A2A1A1" transform="translate(189,233)"/>
<path d="M0 0 C0.66 0.66 1.32 1.32 2 2 C-0.75 8.75 -0.75 8.75 -3 11 C-3.495 12.155 -3.99 13.31 -4.5 14.5 C-6 18 -6 18 -8 20 C-8.24212873 21.98128508 -8.24212873 21.98128508 -8.125 24.125 C-8.08375 25.40375 -8.0425 26.6825 -8 28 C-7.34 28.33 -6.68 28.66 -6 29 C-6 29.66 -6 30.32 -6 31 C-8.10266478 30.54942898 -9.89639737 30.05358757 -11.8125 29.0625 C-14.76923392 27.6263721 -17.83301604 26.85264953 -21 26 C-18.54064797 21.75202831 -15.6425884 18.55782723 -12.125 15.125 C-7.47709433 10.58007599 -2.93356407 5.86712814 0 0 Z " fill="#B1AEAD" transform="translate(260,99)"/>
<path d="M0 0 C2.9719385 1.12451727 5.33440687 2.22293791 8 4 C17.92768303 6.11227298 27.50104474 5.53058514 37 2 C37 2.66 37 3.32 37 4 C35 6 35 6 32 8 C31.34 8 30.68 8 30 8 C30 8.66 30 9.32 30 10 C26.93466836 11.53266582 23.73245728 11.10276471 20.375 11.0625 C19.66859375 11.05798828 18.9621875 11.05347656 18.234375 11.04882812 C16.48954725 11.03703875 14.744763 11.01910324 13 11 C13 10.34 13 9.68 13 9 C12.39671875 8.99742187 11.7934375 8.99484375 11.171875 8.9921875 C8.65879768 8.87058698 6.43194518 8.65716935 4 8 C0 3.41463415 0 3.41463415 0 0 Z " fill="#E09247" transform="translate(202,320)"/>
<path d="M0 0 C4.19426397 1.64638808 7.03395038 4.72806383 10.15625 7.85546875 C10.74039673 8.43533035 11.32454346 9.01519196 11.9263916 9.61262512 C13.15936554 10.83986492 14.38973898 12.06972217 15.61767578 13.30200195 C17.48478188 15.17225623 19.36477112 17.02882631 21.24609375 18.88476562 C22.44612371 20.08252113 23.64536818 21.28106424 24.84375 22.48046875 C25.40114868 23.02865768 25.95854736 23.57684662 26.53283691 24.14164734 C30.71446974 28.37267173 34.39687286 32.81140872 35.53125 38.80859375 C35.45424687 45.28648248 34.47107915 49.48710959 31 55 C30.01 55.495 30.01 55.495 29 56 C29.144375 55.154375 29.28875 54.30875 29.4375 53.4375 C31.98874413 40.69307638 31.98874413 40.69307638 27.6328125 29.03125 C24.72376104 25.41233431 21.65771967 21.87720208 18 19 C17.01 19 16.02 19 15 19 C15 18.34 15 17.68 15 17 C14.34 17 13.68 17 13 17 C12.773125 16.278125 12.54625 15.55625 12.3125 14.8125 C10.17820463 10.23900992 6.5476723 7.42436467 2.6875 4.3125 C1.800625 3.549375 0.91375 2.78625 0 2 C0 1.34 0 0.68 0 0 Z " fill="#342C28" transform="translate(171,291)"/>
<path d="M0 0 C0 5.31624923 -3.21272697 9.11900399 -6.625 12.9375 C-9 15 -9 15 -11 15 C-11.226875 15.5775 -11.45375 16.155 -11.6875 16.75 C-13.34761639 19.59591381 -15.39187957 20.99841921 -18 23 C-20.73472632 25.59799 -23.24941515 28.26425038 -25.625 31.1875 C-28 34 -28 34 -31 36 C-33.1875 35.625 -33.1875 35.625 -35 35 C-30.48746518 30.2367688 -30.48746518 30.2367688 -27.8125 28.9375 C-25.47139069 27.72658139 -24.95928874 26.39822186 -24 24 C-23.34 24 -22.68 24 -22 24 C-21.67 23.01 -21.34 22.02 -21 21 C-19.58203125 19.640625 -19.58203125 19.640625 -17.8125 18.25 C-14.52525875 15.55797938 -11.89137536 12.64880936 -9.26171875 9.3203125 C-8.63716797 8.66675781 -8.63716797 8.66675781 -8 8 C-7.34 8 -6.68 8 -6 8 C-5.34 6.68 -4.68 5.36 -4 4 C-3.34 4 -2.68 4 -2 4 C-1.34 2.68 -0.68 1.36 0 0 Z " fill="#DCC5B3" transform="translate(306,316)"/>
<path d="M0 0 C-0.9590625 0.4021875 -0.9590625 0.4021875 -1.9375 0.8125 C-4.33131686 1.88667752 -4.33131686 1.88667752 -5 5 C-7.3984375 6.53515625 -7.3984375 6.53515625 -10.375 8.0625 C-13.37011248 9.61537494 -16.18985066 11.12656711 -19 13 C-28.47987365 17.20656814 -38.62760077 17.06925084 -48.8125 17.1875 C-49.51761719 17.20063232 -50.22273437 17.21376465 -50.94921875 17.22729492 C-55.71209519 17.2345965 -59.52981269 16.47837567 -64 15 C-60.86985268 14.06486168 -58.17930219 13.9296902 -54.921875 14.04296875 C-34.84052378 14.60199298 -34.84052378 14.60199298 -16.19140625 7.859375 C-13 6 -13 6 -11 6 C-11 5.34 -11 4.68 -11 4 C-10.01 4 -9.02 4 -8 4 C-8 3.34 -8 2.68 -8 2 C-3.61016949 -1.20338983 -3.61016949 -1.20338983 0 0 Z " fill="#E6AD70" transform="translate(272,351)"/>
<path d="M0 0 C2.60444348 -0.05394705 5.20776998 -0.09364469 7.8125 -0.125 C8.55048828 -0.14175781 9.28847656 -0.15851563 10.04882812 -0.17578125 C13.91246426 -0.21074628 15.70903668 -0.19397555 19 2 C21.62531524 2.16713569 21.62531524 2.16713569 24 2 C24.33 3.65 24.66 5.3 25 7 C26.32 7.33 27.64 7.66 29 8 C29 8.66 29 9.32 29 10 C29.66 10.33 30.32 10.66 31 11 C31 11.99 31 12.98 31 14 C31.495 14.99 31.495 14.99 32 16 C31.96222751 18.64407398 31.8577637 21.23941129 31.6875 23.875 C31.65205078 24.59558594 31.61660156 25.31617188 31.58007812 26.05859375 C31.34942843 29.79718436 31.04658816 32.80899315 29 36 C28.34 36 27.68 36 27 36 C27.48339844 34.7315625 27.48339844 34.7315625 27.9765625 33.4375 C29.99607538 26.65440331 30.33524297 18.92726344 27.375 12.4375 C21.86316571 6.78061744 17.32643193 3.01020136 9.1875 2.625 C4.66836031 2.69919483 1.5703752 3.76798605 -2.30859375 6.02734375 C-4 7 -4 7 -7 8 C-6.67 6.35 -6.34 4.7 -6 3 C-5.34 3.33 -4.68 3.66 -4 4 C-1.90178785 3.60061233 -1.90178785 3.60061233 0 3 C0 2.01 0 1.02 0 0 Z " fill="#C8B39D" transform="translate(280,280)"/>
<path d="M0 0 C2.3984375 1.3984375 2.3984375 1.3984375 4 3 C4 3.66 4 4.32 4 5 C-1.28 4.67 -6.56 4.34 -12 4 C-12 4.66 -12 5.32 -12 6 C-14.28703308 7.19725883 -16.57884862 8.38297018 -18.875 9.5625 C-19.52597656 9.90474609 -20.17695313 10.24699219 -20.84765625 10.59960938 C-22.53529857 11.46082891 -24.26579593 12.23686703 -26 13 C-26.66 12.67 -27.32 12.34 -28 12 C-19.24848193 2.72339085 -13.25157845 -1.74633204 0 0 Z " fill="#616161" transform="translate(248,69)"/>
<path d="M0 0 C0.99 0 1.98 0 3 0 C4.48862243 7.62918993 4.46707508 12.93743964 1 20 C0.505 21.093125 0.01 22.18625 -0.5 23.3125 C-2.70715324 27.26698289 -5.81042644 28.63838859 -10 30 C-10.99 29.67 -11.98 29.34 -13 29 C-9.25 26 -9.25 26 -7 26 C-6.9175 25.278125 -6.835 24.55625 -6.75 23.8125 C-5.8492343 20.43462862 -4.2326044 18.65121773 -2 16 C-0.89485234 12.68455701 -0.67892369 9.79589889 -0.4375 6.3125 C-0.35371094 5.13300781 -0.26992188 3.95351562 -0.18359375 2.73828125 C-0.12300781 1.83464844 -0.06242187 0.93101562 0 0 Z " fill="#C2BDBE" transform="translate(316,184)"/>
<path d="M0 0 C0.66 0.99 1.32 1.98 2 3 C0 5 0 5 -2 6 C-4.25016934 12.75050803 -4.32131531 20.05193838 -4.55859375 27.09375 C-4.70425781 28.0528125 -4.84992188 29.011875 -5 30 C-5.99 30.66 -6.98 31.32 -8 32 C-10.0628651 24.9367499 -10.09753546 15.78001324 -7 9 C-4.85048901 5.83282215 -2.50424472 2.89260353 0 0 Z " fill="#BDA9A1" transform="translate(147,222)"/>
<path d="M0 0 C2.74362012 2.74362012 2.33130133 4.42199614 2.375 8.25 C2.25194709 14.82971172 1.08319015 17.98256509 -3.6484375 22.61328125 C-6.80106457 25.49745317 -9.75863013 28.02122234 -14 29 C-17.3125 28.625 -17.3125 28.625 -20 28 C-17.65881361 26.43920907 -15.7207175 25.41672301 -13.1875 24.3125 C-7.86073216 21.68345068 -4.58987831 17.80121416 -1.6875 12.6875 C-0.62025993 8.51556153 -0.3162939 4.28661468 0 0 Z " fill="#CD782F" transform="translate(206,328)"/>
<path d="M0 0 C-1.4841373 3.48654476 -3.46214052 5.64191072 -6.1875 8.25 C-9.80391872 11.77339187 -13.16319326 15.39583191 -16.39453125 19.2734375 C-18.11365309 21.12222547 -19.9422984 22.54487913 -22 24 C-22.66 23.34 -23.32 22.68 -24 22 C-22.71034824 20.62437146 -21.37310707 19.29233607 -20 18 C-19.34 18 -18.68 18 -18 18 C-18 17.34 -18 16.68 -18 16 C-17 15 -16 14 -15 13 C-14.525625 12.195625 -14.05125 11.39125 -13.5625 10.5625 C-11.95782194 7.93082798 -10.32023371 6.02084871 -8 4 C-7.34 4 -6.68 4 -6 4 C-5.67 3.01 -5.34 2.02 -5 1 C-3 0 -3 0 0 0 Z " fill="#322C28" transform="translate(208,156)"/>
<path d="M0 0 C1.32 0 2.64 0 4 0 C4 0.66 4 1.32 4 2 C4.99 2 5.98 2 7 2 C7.33 2.99 7.66 3.98 8 5 C8.639375 5.103125 9.27875 5.20625 9.9375 5.3125 C10.618125 5.539375 11.29875 5.76625 12 6 C12.309375 6.969375 12.61875 7.93875 12.9375 8.9375 C13.66901018 12.11427417 13.66901018 12.11427417 16.125 13.25 C17.07375 13.4975 18.0225 13.745 19 14 C19.69480469 14.18304688 20.38960937 14.36609375 21.10546875 14.5546875 C23.06417563 15.06083122 25.03161113 15.53292468 27 16 C27 16.66 27 17.32 27 18 C33.93 18.495 33.93 18.495 41 19 C41 19.33 41 19.66 41 20 C28.31991343 20.38619553 19.18642087 19.47491376 9.53369141 10.66113281 C6.24649991 7.54323428 3.0520422 4.34868929 0 1 C0 0.67 0 0.34 0 0 Z " fill="#D6BEAC" transform="translate(188,306)"/>
<path d="M0 0 C1.11375 0.556875 1.11375 0.556875 2.25 1.125 C2.25 1.785 2.25 2.445 2.25 3.125 C3.7040625 3.5271875 3.7040625 3.5271875 5.1875 3.9375 C6.198125 4.329375 7.20875 4.72125 8.25 5.125 C8.58 6.115 8.91 7.105 9.25 8.125 C11.725 8.62 11.725 8.62 14.25 9.125 C14.25 9.785 14.25 10.445 14.25 11.125 C14.86875 11.186875 15.4875 11.24875 16.125 11.3125 C16.82625 11.580625 17.5275 11.84875 18.25 12.125 C18.7140625 13.3315625 18.7140625 13.3315625 19.1875 14.5625 C20.01080395 17.36542174 20.01080395 17.36542174 22.8125 18.3125 C23.616875 18.580625 24.42125 18.84875 25.25 19.125 C25.745 20.115 25.745 20.115 26.25 21.125 C23.61 20.465 20.97 19.805 18.25 19.125 C18.25 18.465 18.25 17.805 18.25 17.125 C17.59 17.125 16.93 17.125 16.25 17.125 C13.95351351 14.5635343 13.25 13.64532428 13.25 10.125 C10.94 9.795 8.63 9.465 6.25 9.125 C5.92 8.135 5.59 7.145 5.25 6.125 C3.93 6.125 2.61 6.125 1.25 6.125 C-0.890625 5.03125 -0.890625 5.03125 -3 3.625 C-3.70640625 3.1609375 -4.4128125 2.696875 -5.140625 2.21875 C-5.67171875 1.8578125 -6.2028125 1.496875 -6.75 1.125 C-3.09375 -0.984375 -3.09375 -0.984375 0 0 Z " fill="#E0AC70" transform="translate(255.75,130.875)"/>
<path d="M0 0 C0.66 0 1.32 0 2 0 C1.431775 3.66910998 0.05620402 5.24478235 -2.625 7.75 C-5.38985861 10.40662571 -8.00923962 13.08454776 -10.5 16 C-14.1227364 20.21676477 -18.02456645 24.11749866 -22 28 C-22.33 26.68 -22.66 25.36 -23 24 C-22.34 24 -21.68 24 -21 24 C-20.7525 23.21625 -20.505 22.4325 -20.25 21.625 C-18.79219136 18.56360186 -17.92006527 18.41293481 -15 17 C-14.87367188 16.37222656 -14.74734375 15.74445313 -14.6171875 15.09765625 C-13.79690013 12.30971754 -12.69458309 11.87680259 -10.1875 10.5 C-5.48068876 7.74664172 -2.1913762 5.11321114 0 0 Z " fill="#362117" transform="translate(236,123)"/>
<path d="M0 0 C0.33 0 0.66 0 1 0 C1.75738944 13.99066598 1.75738944 13.99066598 -3 20 C-6.54998836 23.80925717 -9.71884643 25.62277474 -15 26 C-14.38125 25.773125 -13.7625 25.54625 -13.125 25.3125 C-10.76128418 24.14688017 -10.76128418 24.14688017 -10 21.4375 C-9.67 20.633125 -9.34 19.82875 -9 19 C-6.875 18.1875 -6.875 18.1875 -5 18 C-4.87625 16.948125 -4.7525 15.89625 -4.625 14.8125 C-4.08859218 11.54041229 -3.36119965 8.99463924 -2 6 C-1.34 6 -0.68 6 0 6 C0 4.02 0 2.04 0 0 Z " fill="#CC7E36" transform="translate(315,184)"/>
<path d="M0 0 C0.99 0.99 1.98 1.98 3 3 C1.67267046 4.67145202 0.33773782 6.33686649 -1 8 C-1.39703125 8.52722656 -1.7940625 9.05445312 -2.203125 9.59765625 C-4.86598221 13.02734892 -6.90818395 14.63606132 -11 16 C-11.33 16.66 -11.66 17.32 -12 18 C-13.32 17.67 -14.64 17.34 -16 17 C-13.70891588 14.54112319 -11.41703299 12.08299232 -9.125 9.625 C-8.47402344 8.92632812 -7.82304687 8.22765625 -7.15234375 7.5078125 C-6.52714844 6.8375 -5.90195313 6.1671875 -5.2578125 5.4765625 C-4.6817627 4.85861816 -4.10571289 4.24067383 -3.51220703 3.60400391 C-2.36151331 2.38345858 -1.18613383 1.18613383 0 0 Z " fill="#4B4B4B" transform="translate(186,118)"/>
<path d="M0 0 C6.75 0.875 6.75 0.875 9 2 C11.12318064 2.0972886 13.24959691 2.12977619 15.375 2.125 C16.51710937 2.12757813 17.65921875 2.13015625 18.8359375 2.1328125 C21.43236152 2.0238268 23.53624883 1.76461243 26 1 C22.375 5.875 22.375 5.875 19 7 C11.2442149 7.4390067 6.22459139 5.59434126 0 1 C0 0.67 0 0.34 0 0 Z " fill="#866C61" transform="translate(170,348)"/>
<path d="M0 0 C1.65 0 3.3 0 5 0 C5 0.66 5 1.32 5 2 C5.845625 2.268125 6.69125 2.53625 7.5625 2.8125 C11 4 11 4 14.0625 5.4375 C19.42950518 7.81743895 25.28324334 8.78787565 31 10 C31 10.33 31 10.66 31 11 C21.69993576 11.66534641 15.15787289 10.57756394 7 6 C7 5.34 7 4.68 7 4 C6.401875 3.896875 5.80375 3.79375 5.1875 3.6875 C2.71756736 2.91123545 1.67748765 1.92911079 0 0 Z " fill="#DFA76F" transform="translate(177,354)"/>
<path d="M0 0 C0.33 0 0.66 0 1 0 C1.042721 1.66611905 1.04063832 3.33382885 1 5 C0.67 5.33 0.34 5.66 0 6 C-0.08631874 7.34267413 -0.10706473 8.68974322 -0.09765625 10.03515625 C-0.09443359 10.84404297 -0.09121094 11.65292969 -0.08789062 12.48632812 C-0.07951172 13.33646484 -0.07113281 14.18660156 -0.0625 15.0625 C-0.05798828 15.91650391 -0.05347656 16.77050781 -0.04882812 17.65039062 C-0.03700373 19.76695663 -0.01906769 21.88348685 0 24 C-2.91848864 21.67215787 -3.91752281 20.50335345 -4.53125 16.7578125 C-4.42632652 4.56045762 -4.42632652 4.56045762 0 0 Z " fill="#999796" transform="translate(189,233)"/>
<path d="M0 0 C3.93502089 3.80808473 5.16728942 5.63756871 5.3125 11.125 C5.27506256 16.81549015 4.01765988 20.20724607 1 25 C0.34 25.33 -0.32 25.66 -1 26 C-0.855625 25.154375 -0.71125 24.30875 -0.5625 23.4375 C1.36949074 11.71506431 1.36949074 11.71506431 0 0 Z " fill="#3B2113" transform="translate(201,321)"/>
<path d="M0 0 C10.89 0 21.78 0 33 0 C27.138803 3.90746467 21.94329974 4.27523372 15.125 4.125 C13.949375 4.11146484 13.949375 4.11146484 12.75 4.09765625 C10.83319945 4.07428063 8.91655809 4.03841653 7 4 C6.67 3.34 6.34 2.68 6 2 C2.97065509 1.34227572 2.97065509 1.34227572 0 1 C0 0.67 0 0.34 0 0 Z " fill="#BAB9BA" transform="translate(308,265)"/>
<path d="M0 0 C1.13308594 -0.02578125 2.26617187 -0.0515625 3.43359375 -0.078125 C6.81497115 0.27647637 8.19421903 0.85262466 10.5625 3.25 C10.5625 3.91 10.5625 4.57 10.5625 5.25 C9.2425 5.25 7.9225 5.25 6.5625 5.25 C6.5625 4.59 6.5625 3.93 6.5625 3.25 C-1.3575 3.745 -1.3575 3.745 -9.4375 4.25 C-9.4375 3.26 -9.4375 2.27 -9.4375 1.25 C-6.11752061 0.1433402 -3.49443373 0.04759728 0 0 Z " fill="#868686" transform="translate(241.4375,68.75)"/>
<path d="M0 0 C-0.639375 0.268125 -1.27875 0.53625 -1.9375 0.8125 C-4.33131686 1.88667752 -4.33131686 1.88667752 -5 5 C-7.3984375 6.53515625 -7.3984375 6.53515625 -10.375 8.0625 C-13.37011248 9.61537494 -16.18985066 11.12656711 -19 13 C-21.26171875 13.1953125 -21.26171875 13.1953125 -23.6875 13.125 C-24.89986328 13.09792969 -24.89986328 13.09792969 -26.13671875 13.0703125 C-27.05904297 13.03550781 -27.05904297 13.03550781 -28 13 C-25.03814367 11.46753141 -22.03682861 10.1669471 -18.9375 8.9375 C-18.08027344 8.59589844 -17.22304687 8.25429688 -16.33984375 7.90234375 C-14.57686869 7.22246522 -12.79256361 6.5975212 -11 6 C-11 5.34 -11 4.68 -11 4 C-10.01 4 -9.02 4 -8 4 C-8 3.34 -8 2.68 -8 2 C-3.61016949 -1.20338983 -3.61016949 -1.20338983 0 0 Z " fill="#DEA464" transform="translate(272,351)"/>
<path d="M0 0 C9.9 0 19.8 0 30 0 C30 0.33 30 0.66 30 1 C9.26470588 5.11764706 9.26470588 5.11764706 0 1 C0 0.67 0 0.34 0 0 Z " fill="#A09D9C" transform="translate(276,266)"/>
<path d="M0 0 C0.33 0.66 0.66 1.32 1 2 C-2.51545707 5.51545707 -5.12156996 6.55650636 -10 7 C-15.27680975 6.79704578 -20.21209073 6.39395463 -25 4 C-21.66830705 2.9712112 -18.78266663 2.98891503 -15.3125 3.125 C-9.66284043 3.19432098 -5.17802167 2.19673646 0 0 Z " fill="#D59965" transform="translate(238,322)"/>
<path d="M0 0 C0.66 0.33 1.32 0.66 2 1 C1.46828162 5.02455812 -0.50221822 6.81522811 -3.375 9.5625 C-4.16648438 10.32691406 -4.95796875 11.09132812 -5.7734375 11.87890625 C-6.50820312 12.57886719 -7.24296875 13.27882812 -8 14 C-9.00328045 14.99670875 -10.00482695 15.99519624 -11 17 C-11.75 15.25 -11.75 15.25 -12 13 C-10.1875 10.75 -10.1875 10.75 -8 9 C-7.34 9 -6.68 9 -6 9 C-5.7525 8.2575 -5.505 7.515 -5.25 6.75 C-3.90852699 3.79875938 -2.39094474 2.15185026 0 0 Z " fill="#342E2A" transform="translate(153,211)"/>
<path d="M0 0 C4.93010287 0.14939706 7.19384443 2.78572568 10.44921875 6.11328125 C13.89137028 10.30108777 14.29500523 13.45162132 14.3125 18.875 C14.32925781 20.06867188 14.34601563 21.26234375 14.36328125 22.4921875 C13.97040185 26.28579715 12.89932304 28.7225402 11 32 C10.375 30.25 10.375 30.25 10 28 C10.3196875 27.401875 10.639375 26.80375 10.96875 26.1875 C12.21759237 23.53844043 12.20163314 21.6620594 12.125 18.75 C12.09792969 17.41195313 12.09792969 17.41195313 12.0703125 16.046875 C12.04710937 15.37140625 12.02390625 14.6959375 12 14 C11.67 14 11.34 14 11 14 C11 12.35 11 10.7 11 9 C10.34 9 9.68 9 9 9 C9 8.34 9 7.68 9 7 C8.34 7 7.68 7 7 7 C5.375 5.625 5.375 5.625 4 4 C4 3.34 4 2.68 4 2 C2.68 1.34 1.36 0.68 0 0 Z " fill="#C58141" transform="translate(296,284)"/>
<path d="M0 0 C0.66 0 1.32 0 2 0 C2 0.66 2 1.32 2 2 C1.34 2 0.68 2 0 2 C-0.02689449 4.95839355 -0.04678741 7.91654427 -0.0625 10.875 C-0.07087891 11.71675781 -0.07925781 12.55851563 -0.08789062 13.42578125 C-0.09272461 14.63427734 -0.09272461 14.63427734 -0.09765625 15.8671875 C-0.10289307 16.61081543 -0.10812988 17.35444336 -0.11352539 18.12060547 C-0.11786636 20.09132568 -0.11786636 20.09132568 1 22 C1.039992 23.99960012 1.04346799 26.00047242 1 28 C0.34 28 -0.32 28 -1 28 C-3.73865325 19.09937693 -4.33140677 9.81842969 -1 1 C-0.67 0.67 -0.34 0.34 0 0 Z " fill="#2D2728" transform="translate(138,228)"/>
<path d="M0 0 C2.58396679 -0.08112454 5.16537568 -0.14054748 7.75 -0.1875 C8.47960937 -0.21263672 9.20921875 -0.23777344 9.9609375 -0.26367188 C13.34486604 -0.30981636 15.57858557 -0.25324128 18.515625 1.51171875 C19.00546875 2.00285156 19.4953125 2.49398438 20 3 C19.67 3.66 19.34 4.32 19 5 C18.38125 4.67 17.7625 4.34 17.125 4 C11.07619143 2.06438126 5.28190514 2.0355878 -0.4375 4.9375 C-1.05496094 5.29714844 -1.67242187 5.65679687 -2.30859375 6.02734375 C-4 7 -4 7 -7 8 C-6.67 6.35 -6.34 4.7 -6 3 C-5.34 3.33 -4.68 3.66 -4 4 C-1.90178785 3.60061233 -1.90178785 3.60061233 0 3 C0 2.01 0 1.02 0 0 Z " fill="#BEB0A5" transform="translate(280,280)"/>
<path d="M0 0 C1.51995121 0.24743392 3.03967286 0.49631801 4.55859375 0.75 C8.98942099 1.20371671 13.44382977 0.95912474 17.890625 0.83984375 C21 1 21 1 24 3 C22.97261719 2.96519531 21.94523437 2.93039063 20.88671875 2.89453125 C10.36289585 2.64757085 1.81272834 3.99124775 -8 8 C-6.54098339 4.15350168 -4.5612873 2.91761624 -1 1 C-0.67 0.67 -0.34 0.34 0 0 Z " fill="#C28651" transform="translate(204,163)"/>
<path d="M0 0 C11.14983163 -0.51726023 19.59964702 0.55666253 28.50390625 7.59765625 C30 9 30 9 31 11 C30.01 11.33 29.02 11.66 28 12 C28 11.01 28 10.02 28 9 C26.68 8.67 25.36 8.34 24 8 C24 7.34 24 6.68 24 6 C16.11962476 3.276368 8.26082413 2.01177241 0 1 C0 0.67 0 0.34 0 0 Z " fill="#D0AE99" transform="translate(212,165)"/>
<path d="M0 0 C0.66 0.99 1.32 1.98 2 3 C0 5 0 5 -2 6 C-2.68729254 8.11846285 -2.68729254 8.11846285 -3.125 10.5625 C-3.29257813 11.38878906 -3.46015625 12.21507812 -3.6328125 13.06640625 C-3.75398437 13.70449219 -3.87515625 14.34257812 -4 15 C-5.32 15.33 -6.64 15.66 -8 16 C-7.85055259 8.97597192 -4.50096088 5.18256853 0 0 Z " fill="#B39F9A" transform="translate(147,222)"/>
<path d="M0 0 C-0.41314562 4.44926052 -3.50461527 6.84100104 -6.5625 9.75 C-7.08263672 10.25660156 -7.60277344 10.76320312 -8.13867188 11.28515625 C-9.41910084 12.53034405 -10.70867554 13.76611502 -12 15 C-12.83203125 13.359375 -12.83203125 13.359375 -13 11 C-11.28556989 8.85771037 -9.67012184 7.10825073 -7.6875 5.25 C-7.17509766 4.74339844 -6.66269531 4.23679688 -6.13476562 3.71484375 C-2.29475868 0 -2.29475868 0 0 0 Z " fill="#382C29" transform="translate(170,196)"/>
<path d="M0 0 C0.99 0.33 1.98 0.66 3 1 C2.93976735 2.60520004 2.85091401 4.20934327 2.75 5.8125 C2.70359375 6.70582031 2.6571875 7.59914062 2.609375 8.51953125 C2 11 2 11 -0.046875 12.82421875 C-1.01367188 13.40623047 -1.01367188 13.40623047 -2 14 C-2.05437607 12.41705218 -2.09296271 10.83355744 -2.125 9.25 C-2.14820312 8.36828125 -2.17140625 7.4865625 -2.1953125 6.578125 C-1.99139502 3.8864142 -1.36551721 2.30095026 0 0 Z " fill="#2C2C2C" transform="translate(98,223)"/>
<path d="M0 0 C-6.89802909 4.27810458 -12.02600993 4.37873764 -20 3.75 C-21.06089844 3.68425781 -22.12179688 3.61851562 -23.21484375 3.55078125 C-25.81188731 3.38700373 -28.40577725 3.20299282 -31 3 C-31 2.67 -31 2.34 -31 2 C-29.081875 1.92652344 -29.081875 1.92652344 -27.125 1.8515625 C-25.41664778 1.77647009 -23.70831541 1.70092513 -22 1.625 C-21.16082031 1.5940625 -20.32164062 1.563125 -19.45703125 1.53125 C-15.35846672 1.34061909 -11.588342 0.99221695 -7.625 -0.1015625 C-4.17449228 -0.95675299 -3.18933863 -1.00018081 0 0 Z " fill="#E2D4C5" transform="translate(244,368)"/>
<path d="M0 0 C-1.36911804 3.1489715 -2.8752136 5.0478487 -5.5 7.25 C-6.41265625 8.03117187 -6.41265625 8.03117187 -7.34375 8.828125 C-9 10 -9 10 -11 10 C-9.26873217 3.65201794 -7.20700882 -0.80077876 0 0 Z " fill="#C8B8AF" transform="translate(273,288)"/>
<path d="M0 0 C-1.36370299 2.99220268 -2.94908083 5.29026529 -5.125 7.75 C-5.93324219 8.67039062 -5.93324219 8.67039062 -6.7578125 9.609375 C-7.37269531 10.29773438 -7.37269531 10.29773438 -8 11 C-9.32 10.34 -10.64 9.68 -12 9 C-10.625 7 -10.625 7 -9 5 C-8.34 5 -7.68 5 -7 5 C-6.566875 4.0409375 -6.566875 4.0409375 -6.125 3.0625 C-4.45129782 -0.005954 -3.47574769 0 0 0 Z " fill="#2D2926" transform="translate(248,113)"/>
<path d="M0 0 C2.475 0.495 2.475 0.495 5 1 C5.33 1.99 5.66 2.98 6 4 C8.00016466 5.20882096 8.00016466 5.20882096 10 6 C10 6.66 10 7.32 10 8 C10.639375 8.268125 11.27875 8.53625 11.9375 8.8125 C14 10 14 10 15 13 C12 13 12 13 9.08203125 10.41015625 C7.98442437 9.30190591 6.89485507 8.18565055 5.8125 7.0625 C5.25369141 6.49853516 4.69488281 5.93457031 4.11914062 5.35351562 C0 1.15390339 0 1.15390339 0 0 Z " fill="#C5B7B5" transform="translate(174,292)"/>
<path d="M0 0 C1.32 0 2.64 0 4 0 C4 0.66 4 1.32 4 2 C4.99 2 5.98 2 7 2 C7.33 2.99 7.66 3.98 8 5 C9.32 5.33 10.64 5.66 12 6 C12.66 8.64 13.32 11.28 14 14 C9.10565787 9.90473413 4.29279666 5.73642915 0 1 C0 0.67 0 0.34 0 0 Z " fill="#BFAEAB" transform="translate(188,306)"/>
<path d="M0 0 C0.33 0.66 0.66 1.32 1 2 C1.66 2 2.32 2 3 2 C5.02558881 5.34939881 5.21738987 7.86962551 5.125 11.75 C5.10695313 12.73484375 5.08890625 13.7196875 5.0703125 14.734375 C5.03550781 15.85585938 5.03550781 15.85585938 5 17 C4.01 17.33 3.02 17.66 2 18 C1.93941406 17.11957031 1.87882812 16.23914063 1.81640625 15.33203125 C1.73261719 14.17058594 1.64882813 13.00914062 1.5625 11.8125 C1.48128906 10.66394531 1.40007812 9.51539063 1.31640625 8.33203125 C1.04596188 5.48401829 0.62478253 2.78789518 0 0 Z " fill="#D77D2B" transform="translate(304,291)"/>
<path d="M0 0 C3.9311481 1.73747039 7.27148084 4.24386544 10.6875 6.8125 C11.28111328 7.23853516 11.87472656 7.66457031 12.48632812 8.10351562 C15.23567089 10.17571126 16.83962697 11.49366942 17.89453125 14.82421875 C17.94673828 15.90123047 17.94673828 15.90123047 18 17 C17.01 16.34 16.02 15.68 15 15 C15.33 14.34 15.66 13.68 16 13 C14.35 12.67 12.7 12.34 11 12 C11 11.01 11 10.02 11 9 C10.113125 8.79375 9.22625 8.5875 8.3125 8.375 C4.05692816 6.60853622 2.67466035 4.69732461 0 1 C0 0.67 0 0.34 0 0 Z " fill="#CAB2A5" transform="translate(243,176)"/>
<path d="M0 0 C0 3.51716303 -0.82445585 4.37121748 -3 7 C-2.34 7 -1.68 7 -1 7 C-1 7.66 -1 8.32 -1 9 C-1.78375 9.103125 -2.5675 9.20625 -3.375 9.3125 C-6.33045181 9.77595022 -6.33045181 9.77595022 -8 13 C-9.32 13 -10.64 13 -12 13 C-10.56652501 9.61042892 -8.81218308 7.7219322 -6 5.375 C-3.92339664 3.6266832 -1.92037235 1.92037235 0 0 Z " fill="#CF8947" transform="translate(251,311)"/>
<path d="M0 0 C0.33 0.66 0.66 1.32 1 2 C0.34 2 -0.32 2 -1 2 C-1.33 2.99 -1.66 3.98 -2 5 C-3.33333333 5.66666667 -4.66666667 6.33333333 -6 7 C-6.845625 7.86625 -7.69125 8.7325 -8.5625 9.625 C-11 12 -11 12 -14 12 C-14 11.01 -14 10.02 -14 9 C-13.24074219 8.60167969 -12.48148437 8.20335937 -11.69921875 7.79296875 C-10.70535156 7.26316406 -9.71148437 6.73335938 -8.6875 6.1875 C-7.70136719 5.66542969 -6.71523438 5.14335937 -5.69921875 4.60546875 C-3.38334932 3.2280124 -1.76388999 2.00469409 0 0 Z " fill="#E3C9B5" transform="translate(270,352)"/>
<path d="M0 0 C0.66 0.99 1.32 1.98 2 3 C1.195625 3.763125 0.39125 4.52625 -0.4375 5.3125 C-3.16799024 7.79430898 -3.16799024 7.79430898 -4 11 C-5.32 11 -6.64 11 -8 11 C-7.43040847 7.37386801 -6.07625466 5.74482259 -3.4375 3.25 C-2.79683594 2.63640625 -2.15617188 2.0228125 -1.49609375 1.390625 C-1.00238281 0.93171875 -0.50867188 0.4728125 0 0 Z " fill="#C2B0AF" transform="translate(156,213)"/>
<path d="M0 0 C0.28125 2.19921875 0.28125 2.19921875 0 5 C-1.96875 7.45703125 -1.96875 7.45703125 -4.5 9.8125 C-5.3353125 10.60269531 -6.170625 11.39289063 -7.03125 12.20703125 C-7.6809375 12.79871094 -8.330625 13.39039063 -9 14 C-9.66 13.34 -10.32 12.68 -11 12 C-10.01 11.67 -9.02 11.34 -8 11 C-7.71125 10.0925 -7.4225 9.185 -7.125 8.25 C-6.13418491 5.38764531 -3.65850344 0 0 0 Z " fill="#342D28" transform="translate(183,180)"/>
<path d="M0 0 C0.99 0.66 1.98 1.32 3 2 C2.67 2.66 2.34 3.32 2 4 C1.46375 3.67 0.9275 3.34 0.375 3 C-2.65696965 1.7233812 -4.74003936 1.58383481 -8 2 C-9.70532323 3.94009522 -9.70532323 3.94009522 -11 6 C-11.99 6 -12.98 6 -14 6 C-14 6.66 -14 7.32 -14 8 C-14.66 8 -15.32 8 -16 8 C-15.00102287 5.00306862 -14.34869747 3.97290587 -12 2 C-11.34 2 -10.68 2 -10 2 C-10 1.34 -10 0.68 -10 0 C-6.22021469 -2.61677444 -4.07528317 -1.73416305 0 0 Z " fill="#D38238" transform="translate(250,128)"/>
<path d="M0 0 C1.37562854 1.28965176 2.70766393 2.62689293 4 4 C4 4.66 4 5.32 4 6 C4.66 6.33 5.32 6.66 6 7 C6.33 7.99 6.66 8.98 7 10 C3.32579134 9.69381595 2.21864487 9.24228216 -0.3125 6.4375 C-0.869375 5.633125 -1.42625 4.82875 -2 4 C-1.34 2.68 -0.68 1.36 0 0 Z " fill="#9C9999" transform="translate(189,254)"/>
<path d="M0 0 C0.33 0.99 0.66 1.98 1 3 C1.886875 3.061875 2.77375 3.12375 3.6875 3.1875 C7.74081992 4.18171055 9.29831749 5.90101124 12 9 C11.67 9.99 11.34 10.98 11 12 C10.443125 11.3503125 10.443125 11.3503125 9.875 10.6875 C7.48718905 8.53847015 4.8980432 7.35242016 2 6 C2 5.34 2 4.68 2 4 C0.68 3.67 -0.64 3.34 -2 3 C-2 2.34 -2 1.68 -2 1 C-1.34 0.67 -0.68 0.34 0 0 Z " fill="#DAC5B5" transform="translate(256,128)"/>
<path d="M0 0 C0.33 0.66 0.66 1.32 1 2 C0.22265625 4.1640625 0.22265625 4.1640625 -0.9375 6.625 C-1.31777344 7.44226563 -1.69804687 8.25953125 -2.08984375 9.1015625 C-2.54037109 10.04128906 -2.54037109 10.04128906 -3 11 C-4.65 10.67 -6.3 10.34 -8 10 C-5.61820737 6.25718301 -3.25524265 3.02272532 0 0 Z " fill="#8F8583" transform="translate(247,115)"/>
<path d="M0 0 C-1.53643852 3.68069887 -3.78150945 5.98775204 -6.625 8.75 C-7.85089844 9.94882813 -7.85089844 9.94882813 -9.1015625 11.171875 C-9.72804687 11.77515625 -10.35453125 12.3784375 -11 13 C-11.33 12.01 -11.66 11.02 -12 10 C-11.21625 9.443125 -10.4325 8.88625 -9.625 8.3125 C-6.87896913 5.89337756 -6.18418704 4.37037849 -5 1 C-3 0 -3 0 0 0 Z " fill="#34231A" transform="translate(208,156)"/>
<path d="M0 0 C0 1.65 0 3.3 0 5 C-0.61875 5.061875 -1.2375 5.12375 -1.875 5.1875 C-2.57625 5.455625 -3.2775 5.72375 -4 6 C-4.70211894 7.65204456 -5.36971413 9.31923769 -6 11 C-6.99 11.33 -7.98 11.66 -9 12 C-9.66 11.34 -10.32 10.68 -11 10 C-9.35718838 8.33035479 -7.71067239 6.6643536 -6.0625 5 C-5.14597656 4.071875 -4.22945312 3.14375 -3.28515625 2.1875 C-1 0 -1 0 0 0 Z " fill="#585858" transform="translate(216,87)"/>
<path d="M0 0 C0.99 0.33 1.98 0.66 3 1 C2.4375 2.875 2.4375 2.875 1 5 C-2.05178356 6.0899227 -4.74156238 7 -8 7 C-7.67 6.01 -7.34 5.02 -7 4 C-5.68 4 -4.36 4 -3 4 C-2.67 3.01 -2.34 2.02 -2 1 C-1.34 0.67 -0.68 0.34 0 0 Z " fill="#D58039" transform="translate(213,157)"/>
<path d="M0 0 C6.75 0.875 6.75 0.875 9 2 C10.53668865 2.22467831 12.07968054 2.40796805 13.625 2.5625 C14.44226563 2.64628906 15.25953125 2.73007812 16.1015625 2.81640625 C16.72804687 2.87699219 17.35453125 2.93757813 18 3 C18 3.33 18 3.66 18 4 C6.1746684 5.76040535 6.1746684 5.76040535 2.25 3.125 C1.5075 2.42375 0.765 1.7225 0 1 C0 0.67 0 0.34 0 0 Z " fill="#585451" transform="translate(170,348)"/>
<path d="M0 0 C2.49936244 2.49936244 3.03723753 4.64808008 4.125 8 C4.47820312 9.0725 4.83140625 10.145 5.1953125 11.25 C6 14 6 14 6 16 C4.078125 15.26953125 4.078125 15.26953125 2 14 C1.171875 12.01171875 1.171875 12.01171875 0.75 9.6875 C0.60304688 8.88828125 0.45609375 8.0890625 0.3046875 7.265625 C-0.0246107 4.81699732 -0.15919559 2.46753166 0 0 Z " fill="#B3B3B3" transform="translate(96,260)"/>
<path d="M0 0 C0 3.86695678 -1.41909971 6.5088452 -3 10 C-3.33 9.34 -3.66 8.68 -4 8 C-6.97 10.475 -6.97 10.475 -10 13 C-10.66 12.67 -11.32 12.34 -12 12 C-8.32167983 7.47384007 -4.58913637 3.60575001 0 0 Z " fill="#CC894B" transform="translate(270,292)"/>
<path d="M0 0 C0.33 0 0.66 0 1 0 C1.0814222 2.22855574 1.13938079 4.45797655 1.1875 6.6875 C1.22230469 7.92886719 1.25710938 9.17023438 1.29296875 10.44921875 C0.98129038 14.2267606 0.13988784 15.94301737 -2 19 C-2.69579454 21.19130534 -2.69579454 21.19130534 -3 23 C-4.32 22.67 -5.64 22.34 -7 22 C-5.73046875 20.53515625 -4.4609375 19.0703125 -3.19140625 17.60546875 C-0.64754275 14.17750842 -0.72296348 10.43133016 -0.4375 6.3125 C-0.35371094 5.13300781 -0.26992188 3.95351562 -0.18359375 2.73828125 C-0.12300781 1.83464844 -0.06242187 0.93101562 0 0 Z " fill="#C5A288" transform="translate(316,184)"/>
<path d="M0 0 C0.763125 0.309375 1.52625 0.61875 2.3125 0.9375 C4.18789677 1.67893593 6.08684652 2.36228217 8 3 C9.70586575 4.62652316 11.3777546 6.29006566 13 8 C12.67 8.99 12.34 9.98 12 11 C10.56047403 9.89847594 9.12345929 8.7936696 7.6875 7.6875 C6.88699219 7.07261719 6.08648437 6.45773438 5.26171875 5.82421875 C3.36911362 4.29771341 1.63114792 2.80006939 0 1 C0 0.67 0 0.34 0 0 Z " fill="#EAD0BE" transform="translate(275,145)"/>
<path d="M0 0 C1.2065625 0.0309375 1.2065625 0.0309375 2.4375 0.0625 C2.4375 0.7225 2.4375 1.3825 2.4375 2.0625 C3.7575 2.3925 5.0775 2.7225 6.4375 3.0625 C-0.4925 3.0625 -7.4225 3.0625 -14.5625 3.0625 C-14.5625 2.7325 -14.5625 2.4025 -14.5625 2.0625 C-13.78003906 2.00191406 -12.99757813 1.94132813 -12.19140625 1.87890625 C-11.17949219 1.79511719 -10.16757812 1.71132812 -9.125 1.625 C-8.11566406 1.54378906 -7.10632813 1.46257812 -6.06640625 1.37890625 C-3.14883217 1.01022684 -2.96221017 0.07224903 0 0 Z " fill="#A8A5A4" transform="translate(305.5625,221.9375)"/>
<path d="M0 0 C0 3 0 3 -1 6 C-2.7421875 7.16796875 -2.7421875 7.16796875 -4.875 8.1875 C-5.57367188 8.53167969 -6.27234375 8.87585938 -6.9921875 9.23046875 C-9 10 -9 10 -12 10 C-11.67 9.34 -11.34 8.68 -11 8 C-8.6859378 7.26924352 -6.35171131 6.59861742 -4 6 C-4 5.34 -4 4.68 -4 4 C-4.66 3.67 -5.32 3.34 -6 3 C-4.02 2.01 -2.04 1.02 0 0 Z " fill="#F1F1F1" transform="translate(395,413)"/>
<path d="M0 0 C5.28 0.33 10.56 0.66 16 1 C16 1.66 16 2.32 16 3 C10.72 3 5.44 3 0 3 C0 2.01 0 1.02 0 0 Z " fill="#DF9555" transform="translate(216,327)"/>
<path d="M0 0 C0.66 0.33 1.32 0.66 2 1 C-1.75 5.875 -1.75 5.875 -4 7 C-4.28875 7.66 -4.5775 8.32 -4.875 9 C-6 11 -6 11 -8.125 11.75 C-9.053125 11.87375 -9.053125 11.87375 -10 12 C-7.49653351 7.14032976 -3.91447559 3.72143296 0 0 Z " fill="#B8A69E" transform="translate(195,171)"/>
<path d="M0 0 C2.475 0.495 2.475 0.495 5 1 C5.33 1.99 5.66 2.98 6 4 C7.65204456 4.70211894 9.31923769 5.36971413 11 6 C11.33 6.66 11.66 7.32 12 8 C9.36 7.34 6.72 6.68 4 6 C4 5.34 4 4.68 4 4 C3.34 4 2.68 4 2 4 C1.34 2.68 0.68 1.36 0 0 Z " fill="#DDA35E" transform="translate(270,144)"/>
<path d="M0 0 C1.11375 0.556875 1.11375 0.556875 2.25 1.125 C2.25 1.785 2.25 2.445 2.25 3.125 C3.24 3.455 4.23 3.785 5.25 4.125 C3.515625 5.2734375 3.515625 5.2734375 1.25 6.125 C-0.890625 5.2265625 -0.890625 5.2265625 -3 3.75 C-3.70640625 3.26789063 -4.4128125 2.78578125 -5.140625 2.2890625 C-5.67171875 1.90492188 -6.2028125 1.52078125 -6.75 1.125 C-3.09375 -0.984375 -3.09375 -0.984375 0 0 Z " fill="#DCA363" transform="translate(255.75,130.875)"/>
<path d="M0 0 C0.33 0 0.66 0 1 0 C1.04898438 0.63808594 1.09796875 1.27617188 1.1484375 1.93359375 C1.22320312 2.75988281 1.29796875 3.58617188 1.375 4.4375 C1.44460937 5.26121094 1.51421875 6.08492188 1.5859375 6.93359375 C1.72257813 7.61550781 1.85921875 8.29742187 2 9 C2.66 9.33 3.32 9.66 4 10 C4 10.66 4 11.32 4 12 C1.45849583 11.66113278 0.30606717 11.36171575 -1.375 9.375 C-2.29568046 5.87641426 -1.15909359 3.3484926 0 0 Z " fill="#C0B0AA" transform="translate(250,118)"/>
<path d="M0 0 C0.99 0.33 1.98 0.66 3 1 C3 3.64 3 6.28 3 9 C0.525 8.01 0.525 8.01 -2 7 C-1.34 4.69 -0.68 2.38 0 0 Z " fill="#AB9F9C" transform="translate(246,119)"/>
<path d="M0 0 C0.33 0 0.66 0 1 0 C1.06058594 0.69867188 1.12117187 1.39734375 1.18359375 2.1171875 C1.26738281 3.02726563 1.35117188 3.93734375 1.4375 4.875 C1.51871094 5.77992188 1.59992188 6.68484375 1.68359375 7.6171875 C1.86989285 10.01110861 1.86989285 10.01110861 3 12 C3.039992 13.99960012 3.04346799 16.00047242 3 18 C2.34 18 1.68 18 1 18 C-0.2039337 14.24600202 -0.09877617 10.66782588 -0.0625 6.75 C-0.05347656 5.48671875 -0.04445312 4.2234375 -0.03515625 2.921875 C-0.02355469 1.95765625 -0.01195312 0.9934375 0 0 Z " fill="#2C1E1A" transform="translate(136,238)"/>
<path d="M0 0 C0.99 0.33 1.98 0.66 3 1 C3 1.66 3 2.32 3 3 C3.8353125 3.3403125 3.8353125 3.3403125 4.6875 3.6875 C7.63246684 5.35896766 9.68156544 7.55276352 12 10 C9.0625 9.1875 9.0625 9.1875 6 8 C5.67 7.01 5.34 6.02 5 5 C4.34 4.67 3.68 4.34 3 4 C1 3 1 3 0 0 Z " fill="#D5A35E" transform="translate(282,152)"/>
<path d="M0 0 C3.65316671 1.24976756 4.78065836 1.67098753 7 5 C5 6 5 6 3.0546875 5.44140625 C2.33539063 5.15136719 1.61609375 4.86132812 0.875 4.5625 C0.15054688 4.27503906 -0.57390625 3.98757812 -1.3203125 3.69140625 C-2.15175781 3.34916016 -2.15175781 3.34916016 -3 3 C-2.01 2.01 -1.02 1.02 0 0 Z " fill="#5A5A5A" transform="translate(251,72)"/>
<path d="M0 0 C0 3.68553144 -0.8522582 5.03759752 -3 8 C-5.5625 9.875 -5.5625 9.875 -8 11 C-8.66 10.67 -9.32 10.34 -10 10 C-9.38125 9.7525 -8.7625 9.505 -8.125 9.25 C-5.64931313 7.79371361 -5.04874998 6.62187494 -4 4 C-3.34 4 -2.68 4 -2 4 C-1.34 2.68 -0.68 1.36 0 0 Z " fill="#DDBFA6" transform="translate(306,316)"/>
<path d="M0 0 C4.1424367 1.38081223 5.32203099 3.59825558 8 7 C7.34 7.66 6.68 8.32 6 9 C3.69 6.69 1.38 4.38 -1 2 C-0.67 1.34 -0.34 0.68 0 0 Z " fill="#C9C2C0" transform="translate(165,281)"/>
<path d="M0 0 C0.58265625 0.22558594 1.1653125 0.45117188 1.765625 0.68359375 C0.445625 1.01359375 -0.874375 1.34359375 -2.234375 1.68359375 C-2.234375 2.34359375 -2.234375 3.00359375 -2.234375 3.68359375 C-2.894375 4.15796875 -3.554375 4.63234375 -4.234375 5.12109375 C-5.224375 5.89453125 -5.224375 5.89453125 -6.234375 6.68359375 C-6.234375 7.67359375 -6.234375 8.66359375 -6.234375 9.68359375 C-6.894375 9.68359375 -7.554375 9.68359375 -8.234375 9.68359375 C-8.564375 8.36359375 -8.894375 7.04359375 -9.234375 5.68359375 C-8.16544282 4.64769037 -7.07859012 3.63025433 -5.984375 2.62109375 C-5.38109375 2.05261719 -4.7778125 1.48414063 -4.15625 0.8984375 C-2.234375 -0.31640625 -2.234375 -0.31640625 0 0 Z " fill="#A3A1A1" transform="translate(198.234375,226.31640625)"/>
<path d="M0 0 C0.66 0 1.32 0 2 0 C1.48223379 4.10447392 -0.64627444 5.95699523 -3.5625 8.75 C-4.80193359 9.94882813 -4.80193359 9.94882813 -6.06640625 11.171875 C-6.70449219 11.77515625 -7.34257812 12.3784375 -8 13 C-8 10 -8 10 -6.7578125 8.53515625 C-6.21898437 8.04917969 -5.68015625 7.56320313 -5.125 7.0625 C-2.80265596 4.86613217 -1.16754392 3.0356142 0 0 Z " fill="#3A1A09" transform="translate(236,123)"/>
<path d="M0 0 C2.8125 1.5625 2.8125 1.5625 5 3 C4.34 3.66 3.68 4.32 3 5 C3 4.34 3 3.68 3 3 C1.72125 3.020625 0.4425 3.04125 -0.875 3.0625 C-4.75 3.125 -4.75 3.125 -7 2 C-7 1.34 -7 0.68 -7 0 C-4.24779828 -1.37610086 -2.93781238 -0.81985462 0 0 Z " fill="#F5F5F5" transform="translate(388,28)"/>
<path d="M0 0 C5.46864457 1.01591421 10.76390013 2.07091057 16 4 C16 4.33 16 4.66 16 5 C4.29384966 4.58997722 4.29384966 4.58997722 0 0 Z " fill="#E4D0C1" transform="translate(192,364)"/>
<path d="M0 0 C0 0.33 0 0.66 0 1 C-1.98 1 -3.96 1 -6 1 C-6 1.66 -6 2.32 -6 3 C-10.455 3.495 -10.455 3.495 -15 4 C-10.26920346 -0.73079654 -6.41178163 -0.10686303 0 0 Z " fill="#E1984F" transform="translate(292,284)"/>
<path d="M0 0 C0.66 0.33 1.32 0.66 2 1 C-1.17320782 4.53586014 -3.16743695 6.58578031 -8 7 C-5.6875 4.5 -5.6875 4.5 -3 2 C-2.01 2 -1.02 2 0 2 C0 1.34 0 0.68 0 0 Z " fill="#DFCCC0" transform="translate(279,345)"/>
<path d="M0 0 C0.33 0 0.66 0 1 0 C1.10794277 2.26979665 1.18556176 4.54105196 1.25 6.8125 C1.29640625 8.07707031 1.3428125 9.34164063 1.390625 10.64453125 C1 14 1 14 -1.015625 15.94921875 C-1.67046875 16.29597656 -2.3253125 16.64273437 -3 17 C-2.690625 16.05125 -2.38125 15.1025 -2.0625 14.125 C-0.72071729 9.49061575 -0.36657993 4.79447959 0 0 Z " fill="#BA7137" transform="translate(206,328)"/>
<path d="M0 0 C3.37503669 1.1858237 5.64722731 2.27573689 8 5 C7.01 5 6.02 5 5 5 C4.67 5.99 4.34 6.98 4 8 C0 2.25 0 2.25 0 0 Z " fill="#C28555" transform="translate(202,320)"/>
<path d="M0 0 C0.66 0 1.32 0 2 0 C3.11658501 4.68965706 2.80619523 7.53763531 1 12 C0.67 12 0.34 12 0 12 C0 8.04 0 4.08 0 0 Z " fill="#DCCBC3" transform="translate(317,184)"/>
<path d="M0 0 C0.66 0.66 1.32 1.32 2 2 C-0.625 8.75 -0.625 8.75 -4 11 C-4.56638908 6.18569279 -2.82561627 3.79692186 0 0 Z " fill="#B5B5B5" transform="translate(260,99)"/>
<path d="M0 0 C1 3 1 3 0.5 5.125 C-1 7 -1 7 -4.625 7.75 C-5.73875 7.8325 -6.8525 7.915 -8 8 C-5.33333333 5.33333333 -2.66666667 2.66666667 0 0 Z " fill="#B96B35" transform="translate(202,345)"/>
<path d="M0 0 C1 3 1 3 0.07421875 5.0078125 C-0.38339844 5.70648438 -0.84101563 6.40515625 -1.3125 7.125 C-1.76238281 7.82882812 -2.21226562 8.53265625 -2.67578125 9.2578125 C-4 11 -4 11 -6 12 C-5.49396008 9.83125748 -5.00016187 8.00032373 -4 6 C-3.34 6 -2.68 6 -2 6 C-1.34 4.02 -0.68 2.04 0 0 Z " fill="#D3CFCD" transform="translate(311,310)"/>
<path d="M0 0 C0.33 0.66 0.66 1.32 1 2 C1.99 2 2.98 2 4 2 C4.33 3.98 4.66 5.96 5 8 C3.82780457 7.21654285 2.66236332 6.42297164 1.5 5.625 C0.8503125 5.18414062 0.200625 4.74328125 -0.46875 4.2890625 C-0.9740625 3.86367188 -1.479375 3.43828125 -2 3 C-2 2.34 -2 1.68 -2 1 C-1.34 0.67 -0.68 0.34 0 0 Z " fill="#C6BDBB" transform="translate(159,274)"/>
<path d="M0 0 C1.32 0 2.64 0 4 0 C4 0.66 4 1.32 4 2 C3.34 2 2.68 2 2 2 C2 2.66 2 3.32 2 4 C-0.3125 5.6875 -0.3125 5.6875 -3 7 C-3.99 6.67 -4.98 6.34 -6 6 C-2.25 3 -2.25 3 0 3 C0 2.01 0 1.02 0 0 Z " fill="#B9B7B6" transform="translate(309,207)"/>
<path d="M0 0 C0.33 0.99 0.66 1.98 1 3 C-0.65 4.32 -2.3 5.64 -4 7 C-4.33 5.35 -4.66 3.7 -5 2 C-2 0 -2 0 0 0 Z " fill="#3F251E" transform="translate(227,134)"/>
<path d="M0 0 C0.99 0.33 1.98 0.66 3 1 C-2.14285714 6.57142857 -2.14285714 6.57142857 -6 7 C-4.61990379 3.66476748 -3.15049348 1.81392049 0 0 Z " fill="#312A2A" transform="translate(230,128)"/>
<path d="M0 0 C-0.33 0.66 -0.66 1.32 -1 2 C-1.66 1.690625 -2.32 1.38125 -3 1.0625 C-6.70476015 -0.24960255 -10.09263991 -0.60264135 -14 -1 C-14 -1.33 -14 -1.66 -14 -2 C-8.34383017 -3.1838495 -4.8710274 -3.2473516 0 0 Z " fill="#BFA996" transform="translate(300,283)"/>
<path d="M0 0 C0.33 0 0.66 0 1 0 C3.11161731 9.41002278 3.11161731 9.41002278 4 14 C2 12.625 2 12.625 0 10 C-0.35791096 6.6419531 -0.23115823 3.36463643 0 0 Z " fill="#8A8885" transform="translate(185,243)"/>
<path d="M0 0 C0.33 0.99 0.66 1.98 1 3 C-1.31 4.98 -3.62 6.96 -6 9 C-5.67 7.35 -5.34 5.7 -5 4 C-4.0409375 3.8453125 -4.0409375 3.8453125 -3.0625 3.6875 C-2.381875 3.460625 -1.70125 3.23375 -1 3 C-0.67 2.01 -0.34 1.02 0 0 Z " fill="#332524" transform="translate(163,202)"/>
<path d="M0 0 C1.32 0.33 2.64 0.66 4 1 C0.04 4.465 0.04 4.465 -4 8 C-4.33 7.01 -4.66 6.02 -5 5 C-2.75 2.4375 -2.75 2.4375 0 0 Z " fill="#C6B6AB" transform="translate(184,183)"/>
<path d="M0 0 C1.67299959 0.65061095 3.33859237 1.32033324 5 2 C5.7425 2.28875 6.485 2.5775 7.25 2.875 C9 4 9 4 9.75 6.125 C9.87375 7.053125 9.87375 7.053125 10 8 C6.05205855 6.32971708 3.18203882 3.8204435 0 1 C0 0.67 0 0.34 0 0 Z " fill="#E7CFB5" transform="translate(288,156)"/>
<path d="M0 0 C0.66 0 1.32 0 2 0 C3.32 2.64 4.64 5.28 6 8 C5.01 8 4.02 8 3 8 C0.89229241 5.11165997 0 3.61537605 0 0 Z " fill="#BCA8A2" transform="translate(140,254)"/>
<path d="M0 0 C3.53600465 1.91135386 5.78972846 3.62642766 8 7 C6.68 7 5.36 7 4 7 C4 6.01 4 5.02 4 4 C3.01 4 2.02 4 1 4 C0.67 2.68 0.34 1.36 0 0 Z " fill="#CBA992" transform="translate(260,189)"/>
<path d="M0 0 C0.99 0.33 1.98 0.66 3 1 C1.68 2.65 0.36 4.3 -1 6 C-2.32 5.67 -3.64 5.34 -5 5 C-3.35 3.35 -1.7 1.7 0 0 Z " fill="#424242" transform="translate(175,130)"/>
<path d="M0 0 C0 3 0 3 -1.53125 4.82421875 C-2.1809375 5.43910156 -2.830625 6.05398438 -3.5 6.6875 C-4.1496875 7.31011719 -4.799375 7.93273437 -5.46875 8.57421875 C-5.9740625 9.04472656 -6.479375 9.51523437 -7 10 C-7.66 9.67 -8.32 9.34 -9 9 C-6.03 6.03 -3.06 3.06 0 0 Z " fill="#EEEEEE" transform="translate(411,402)"/>
<path d="M0 0 C7.48291572 6.15034169 7.48291572 6.15034169 10 10 C5.86360664 8.40907948 2.76786752 5.39525082 0 2 C0 1.34 0 0.68 0 0 Z " fill="#EEEEEE" transform="translate(38,402)"/>
<path d="M0 0 C2.97 0.33 5.94 0.66 9 1 C9 1.33 9 1.66 9 2 C4.545 2.495 4.545 2.495 0 3 C0 2.01 0 1.02 0 0 Z " fill="#D68D51" transform="translate(207,325)"/>
<path d="M0 0 C0.33 0.66 0.66 1.32 1 2 C1.66 2.33 2.32 2.66 3 3 C3 3.99 3 4.98 3 6 C3.33 6.66 3.66 7.32 4 8 C3.34 8.66 2.68 9.32 2 10 C-1.07692308 4.58461538 -1.07692308 4.58461538 -0.6875 1.625 C-0.460625 1.08875 -0.23375 0.5525 0 0 Z " fill="#CBBCB5" transform="translate(308,288)"/>
<path d="M0 0 C1.37562854 1.28965176 2.70766393 2.62689293 4 4 C4 4.66 4 5.32 4 6 C2.35 6 0.7 6 -1 6 C-1.042721 4.33388095 -1.04063832 2.66617115 -1 1 C-0.67 0.67 -0.34 0.34 0 0 Z " fill="#BBBBBB" transform="translate(105,282)"/>
<path d="M0 0 C0.66 0.33 1.32 0.66 2 1 C1.01 3.97 0.02 6.94 -1 10 C-1.33 10 -1.66 10 -2 10 C-2.17942163 6.05272412 -2.09350689 3.4019487 0 0 Z " fill="#CAC5C7" transform="translate(318,194)"/>
<path d="M0 0 C0.66 0 1.32 0 2 0 C2 0.66 2 1.32 2 2 C2.99 2 3.98 2 5 2 C5 3.65 5 5.3 5 7 C3.0625 6.3125 3.0625 6.3125 1 5 C0.25 2.375 0.25 2.375 0 0 Z " fill="#E3D9CC" transform="translate(297,160)"/>
<path d="M0 0 C2.475 0.495 2.475 0.495 5 1 C5 1.66 5 2.32 5 3 C5.99 3.33 6.98 3.66 8 4 C6 5 6 5 2.875 4.0625 C1.92625 3.711875 0.9775 3.36125 0 3 C0 2.01 0 1.02 0 0 Z " fill="#E4944D" transform="translate(244,129)"/>
<path d="M0 0 C-1.75 1.5625 -1.75 1.5625 -4 3 C-6.25 2.6875 -6.25 2.6875 -8 2 C-6.14210462 -1.71579076 -3.44525918 -1.06921837 0 0 Z " fill="#8C8C8C" transform="translate(239,70)"/>
<path d="M0 0 C4.29238623 1.65091778 6.8793915 4.73754566 10 8 C9.67 8.66 9.34 9.32 9 10 C7.49702124 8.52386015 5.99768715 7.04400843 4.5 5.5625 C3.6646875 4.73878906 2.829375 3.91507813 1.96875 3.06640625 C0 1 0 1 0 0 Z " fill="#EAEAEA" transform="translate(402,38)"/>
<path d="M0 0 C0.66 0.33 1.32 0.66 2 1 C-0.97 3.97 -3.94 6.94 -7 10 C-7 7 -7 7 -5.46875 5.17578125 C-4.8190625 4.56089844 -4.169375 3.94601563 -3.5 3.3125 C-2.8503125 2.68988281 -2.200625 2.06726562 -1.53125 1.42578125 C-0.77328125 0.72001953 -0.77328125 0.72001953 0 0 Z " fill="#EFEFEF" transform="translate(46,38)"/>
<path d="M0 0 C0.99 0.33 1.98 0.66 3 1 C4 4 4 4 3.0625 6.1875 C2.5365625 7.0846875 2.5365625 7.0846875 2 8 C0.23537317 4.91190305 0 3.76687864 0 0 Z " fill="#CECECE" transform="translate(28,380)"/>
<path d="M0 0 C2.31 0.33 4.62 0.66 7 1 C7 1.66 7 2.32 7 3 C7.99 3.33 8.98 3.66 10 4 C9.01 4.495 9.01 4.495 8 5 C6.0546875 4.22265625 6.0546875 4.22265625 3.875 3.0625 C3.15054688 2.68222656 2.42609375 2.30195313 1.6796875 1.91015625 C1.12539062 1.60980469 0.57109375 1.30945313 0 1 C0 0.67 0 0.34 0 0 Z " fill="#DA944D" transform="translate(182,355)"/>
<path d="M0 0 C1.2077558 3.62326739 0.54311128 4.64146369 -1 8 C-1.33 7.34 -1.66 6.68 -2 6 C-2.99 5.67 -3.98 5.34 -5 5 C-4.360625 4.731875 -3.72125 4.46375 -3.0625 4.1875 C-0.66868314 3.11332248 -0.66868314 3.11332248 0 0 Z " fill="#323027" transform="translate(201,340)"/>
<path d="M0 0 C0.66 0.33 1.32 0.66 2 1 C-1.465 3.97 -1.465 3.97 -5 7 C-5 5.68 -5 4.36 -5 3 C-2.625 1.1875 -2.625 1.1875 0 0 Z " fill="#DACDC6" transform="translate(301,324)"/>
<path d="M0 0 C-1.98 0.99 -3.96 1.98 -6 3 C-6 2.01 -6 1.02 -6 0 C-3 -1 -3 -1 0 0 Z M-9 3 C-8.01 3.33 -7.02 3.66 -6 4 C-7.65 4.33 -9.3 4.66 -11 5 C-10.34 4.34 -9.68 3.68 -9 3 Z " fill="#DB9246" transform="translate(243,324)"/>
<path d="M0 0 C3.40312738 1.05875074 6.01353231 2.00902154 9 4 C8.67 4.66 8.34 5.32 8 6 C5.36 5.01 2.72 4.02 0 3 C0 2.01 0 1.02 0 0 Z " fill="#C6885B" transform="translate(244,126)"/>
<path d="M0 0 C2.00720923 0.28674418 4.0085944 0.61866701 6 1 C6 1.99 6 2.98 6 4 C4.68 4 3.36 4 2 4 C2 3.34 2 2.68 2 2 C1.01 1.67 0.02 1.34 -1 1 C-0.67 0.67 -0.34 0.34 0 0 Z " fill="#7C7C7C" transform="translate(246,70)"/>
<path d="M0 0 C1.32 0.33 2.64 0.66 4 1 C1.03 3.475 1.03 3.475 -2 6 C-2 4.68 -2 3.36 -2 2 C-1.34 2 -0.68 2 0 2 C0 1.34 0 0.68 0 0 Z " fill="#D7B9AB" transform="translate(244,314)"/>
<path d="M0 0 C0.33 1.32 0.66 2.64 1 4 C0.34 4 -0.32 4 -1 4 C-1 5.32 -1 6.64 -1 8 C-1.99 8 -2.98 8 -4 8 C-3.6875 6.0625 -3.6875 6.0625 -3 4 C-2.01 3.67 -1.02 3.34 0 3 C0 2.01 0 1.02 0 0 Z " fill="#A3A3A3" transform="translate(350,250)"/>
<path d="M0 0 C0.33 0.99 0.66 1.98 1 3 C-1.3125 4.125 -1.3125 4.125 -4 5 C-4.99 4.34 -5.98 3.68 -7 3 C-4.69 2.01 -2.38 1.02 0 0 Z " fill="#BDA28D" transform="translate(308,207)"/>
<path d="M0 0 C0 3.20395416 -0.74335022 5.09399739 -2 8 C-2.66 8 -3.32 8 -4 8 C-3.50168276 4.31245243 -2.89932357 2.39509338 0 0 Z " fill="#B8A4A3" transform="translate(161,207)"/>
<path d="M0 0 C0.66 0.33 1.32 0.66 2 1 C0.19587357 4.26460973 -0.83394693 5.88929795 -4 8 C-2.25 2.25 -2.25 2.25 0 0 Z " fill="#C1B6B2" transform="translate(164,204)"/>
<path d="M0 0 C0.33 0.66 0.66 1.32 1 2 C0.67 2.99 0.34 3.98 0 5 C-3.0625 6.1875 -3.0625 6.1875 -6 7 C-4.02 4.69 -2.04 2.38 0 0 Z " fill="#AC5E2D" transform="translate(221,143)"/>
<path d="M0 0 C1.65 0.33 3.3 0.66 5 1 C3.75 2.5625 3.75 2.5625 2 4 C-0.1875 3.6875 -0.1875 3.6875 -2 3 C-1.34 2.01 -0.68 1.02 0 0 Z " fill="#767676" transform="translate(229,72)"/>
<path d="M0 0 C2.97 0 5.94 0 9 0 C9 0.33 9 0.66 9 1 C6.03 1 3.06 1 0 1 C0 0.67 0 0.34 0 0 Z " fill="#F5F5F5" transform="translate(364,426)"/>
<path d="M0 0 C2.97 0 5.94 0 9 0 C9 0.33 9 0.66 9 1 C6.03 1 3.06 1 0 1 C0 0.67 0 0.34 0 0 Z " fill="#EBE2E7" transform="translate(77,426)"/>
<path d="M0 0 C0.33 0 0.66 0 1 0 C1 2.97 1 5.94 1 9 C0.67 9 0.34 9 0 9 C0 6.03 0 3.06 0 0 Z " fill="#CDCDCD" transform="translate(426,364)"/>
<path d="M0 0 C0.33 0 0.66 0 1 0 C1 2.97 1 5.94 1 9 C0.67 9 0.34 9 0 9 C0 6.03 0 3.06 0 0 Z " fill="#CCCCCC" transform="translate(23,364)"/>
<path d="M0 0 C0.33 0 0.66 0 1 0 C1 2.97 1 5.94 1 9 C0.67 9 0.34 9 0 9 C0 6.03 0 3.06 0 0 Z " fill="#CCCCCC" transform="translate(426,77)"/>
<path d="M0 0 C0.33 0 0.66 0 1 0 C1 2.97 1 5.94 1 9 C0.67 9 0.34 9 0 9 C0 6.03 0 3.06 0 0 Z " fill="#CDCDCD" transform="translate(23,77)"/>
<path d="M0 0 C2.97 0 5.94 0 9 0 C9 0.33 9 0.66 9 1 C6.03 1 3.06 1 0 1 C0 0.67 0 0.34 0 0 Z " fill="#EFEFEF" transform="translate(364,23)"/>
<path d="M0 0 C2.97 0 5.94 0 9 0 C9 0.33 9 0.66 9 1 C6.03 1 3.06 1 0 1 C0 0.67 0 0.34 0 0 Z " fill="#F6F6F6" transform="translate(77,23)"/>
<path d="M0 0 C4 1 4 1 4 1 Z " fill="#D0D0D0" transform="translate(373,425)"/>
<path d="M0 0 C4 1 4 1 4 1 Z " fill="#D2D2D2" transform="translate(73,425)"/>
<path d="M0 0 C1 4 1 4 1 4 Z " fill="#9F9F9F" transform="translate(424,377)"/>
<path d="M0 0 C1 4 1 4 1 4 Z " fill="#9E9E9E" transform="translate(25,377)"/>
<path d="M0 0 C1 4 1 4 1 4 Z " fill="#E9E9E9" transform="translate(425,373)"/>
<path d="M0 0 C1 4 1 4 1 4 Z " fill="#ECECEC" transform="translate(24,373)"/>
<path d="M0 0 C1 4 1 4 1 4 Z " fill="#EEEEEE" transform="translate(425,73)"/>
<path d="M0 0 C1 4 1 4 1 4 Z " fill="#F1F1F1" transform="translate(24,73)"/>
<path d="M0 0 C1 4 1 4 1 4 Z " fill="#9F9F9F" transform="translate(424,69)"/>
<path d="M0 0 C1 4 1 4 1 4 Z " fill="#9D9D9D" transform="translate(25,69)"/>
<path d="M0 0 C4 1 4 1 4 1 Z " fill="#FDFCFD" transform="translate(373,24)"/>
<path d="M0 0 C4 1 4 1 4 1 Z " fill="#FDFDFD" transform="translate(73,24)"/>
<path d="" fill="#CECECE" transform="translate(0,0)"/>
<path d="" fill="#CFCFCF" transform="translate(0,0)"/>
<path d="" fill="#CCCCCC" transform="translate(0,0)"/>
<path d="" fill="#CFCFCF" transform="translate(0,0)"/>
<path d="" fill="#FEFEFE" transform="translate(0,0)"/>
<path d="" fill="#FCFCFC" transform="translate(0,0)"/>
<path d="" fill="#D5D5D5" transform="translate(0,0)"/>
<path d="" fill="#D3D3D3" transform="translate(0,0)"/>
<path d="" fill="#FFFFFF" transform="translate(0,0)"/>
<path d="" fill="#FFFFFF" transform="translate(0,0)"/>
<path d="" fill="#D2D2D2" transform="translate(0,0)"/>
<path d="" fill="#D9D9D9" transform="translate(0,0)"/>
<path d="" fill="#FAFAFA" transform="translate(0,0)"/>
<path d="" fill="#FDFDFD" transform="translate(0,0)"/>
<path d="" fill="#FEFEFE" transform="translate(0,0)"/>
<path d="" fill="#FDFDFD" transform="translate(0,0)"/>
<path d="" fill="#D7D7D7" transform="translate(0,0)"/>
<path d="" fill="#D4D4D4" transform="translate(0,0)"/>
<path d="" fill="#D9D9D9" transform="translate(0,0)"/>
<path d="" fill="#F7F7F7" transform="translate(0,0)"/>
<path d="" fill="#FCFCFC" transform="translate(0,0)"/>
<path d="" fill="#FEFEFE" transform="translate(0,0)"/>
<path d="" fill="#FCFCFC" transform="translate(0,0)"/>
<path d="" fill="#FEFEFE" transform="translate(0,0)"/>
<path d="" fill="#FBFBFB" transform="translate(0,0)"/>
<path d="" fill="#FBFBFB" transform="translate(0,0)"/>
<path d="" fill="#FBFBFB" transform="translate(0,0)"/>
<path d="" fill="#FBFBFB" transform="translate(0,0)"/>
<path d="" fill="#D4D4D4" transform="translate(0,0)"/>
<path d="" fill="#D6D6D6" transform="translate(0,0)"/>
<path d="" fill="#F9F9F9" transform="translate(0,0)"/>
<path d="" fill="#F6F6F6" transform="translate(0,0)"/>
<path d="" fill="#F3F3F3" transform="translate(0,0)"/>
<path d="" fill="#FFFFFF" transform="translate(0,0)"/>
<path d="" fill="#FDFDFD" transform="translate(0,0)"/>
<path d="" fill="#FFFFFF" transform="translate(0,0)"/>
<path d="" fill="#FFFFFF" transform="translate(0,0)"/>
<path d="" fill="#FEFEFE" transform="translate(0,0)"/>
<path d="" fill="#B1B1B1" transform="translate(0,0)"/>
<path d="" fill="#A9A9A9" transform="translate(0,0)"/>
<path d="" fill="#A2A2A2" transform="translate(0,0)"/>
<path d="" fill="#B0B0B0" transform="translate(0,0)"/>
<path d="" fill="#B0B0B0" transform="translate(0,0)"/>
<path d="" fill="#A5A5A5" transform="translate(0,0)"/>
<path d="" fill="#AFAFAF" transform="translate(0,0)"/>
<path d="" fill="#B0B0B0" transform="translate(0,0)"/>
<path d="" fill="#FDFDFD" transform="translate(0,0)"/>
<path d="" fill="#FEFEFE" transform="translate(0,0)"/>
<path d="" fill="#FFFFFF" transform="translate(0,0)"/>
<path d="" fill="#FFFFFF" transform="translate(0,0)"/>
<path d="" fill="#F9F9F9" transform="translate(0,0)"/>
<path d="" fill="#FEFEFE" transform="translate(0,0)"/>
</svg>
